<svg width="136" height="136" viewBox="0 0 136 136" fill="none" xmlns="http://www.w3.org/2000/svg">
<path d="M48.2813 42.186H45.944V40.357H48.27C48.3433 39.7032 48.2794 39.0967 48.4936 38.613C48.8243 37.8685 49.1944 36.9635 49.8239 36.5724C50.675 36.0414 50.8723 35.4632 50.7633 34.5978C50.7516 34.3813 50.7516 34.1644 50.7633 33.9479H52.4543C52.4693 33.9668 52.5444 34.0159 52.5425 34.0612C52.4786 35.2251 52.674 36.1227 53.869 36.8123C55.0639 37.502 55.0546 38.9248 55.0208 40.2795L56.6159 40.3683V42.101L55.0678 42.2238V50.8171H57.0293V56.1077L58.6658 56.1946V57.9291L57.1401 58.0255V61.9934C57.4144 61.6968 57.6154 61.4908 57.8033 61.2716C59.3891 59.3759 61.5971 58.1132 64.028 57.7118C64.8359 57.5758 65.1196 57.3113 65.0163 56.5309C64.9944 56.1767 64.9944 55.8214 65.0163 55.4671H66.6884C66.7166 55.5012 66.7862 55.5446 66.7918 55.5937C66.8651 56.2362 66.7148 57.0562 67.0548 57.4719C67.3667 57.8498 68.2141 57.7666 68.8116 57.9329C71.1865 58.5905 73.0785 59.9698 74.6961 62.0898V58.0368L73.1724 57.9291V56.1984L74.7582 56.1152V50.9173L76.7892 50.8171V42.2238L75.2128 42.0972V40.3683L76.7892 40.289C76.8343 39.7127 76.7441 39.1269 76.947 38.6772C77.2965 37.9044 77.6779 36.9899 78.3242 36.5497C79.0927 36.0282 79.3877 35.5294 79.2768 34.6715C79.2686 34.4261 79.2793 34.1803 79.3088 33.9365H80.9659C80.9903 33.9686 81.0599 34.0216 81.0561 34.0688C80.9866 35.2289 81.1707 36.1189 82.3487 36.8425C82.9894 37.2356 83.1585 38.4335 83.476 39.2989C83.5775 39.5672 83.4911 39.9092 83.4911 40.3249H85.9223V42.1104L83.5756 42.2143V50.8511H86.1253V56.1417H88.0661V57.9556L86.223 58.0387V73.7214C86.3684 73.6157 86.5065 73.5002 86.6363 73.3756C88.1807 71.66 90.0671 70.5773 92.3574 70.2542C92.9023 70.1786 93.1785 69.967 93.139 69.3492C93.0864 68.5102 93.1259 67.6656 93.1259 66.7568H94.9465C94.9465 67.7015 94.9634 68.6028 94.9465 69.5041C94.9333 69.9916 95.0742 70.2032 95.5984 70.3128C100.155 71.2575 103.213 74.9382 103.251 79.5958C103.298 85.7555 103.266 91.9152 103.266 98.0768C103.266 98.3224 103.232 98.5681 103.206 98.9365H28.651C28.6304 98.5586 28.5965 98.2166 28.5965 97.8841C28.5965 91.9133 28.5815 85.9407 28.5965 79.9699C28.6116 75.0025 31.4599 71.4144 36.2642 70.3147C36.7846 70.1956 36.9236 69.9802 36.9105 69.4984C36.886 68.6217 36.9105 67.7431 36.9105 66.7776H38.6972V69.8895C40.0631 70.3695 41.3615 70.6623 42.4963 71.2689C43.6311 71.8754 44.5988 72.7937 45.6472 73.5816V58.0293L43.8246 57.948V56.1814H45.7035V50.8738H48.2907L48.2813 42.186ZM57.1119 97.0754H61.2454V95.7716C61.2454 89.6119 61.2229 83.4503 61.2605 77.2906C61.2659 76.58 61.4407 75.8811 61.7702 75.2525C62.0997 74.6238 62.5744 74.0838 63.1543 73.6778C63.7342 73.2717 64.4025 73.0114 65.1031 72.9187C65.8037 72.8261 66.5161 72.9037 67.1807 73.1451C69.0408 73.7932 70.1869 75.4881 70.1869 77.6893C70.1982 83.786 70.1982 89.8834 70.1869 95.9814V97.0981H74.7112V68.1002H57.1175L57.1119 97.0754ZM45.6509 97.0981C45.6716 96.8184 45.7017 96.603 45.7017 96.3857C45.7017 90.6682 45.7017 84.95 45.7017 79.2311C45.7017 78.9194 45.6472 78.6076 45.6228 78.2864C45.572 77.61 45.2733 77.353 44.5424 77.3606C40.6682 77.4021 36.794 77.3813 32.9179 77.3794C30.4284 77.3794 30.4171 77.3794 30.4134 79.9586C30.4058 85.3625 30.4058 90.7664 30.4134 96.1703C30.4134 96.4707 30.449 96.7693 30.4659 97.047C32.3166 97.3267 32.3167 97.3267 32.3186 95.6262C32.3186 92.6408 32.2885 89.6554 32.3317 86.6719C32.3805 83.388 34.9621 80.7597 38.0547 80.7692C41.1473 80.7786 43.7513 83.4787 43.7701 86.7891C43.787 89.8122 43.7701 92.8222 43.7701 95.8378V97.0905L45.6509 97.0981ZM88.0774 97.0981V96.0267C88.0774 92.9166 88.0774 89.8066 88.0774 86.6965C88.0774 83.3086 90.6063 80.6841 93.853 80.6841C97.0996 80.6841 99.6436 83.3294 99.6493 86.7021C99.6493 89.8122 99.6493 92.9223 99.6493 96.0324V97.0792H101.393C101.414 96.8165 101.44 96.6313 101.44 96.4462C101.44 90.8533 101.44 85.2611 101.44 79.6695C101.44 79.2311 101.395 78.7928 101.359 78.3469C101.303 77.6534 101.011 77.3492 100.232 77.3587C96.2335 77.4021 92.2334 77.3794 88.2333 77.3776C86.1572 77.3776 86.1515 77.3776 86.1497 79.5202C86.1497 85.0488 86.1497 90.5781 86.1497 96.108V97.0905L88.0774 97.0981ZM68.2611 96.9091C68.3004 96.8076 68.33 96.7026 68.3494 96.5955C68.3494 90.1863 68.372 83.7772 68.3494 77.37C68.3595 76.8604 68.2171 76.3596 67.9407 75.9324C67.6643 75.5052 67.2667 75.1713 66.7994 74.9741C64.9994 74.1258 63.0735 75.4257 63.0679 77.523C63.0528 83.7445 63.0528 89.9653 63.0679 96.1854C63.0821 96.4281 63.1103 96.6697 63.1525 96.9091H68.2611ZM97.7591 97.0414C97.7854 96.7806 97.8268 96.569 97.8268 96.3593C97.8268 93.0924 97.8493 89.8273 97.8268 86.5623C97.8348 85.4967 97.4217 84.4716 96.6782 83.7123C95.9348 82.953 94.922 82.5216 93.8624 82.5132C91.6434 82.5132 89.9168 84.3119 89.9036 86.6455C89.9036 89.816 89.9036 92.9865 89.9036 96.159V97.0414H97.7591ZM41.8256 97.0414C41.8763 96.9375 41.9251 96.8827 41.9251 96.8298C41.9251 93.3115 42.0153 89.7914 41.9101 86.277C41.8424 83.9832 39.4488 82.226 37.3069 82.687C35.428 83.0895 34.1523 84.7654 34.1335 86.9156C34.1053 90.056 34.1222 93.1982 34.1335 96.3385C34.1465 96.5744 34.1747 96.8092 34.2181 97.0414H41.8256ZM57.4295 66.1219H74.4106C74.0122 62.5508 69.9577 59.35 65.9069 59.3387C61.8899 59.3349 57.7751 62.6056 57.4238 66.1276L57.4295 66.1219ZM47.5467 83.2727C50.1508 81.9293 52.4899 80.7465 54.7971 79.4938C55.032 79.3653 55.173 78.874 55.1861 78.549C55.2218 76.5065 55.2068 74.4621 55.2012 72.4196C55.182 72.14 55.1468 71.8618 55.0959 71.5863C52.6083 72.8712 50.2241 74.0955 47.8548 75.3445C47.7696 75.4059 47.6989 75.4855 47.6479 75.5776C47.5969 75.6698 47.5668 75.7721 47.5598 75.8773C47.5353 78.2694 47.5411 80.6464 47.5411 83.2784L47.5467 83.2727ZM84.2971 71.5277C81.8546 72.7861 79.6263 73.9652 77.366 75.0875C76.8023 75.3709 76.6145 75.7318 76.6314 76.3364C76.6596 78.3166 76.6314 80.3044 76.6464 82.277C76.6464 82.5396 76.7009 82.8023 76.746 83.2066C79.2261 81.9255 81.5841 80.72 83.927 79.4843C84.0259 79.4171 84.1089 79.3287 84.1699 79.2255C84.231 79.1223 84.2686 79.0068 84.2802 78.8872C84.3009 76.5122 84.2915 74.1295 84.2915 71.5334L84.2971 71.5277ZM47.6049 92.8788C47.8191 92.8958 47.8924 92.9261 47.9375 92.9015C50.2146 91.7395 52.4975 90.5869 54.7521 89.3852C54.9832 89.2643 55.1804 88.8467 55.1842 88.5633C55.218 86.3998 55.203 84.2364 55.1842 82.0729C55.1533 81.8716 55.0998 81.6744 55.0246 81.4853C52.6328 82.7191 50.3067 83.9114 47.992 85.1301C47.892 85.1913 47.8066 85.2737 47.7417 85.3717C47.6768 85.4696 47.6339 85.5806 47.6162 85.6969C47.5899 88.0777 47.5993 90.4546 47.5993 92.8845L47.6049 92.8788ZM76.6502 93.1131C79.2167 91.7905 81.5784 90.5888 83.912 89.3342C84.1261 89.2189 84.2483 88.7673 84.2577 88.4575C84.2934 87.0763 84.2727 85.6932 84.2727 84.3101C84.2727 83.4126 84.2727 82.515 84.2727 81.6893C84.0961 81.61 84.0604 81.5798 84.0435 81.5873C81.7024 82.7682 79.3595 83.9454 77.0297 85.149C76.9294 85.2131 76.8445 85.2989 76.7814 85.4003C76.7184 85.5017 76.6786 85.6159 76.6652 85.7347C76.6351 88.1136 76.6445 90.4943 76.6445 93.1113L76.6502 93.1131ZM84.3122 64.514C84.3122 62.4242 84.3272 60.4516 84.2858 58.4809C84.2858 58.3127 83.8969 58.0142 83.6865 58.0104C81.5615 57.9745 79.4365 57.9991 77.3116 57.9802C76.778 57.9802 76.6013 58.1804 76.607 58.7001C76.6276 60.427 76.607 62.1559 76.6389 63.8848C76.6389 64.0983 76.9395 64.4837 77.1049 64.4875C79.4666 64.5253 81.834 64.5121 84.3065 64.5121L84.3122 64.514ZM55.2406 64.4535C55.2406 62.4299 55.2556 60.4648 55.2143 58.4998C55.2143 58.3259 54.8385 58.0142 54.6356 58.0104C52.4862 57.9751 50.3361 57.9751 48.1854 58.0104C47.9675 58.0104 47.5767 58.3637 47.573 58.5602C47.526 60.4969 47.5448 62.4374 47.5448 64.4497L55.2406 64.4535ZM47.5504 73.1961C47.7101 73.2264 47.7834 73.2642 47.8266 73.2434C50.1639 72.0568 52.5031 70.8721 54.8272 69.6534C54.925 69.5847 55.0072 69.496 55.0684 69.3931C55.1296 69.2902 55.1685 69.1754 55.1824 69.0563C55.2521 68.3688 55.2628 67.6766 55.2143 66.9873C55.1936 66.7587 54.8554 66.3751 54.6506 66.3713C52.4655 66.3279 50.2785 66.3335 48.0915 66.3713C47.9036 66.3713 47.5711 66.6736 47.5692 66.8399C47.5335 68.9637 47.5448 71.0875 47.5448 73.1942L47.5504 73.1961ZM76.622 73.4248C79.0532 72.1739 81.2458 71.0591 83.4253 69.9122C83.7579 69.7365 84.2351 69.4436 84.2652 69.1564C84.3271 68.2832 84.312 67.4062 84.2201 66.5357C84.2201 66.4582 83.8443 66.3468 83.6564 66.3468C81.5333 66.3335 79.4102 66.326 77.2871 66.36C77.0654 66.36 76.6614 66.651 76.6577 66.8135C76.6032 68.9429 76.6163 71.0667 76.6163 73.4229L76.622 73.4248ZM47.7177 97.1604H53.3542C55.1974 97.1604 55.1974 97.1604 55.1974 95.3276C55.1974 94.0295 55.1974 92.7296 55.1974 91.2482L48.8487 94.5208C47.417 95.2577 47.3963 95.2974 47.712 97.1585L47.7177 97.1604ZM84.267 91.2558C81.7137 92.5784 79.3332 93.731 77.0391 95.0461C76.7009 95.235 76.7347 96.1495 76.684 96.7353C76.6727 96.8562 77.0485 97.1302 77.2477 97.1321C79.3726 97.1642 81.4995 97.1699 83.6226 97.1321C83.8405 97.1321 84.2314 96.7749 84.237 96.5766C84.284 94.8817 84.2614 93.1906 84.2614 91.2539L84.267 91.2558ZM44.5161 75.5013C42.6635 72.8995 40.3169 71.7412 37.3952 71.9831C34.9959 72.172 33.0588 73.3057 31.6572 75.4919H34.8024C34.8474 74.942 34.8869 74.4507 34.9282 73.9387H36.6192C36.6624 74.5055 36.7019 74.9855 36.7395 75.4843H39.2422C39.2835 74.9269 39.3192 74.4375 39.3567 73.9293H41.0777C41.1097 74.4772 41.1397 74.9666 41.1717 75.5013H44.5161ZM87.3258 75.4767H90.6721C90.7059 74.9099 90.7341 74.4205 90.7623 73.9406H92.4964C92.5284 74.4961 92.5584 74.9836 92.5885 75.4824H95.093C95.1438 74.9269 95.1889 74.4394 95.2377 73.9141H96.9061C96.9587 74.4564 97.0076 74.9685 97.0564 75.4805H100.228C98.661 73.2226 96.645 72.0587 94.0991 71.9623C91.3109 71.8565 89.1013 73.0261 87.3258 75.4767ZM47.6162 52.7463V56.0926H55.1767V52.7463H47.6162ZM84.2652 52.7822H76.6953V56.0869H84.2652V52.7822ZM53.1945 46.5923V44.2474C53.1945 42.1085 53.1945 42.1369 51.0639 42.1406C50.3537 42.1406 50.1527 42.3844 50.1677 43.0684C50.2034 44.9465 50.1771 46.8266 50.1808 48.7066C50.1808 51.0344 50.1808 51.0193 52.5538 50.8511C53.0423 50.8152 53.2039 50.6376 53.1963 50.1672C53.1719 48.9787 53.1945 47.7883 53.1945 46.5923ZM81.6855 46.5923V44.34C81.6855 42.0726 81.6855 42.0972 79.4515 42.1444C78.8296 42.1576 78.6512 42.3731 78.6606 42.972C78.6887 44.8842 78.6399 46.7963 78.6756 48.7066C78.7245 51.2234 78.1119 50.785 80.9452 50.8511C81.5277 50.8644 81.6968 50.6282 81.6968 50.0727C81.6592 48.9144 81.678 47.7543 81.6761 46.5923H81.6855ZM81.6273 40.2852C81.725 39.3404 81.834 38.4165 80.9189 37.9895C80.6567 37.8883 80.3762 37.8442 80.0958 37.8598C79.8153 37.8754 79.5413 37.9505 79.2918 38.0802C78.5008 38.5639 78.5948 39.4349 78.777 40.2852H81.6273ZM53.1382 40.2625C53.2509 39.3178 53.3373 38.3976 52.4186 37.9687C52.1687 37.8723 51.9017 37.8287 51.6344 37.8408C51.367 37.8528 51.1051 37.9201 50.8647 38.0386C50.0418 38.5072 50.1451 39.3858 50.2409 40.2625H53.1382Z" fill="#08536B"/>
<circle cx="67.5586" cy="68.2246" r="67" stroke="#08536B"/>
<circle cx="67.5586" cy="68.2246" r="67" stroke="#6C8C91"/>
</svg>
