<svg width="136" height="143" viewBox="0 0 136 143" fill="none" xmlns="http://www.w3.org/2000/svg">
<circle cx="68.1562" cy="68.2246" r="67" stroke="#6C8C91"/>
<g clip-path="url(#clip0_6_11418)">
<g clip-path="url(#clip1_6_11418)">
<path d="M69.5191 28.1162C68.4303 28.6019 67.9278 29.5399 67.9278 30.9972C67.9278 31.8347 67.8943 31.9017 67.5258 31.9017C66.6046 31.9017 66.5878 31.9519 66.5878 34.1462C66.5878 35.2517 66.5208 36.2567 66.4538 36.3404C66.3868 36.4409 65.7001 37.0272 64.9128 37.6302C61.3785 40.3605 60.6918 41.7507 60.7253 46.089V48.6518H59C56.5545 48.6518 56.5378 48.6685 56.5378 50.9633V52.7723L56.0018 52.923L55.449 53.0905V55.268V57.4455L56.0018 57.613L56.5378 57.7638V59.5393C56.5378 61.2143 56.521 61.3148 56.1693 61.4656C55.8008 61.6331 55.784 61.7336 55.7338 63.9278L55.6835 66.2393H54.8628C53.6232 66.2393 53.5227 66.4236 53.5227 68.6011V70.4269H51.7807H50.022L49.9717 66.6078L49.9215 62.7888L49.3855 61.7168C48.682 60.2763 44.7625 56.3065 44.193 56.4573C43.9919 56.5075 42.9199 57.479 41.8144 58.618C40.1897 60.2596 39.6704 60.9296 39.2349 61.8341L38.6989 62.9731L38.6487 80.7617L38.6152 98.567H37.1077C35.1312 98.567 35.0977 98.6005 35.0977 100.811C35.0977 101.917 35.1647 102.587 35.2987 102.721C35.5834 103.006 105.632 103.006 105.917 102.721C106.051 102.587 106.118 101.917 106.118 100.811C106.118 98.6005 106.084 98.567 104.108 98.567H102.6L102.567 80.7617L102.517 62.9731L101.981 61.8341C101.545 60.9296 101.026 60.2596 99.4012 58.618C98.2957 57.479 97.2237 56.5075 97.0227 56.4573C96.4532 56.3065 92.5337 60.2763 91.8302 61.7168L91.2942 62.7888L91.2439 66.6078L91.1937 70.4269H89.4349H87.6929V68.6011C87.6929 66.4236 87.5924 66.2393 86.3529 66.2393H85.5322L85.4819 63.9278C85.4316 61.7336 85.4149 61.6331 85.0631 61.4656C84.6946 61.3148 84.6779 61.2143 84.6779 59.5393V57.7638L85.2306 57.613L85.7667 57.4455L85.8169 55.4188C85.8671 53.2413 85.7332 52.8393 84.9961 52.8393C84.6946 52.8393 84.6779 52.7053 84.6779 51.0135C84.6779 48.6685 84.6611 48.6518 82.2156 48.6518H80.4904L80.5071 46.089C80.5239 41.667 79.9041 40.461 75.8339 37.2282L74.6446 36.2567L74.5943 34.1294L74.5441 31.9854L73.9411 31.9352L73.3213 31.8849L73.2543 30.7292C73.1873 29.4897 72.9193 28.9704 72.0818 28.3339C71.5123 27.9152 70.1891 27.7979 69.5191 28.1162ZM71.5291 29.6404C71.8808 29.9754 71.9478 30.2099 71.9478 30.9804V31.9017H70.6078H69.2678V30.9804C69.2678 29.8582 69.7536 29.2217 70.6078 29.2217C70.9261 29.2217 71.2778 29.3724 71.5291 29.6404ZM73.2878 34.7492V36.2567H70.6078H67.9278V34.7492V33.2417H70.6078H73.2878V34.7492ZM75.7166 38.853C76.4871 39.456 77.3581 40.2265 77.6596 40.5615C78.1956 41.1812 78.8656 42.4877 79.0666 43.3252L79.1839 43.7942H70.6078H62.0318L62.1323 43.3252C62.35 42.4375 63.221 40.8462 63.8575 40.2432C64.2093 39.9082 65.0301 39.2215 65.6666 38.7022L66.8391 37.781L70.5743 37.7642H74.3096L75.7166 38.853ZM79.1504 46.9767V48.6518H70.6078H62.0653V46.9767V45.3017H70.6078H79.1504V46.9767ZM83.3044 51.4825L83.3546 52.8393H70.6078H57.8778V51.5328C57.8778 50.8125 57.9113 50.176 57.9448 50.1425C57.9783 50.109 63.69 50.0923 70.6413 50.0923L83.2541 50.1258L83.3044 51.4825ZM84.5104 55.268V56.273H70.6078H56.7053V55.268V54.263H70.6078H84.5104V55.268ZM62.5678 59.5393V61.3986L60.273 61.3483L57.9615 61.2981L57.9113 59.4891L57.861 57.6968H60.2228H62.5678V59.5393ZM77.1404 59.3718V61.0468H70.6078H64.0753V59.3718V57.6968H70.6078H77.1404V59.3718ZM83.3044 59.4891L83.2541 61.2981L80.9594 61.3483L78.6479 61.3986V59.5393V57.6968H80.9929H83.3546L83.3044 59.4891ZM48.0455 62.0351C48.2632 62.4538 48.4977 63.0066 48.5647 63.2578L48.6652 63.7268H44.394C40.3237 63.7268 40.1227 63.7101 40.1227 63.4086C40.1227 62.6381 40.7592 61.7001 42.5179 59.9078L44.3772 58.0318L46.002 59.6398C46.9065 60.5443 47.8277 61.6163 48.0455 62.0351ZM100.691 62.2528C101.478 63.8106 101.696 63.7268 96.8217 63.7268H92.5504L92.6509 63.2578C92.9022 62.2528 93.5052 61.3986 95.1132 59.7403L96.805 58.0318L98.547 59.7403C99.5185 60.7118 100.456 61.8173 100.691 62.2528ZM76.3029 64.2796C76.3029 66.1556 76.3029 66.1891 75.8841 66.3733C75.4654 66.5576 75.4654 66.6078 75.4654 68.5006V70.4269H70.6078H65.7503V68.5006C65.7503 66.6078 65.7503 66.5576 65.3316 66.3733C64.9128 66.1891 64.9128 66.1556 64.9128 64.2796V62.3868H70.6078H76.3029V64.2796ZM63.5728 64.4806V66.2393H60.3065H57.0403V64.4806V62.7218H60.3065H63.5728V64.4806ZM84.1754 64.4806V66.2393H80.9091H77.6429V64.4806V62.7218H80.9091H84.1754V64.4806ZM48.6652 65.6531V66.2393H44.3102H39.9552V65.6531V65.0668H44.3102H48.6652V65.6531ZM101.26 65.6531V66.2393H96.9055H92.5504V65.6531V65.0668H96.9055H101.26V65.6531ZM60.608 67.7468H64.4103V69.0868V70.4269H59.6365H54.8628V69.1203C54.8628 68.4001 54.913 67.7468 54.9968 67.6798C55.0638 67.5961 55.4993 67.5961 55.9515 67.6463C56.4205 67.6966 58.4975 67.7468 60.608 67.7468ZM86.3194 69.0366L86.3697 70.4269H81.5791H76.8054V69.0868V67.7468L80.9594 67.6966C83.2374 67.6798 85.3646 67.6463 85.6829 67.6631H86.2692L86.3194 69.0366ZM48.6652 83.1569V98.567H44.3102H39.9552V83.1569V67.7468H44.3102H48.6652V83.1569ZM101.26 83.1569V98.567H96.9055H92.5504V83.1569V67.7468H96.9055H101.26V83.1569ZM91.2104 73.6094V75.4519H70.6078H50.0052V73.6094V71.7669H70.6078H91.2104V73.6094ZM91.2104 77.5456V78.2994H70.6078H50.0052V77.5456V76.7919H70.6078H91.2104V77.5456ZM53.5227 89.1869V98.567H51.764H50.0052V89.1869V79.8069H51.764H53.5227V89.1869ZM59.5528 89.1869V98.567H57.2078H54.8628V89.1869V79.8069H57.2078H59.5528V89.1869ZM64.4103 89.1869V98.567H62.7353H61.0603V89.1869V79.8069H62.7353H64.4103V89.1869ZM75.2978 89.1869V98.567H70.6078H65.9178V89.1869V79.8069H70.6078H75.2978V89.1869ZM80.1554 89.1869V98.567H78.4804H76.8054V89.1869V79.8069H78.4804H80.1554V89.1869ZM86.3529 89.1869V98.567H84.0079H81.6629V89.1869V79.8069H84.0079H86.3529V89.1869ZM91.2104 89.1869V98.567H89.4517H87.6929V89.1869V79.8069H89.4517H91.2104V89.1869ZM104.778 100.744V101.582H70.6078H36.4377V100.744V99.907H70.6078H104.778V100.744Z" fill="#08536B"/>
</g>
</g>
<defs>
<clipPath id="clip0_6_11418">
<rect width="80" height="115" fill="white" transform="translate(31.1172 27.9346)"/>
</clipPath>
<clipPath id="clip1_6_11418">
<rect width="75" height="75" fill="white" transform="translate(31.1172 27.9346)"/>
</clipPath>
</defs>
</svg>
