<svg width="45" height="45" viewBox="0 0 45 45" fill="none" xmlns="http://www.w3.org/2000/svg">
<path d="M20.2091 1.72824L17.7127 3.28377L15.9911 3.23191C15.0442 3.20599 13.7099 3.16278 13.0213 3.13686L11.7731 3.09365L10.3614 5.72077L8.94968 8.34789L6.34142 9.76515L3.73317 11.1824L3.78482 13.2651L3.83647 15.3564L2.98427 15.391C2.33005 15.4169 2.04599 15.4688 1.77053 15.6157C1.34012 15.8404 0.944152 16.307 0.806422 16.7478C0.668693 17.2144 0.668693 27.1871 0.806422 27.6538C0.944152 28.0945 1.34012 28.5612 1.77053 28.7858C2.04599 28.9328 2.33005 28.9846 2.98427 29.0105L3.83647 29.0451L3.78482 31.1364L3.73317 33.2191L6.34142 34.6277L8.94968 36.045L10.3614 38.6721L11.7731 41.3079L13.0213 41.2647C13.7099 41.2387 15.0442 41.1955 15.9911 41.1696L17.7127 41.1177L20.2263 42.6819L22.7484 44.2461L25.2878 42.6733L27.8272 41.1091L29.6177 41.161C30.599 41.1955 31.9247 41.2387 32.5617 41.2647L33.7238 41.3165L35.1355 38.6807L36.5472 36.0536L39.1555 34.6364L41.7637 33.2277L41.7121 31.1364L41.6604 29.0451L42.5126 29.0105C43.7178 28.9587 44.217 28.6735 44.6044 27.818C44.7765 27.4377 44.7852 27.2735 44.7852 22.2526C44.7852 18.623 44.7593 16.9811 44.6905 16.7478C44.5527 16.307 44.1568 15.8404 43.7264 15.6157C43.4509 15.4688 43.1668 15.4169 42.5126 15.391L41.6604 15.3564L41.7121 13.2651L41.7637 11.1824L39.1555 9.76515L36.5472 8.34789L35.1355 5.72077L33.7238 3.085L32.5617 3.13686C31.9247 3.16278 30.599 3.21463 29.6091 3.24056L27.8272 3.29241L25.2964 1.72824C23.9019 0.864052 22.7571 0.164062 22.7398 0.164062C22.7226 0.172703 21.5864 0.872692 20.2091 1.72824ZM25.1243 3.15414L27.4399 4.58868L29.8071 4.52819C31.1069 4.50227 32.3465 4.45906 32.5617 4.43313L32.949 4.38992L34.2661 6.85284L35.5831 9.30713L37.6663 10.4306C38.8111 11.0528 39.913 11.6491 40.1196 11.7614C40.4725 11.9515 40.4897 11.9775 40.4467 12.2626C40.4209 12.4268 40.395 13.196 40.395 13.9651V15.3737H38.8972H37.3908L36.9518 14.5268C35.1613 11.1046 31.8472 8.23554 28.1715 6.95655C26.2433 6.27385 24.8574 6.04052 22.7571 6.04052C20.6911 6.04052 19.245 6.28249 17.3253 6.95655C16.4473 7.25901 14.631 8.1232 14.5363 8.27875C14.5019 8.32196 14.6224 8.58986 14.786 8.87504L15.0959 9.39355L16.0772 8.89232C17.1876 8.3306 18.5047 7.87259 19.7787 7.59605C21.1043 7.30222 23.7212 7.25901 25.1157 7.49234C28.9549 8.15776 32.2604 10.1454 34.5846 13.2132C35.0064 13.775 35.9188 15.2181 35.9188 15.3305C35.9188 15.3564 29.9965 15.3737 22.7484 15.3737C15.509 15.3737 9.57807 15.3478 9.57807 15.3218C9.57807 15.2009 10.4733 13.7922 10.9209 13.196C11.687 12.1935 13.0643 10.8454 14.0457 10.1281C14.0801 10.1022 13.796 9.67873 13.4689 9.25528L13.314 9.04787L12.6253 9.59231C10.964 10.9145 9.35426 12.8935 8.42458 14.7428L8.11469 15.3737H6.60827H5.10186V13.9651C5.10186 13.196 5.07603 12.4268 5.05021 12.2626L4.99856 11.9602L7.45187 10.6293L9.90517 9.30713L11.2222 6.85284L12.5479 4.38992L12.9783 4.43313C13.2193 4.45906 14.4589 4.50227 15.7329 4.52819L18.057 4.58868L20.3726 3.15414C21.6466 2.36773 22.7226 1.71959 22.7571 1.71959C22.7829 1.71959 23.8589 2.36773 25.1243 3.15414ZM43.3304 16.9206C43.4853 17.1107 43.4939 17.3268 43.4939 22.2008C43.4939 27.0748 43.4853 27.2908 43.3304 27.4809L43.1668 27.6883L33.8959 27.7143L24.6336 27.7315L24.6594 28.3624L24.6853 28.9846L30.3063 29.0105C33.388 29.0192 35.9188 29.0451 35.9188 29.071C35.9188 29.2006 34.9805 30.6698 34.4727 31.3179C32.3379 34.0919 29.2045 36.0536 25.7182 36.8055C24.384 37.0993 21.7585 37.1425 20.3812 36.9092C16.5937 36.2524 13.3398 34.3166 11.0328 31.3352C10.5077 30.6525 9.57807 29.2179 9.57807 29.0797C9.57807 29.0537 12.1088 29.0192 15.1991 29.0105L20.8116 28.9846L20.8374 28.3624L20.8633 27.7315L11.601 27.7143L2.33005 27.6883L2.1665 27.4809C2.01155 27.2908 2.00295 27.0748 2.00295 22.2267C2.00295 18.8218 2.02877 17.1194 2.09764 17.007C2.14928 16.9119 2.2698 16.7996 2.37309 16.7564C2.485 16.7132 11.2739 16.6873 22.8603 16.6959L43.1668 16.7132L43.3304 16.9206ZM8.54509 29.8661C10.7315 34.066 14.8893 37.1339 19.7356 38.119C20.6136 38.2919 20.9666 38.3178 22.7915 38.3178C24.7025 38.3091 24.9349 38.2919 25.942 38.0845C28.7999 37.4622 31.4168 36.1487 33.5086 34.2734C34.86 33.0549 36.1512 31.413 36.9518 29.8661L37.3908 29.0278H38.8972H40.395V30.4278C40.395 31.2056 40.4209 31.9747 40.4467 32.1389L40.4897 32.4413L38.045 33.7722L35.5917 35.103L34.2661 37.5573L32.949 40.0116L32.5617 39.9684C32.3465 39.9425 31.1069 39.8992 29.8071 39.8733L27.4399 39.8128L25.1243 41.2474C23.8589 42.0338 22.7829 42.6819 22.7571 42.6819C22.7226 42.6819 21.6466 42.0338 20.3726 41.2474L18.057 39.8128L15.7329 39.8733C14.4589 39.8992 13.2193 39.9425 12.9783 39.9684L12.5479 40.0116L11.2222 37.5487L9.89657 35.0857L7.45187 33.7635L4.99856 32.4413L5.05021 32.1389C5.07603 31.9747 5.10186 31.2056 5.10186 30.4278V29.0278H6.59967H8.10608L8.54509 29.8661Z" fill="#08536B"/>
<path d="M26.625 10.5352V11.2266H27.2706H27.9162V10.5352V9.84387H27.2706H26.625V10.5352Z" fill="#08536B"/>
<path d="M26.625 10.5352V11.2266H27.2706H27.9162V10.5352V9.84387H27.2706H26.625V10.5352Z" stroke="#08536B"/>
<path d="M29.2031 11.8321V12.5234H29.8487H30.4943V11.8321V11.1407H29.8487H29.2031V11.8321Z" fill="#08536B"/>
<path d="M29.2031 11.8321V12.5234H29.8487H30.4943V11.8321V11.1407H29.8487H29.2031V11.8321Z" stroke="#08536B"/>
<path d="M5.68996 18.9704C5.64692 19.0049 5.62109 20.4827 5.62109 22.2629V25.4863H6.98117C8.5048 25.4863 8.8233 25.4258 9.33118 25.0283C10.2522 24.3283 10.3642 22.8592 9.57221 21.9777C9.41726 21.8135 9.41726 21.779 9.54638 21.3901C9.83045 20.5605 9.48613 19.6444 8.73722 19.2037C8.34986 18.9704 8.27239 18.9617 7.04143 18.9358C6.33557 18.9185 5.72439 18.9358 5.68996 18.9704ZM8.15187 20.3963C8.41872 20.6123 8.44455 20.9234 8.20352 21.1654C8.06579 21.3037 7.91945 21.3382 7.47183 21.3382H6.91231V20.837C6.91231 20.5605 6.93813 20.3012 6.97256 20.2753C6.99839 20.2407 7.23081 20.2148 7.47183 20.2148C7.79894 20.2148 7.98832 20.2667 8.15187 20.3963ZM8.40151 22.7382C8.67697 22.8851 8.79748 23.0753 8.80609 23.3864C8.80609 23.9999 8.52202 24.1901 7.55791 24.1901H6.91231V23.4123V22.6345H7.56652C7.91945 22.6345 8.29821 22.6777 8.40151 22.7382Z" fill="#08536B"/>
<path d="M5.68996 18.9704C5.64692 19.0049 5.62109 20.4827 5.62109 22.2629V25.4863H6.98117C8.5048 25.4863 8.8233 25.4258 9.33118 25.0283C10.2522 24.3283 10.3642 22.8592 9.57221 21.9777C9.41726 21.8135 9.41726 21.779 9.54638 21.3901C9.83045 20.5605 9.48613 19.6444 8.73722 19.2037C8.34986 18.9704 8.27239 18.9617 7.04143 18.9358C6.33557 18.9185 5.72439 18.9358 5.68996 18.9704ZM8.15187 20.3963C8.41872 20.6123 8.44455 20.9234 8.20352 21.1654C8.06579 21.3037 7.91945 21.3382 7.47183 21.3382H6.91231V20.837C6.91231 20.5605 6.93813 20.3012 6.97256 20.2753C6.99839 20.2407 7.23081 20.2148 7.47183 20.2148C7.79894 20.2148 7.98832 20.2667 8.15187 20.3963ZM8.40151 22.7382C8.67697 22.8851 8.79748 23.0753 8.80609 23.3864C8.80609 23.9999 8.52202 24.1901 7.55791 24.1901H6.91231V23.4123V22.6345H7.56652C7.91945 22.6345 8.29821 22.6777 8.40151 22.7382Z" stroke="#08536B"/>
<path d="M12.6797 22.1988V25.4827H13.3253H13.9623L13.9881 24.4284L14.0139 23.3827L14.9178 24.4716C15.4171 25.0679 15.8561 25.5605 15.8905 25.5605C15.9852 25.5691 16.8116 24.8518 16.8116 24.7654C16.8116 24.7222 16.4845 24.3074 16.0799 23.8321C15.6753 23.3568 15.3482 22.9333 15.3482 22.8988C15.3482 22.8556 15.4343 22.8037 15.5462 22.7692C15.8561 22.6914 16.3553 22.2247 16.5447 21.8272C16.9235 21.0321 16.7083 19.9778 16.0541 19.4334C15.572 19.0359 15.0469 18.9149 13.7815 18.9149H12.6797V22.1988ZM15.0813 20.3408C15.3568 20.4791 15.4343 20.626 15.4343 20.9889C15.4343 21.421 15.0297 21.6803 14.3497 21.6803H13.9709V20.9457V20.2112H14.4013C14.6423 20.2112 14.9522 20.2717 15.0813 20.3408Z" fill="#08536B"/>
<path d="M12.6797 22.1988V25.4827H13.3253H13.9623L13.9881 24.4284L14.0139 23.3827L14.9178 24.4716C15.4171 25.0679 15.8561 25.5605 15.8905 25.5605C15.9852 25.5691 16.8116 24.8518 16.8116 24.7654C16.8116 24.7222 16.4845 24.3074 16.0799 23.8321C15.6753 23.3568 15.3482 22.9333 15.3482 22.8988C15.3482 22.8556 15.4343 22.8037 15.5462 22.7692C15.8561 22.6914 16.3553 22.2247 16.5447 21.8272C16.9235 21.0321 16.7083 19.9778 16.0541 19.4334C15.572 19.0359 15.0469 18.9149 13.7815 18.9149H12.6797V22.1988ZM15.0813 20.3408C15.3568 20.4791 15.4343 20.626 15.4343 20.9889C15.4343 21.421 15.0297 21.6803 14.3497 21.6803H13.9709V20.9457V20.2112H14.4013C14.6423 20.2112 14.9522 20.2717 15.0813 20.3408Z" stroke="#08536B"/>
<path d="M20.5733 21.5711C20.1706 22.6387 19.7771 23.6739 19.5575 24.2516C19.4767 24.4641 19.4195 24.6147 19.394 24.6821L19.2305 25.1229L19.7986 25.3476C20.1171 25.4686 20.3926 25.5463 20.4184 25.5204C20.4442 25.4945 20.5905 25.1747 20.7283 24.8118L20.9951 24.1464L22.1228 24.1204L23.2504 24.0945L23.5345 24.8377C23.6862 25.2509 23.744 25.4474 23.8651 25.501C23.9846 25.5538 24.1656 25.4675 24.5589 25.313C24.7655 25.2352 24.9462 25.1315 24.9635 25.0883C24.9721 25.0451 24.4642 23.6451 23.8444 21.9859L22.6995 18.9612L22.14 18.9353L21.5805 18.9094L20.5733 21.5711ZM22.4327 21.8995C22.478 22.0229 22.5233 22.1488 22.564 22.262C22.6316 22.4499 22.6866 22.6028 22.7081 22.6513C22.7598 22.7896 22.7081 22.8069 22.1572 22.8069C21.8215 22.8069 21.546 22.7809 21.546 22.7377C21.546 22.5735 22.1056 21.1736 22.1572 21.2341C22.183 21.2686 22.3122 21.5624 22.4327 21.8995Z" fill="#08536B"/>
<path d="M20.5733 21.5711C20.1706 22.6387 19.7771 23.6739 19.5575 24.2516C19.4767 24.4641 19.4195 24.6147 19.394 24.6821L19.2305 25.1229L19.7986 25.3476C20.1171 25.4686 20.3926 25.5463 20.4184 25.5204C20.4442 25.4945 20.5905 25.1747 20.7283 24.8118L20.9951 24.1464L22.1228 24.1204L23.2504 24.0945L23.5345 24.8377C23.6862 25.2509 23.744 25.4474 23.8651 25.501C23.9846 25.5538 24.1656 25.4675 24.5589 25.313C24.7655 25.2352 24.9462 25.1315 24.9635 25.0883C24.9721 25.0451 24.4642 23.6451 23.8444 21.9859L22.6995 18.9612L22.14 18.9353L21.5805 18.9094L20.5733 21.5711ZM22.4327 21.8995C22.478 22.0229 22.5233 22.1488 22.564 22.262C22.6316 22.4499 22.6866 22.6028 22.7081 22.6513C22.7598 22.7896 22.7081 22.8069 22.1572 22.8069C21.8215 22.8069 21.546 22.7809 21.546 22.7377C21.546 22.5735 22.1056 21.1736 22.1572 21.2341C22.183 21.2686 22.3122 21.5624 22.4327 21.8995Z" stroke="#08536B"/>
<path d="M27.5703 22.2024V25.4863H28.2159H28.8615L28.8787 23.4987L28.9046 21.5197L30.1097 23.4555L31.3148 25.3999H31.9432H32.563V22.1592V18.9185H31.9174H31.2718L31.2546 20.8629L31.2288 22.8074L30.0236 20.8629L28.8185 18.9272L28.1987 18.9185H27.5703V22.2024Z" fill="#08536B"/>
<path d="M27.5703 22.2024V25.4863H28.2159H28.8615L28.8787 23.4987L28.9046 21.5197L30.1097 23.4555L31.3148 25.3999H31.9432H32.563V22.1592V18.9185H31.9174H31.2718L31.2546 20.8629L31.2288 22.8074L30.0236 20.8629L28.8185 18.9272L28.1987 18.9185H27.5703V22.2024Z" stroke="#08536B"/>
<path d="M35.0586 22.1044V25.3105H36.2896C37.6668 25.3105 37.9681 25.2501 38.5621 24.8525C40.0169 23.876 40.2837 21.1625 39.0527 19.7884C38.4157 19.0798 38.0973 18.9761 36.4617 18.9329L35.0586 18.8983V22.1044ZM37.8734 20.4365C38.7687 21.0847 38.7601 23.1328 37.8734 23.7723C37.6668 23.9192 37.4516 23.9797 36.9782 24.0056L36.3498 24.0316V22.1131V20.1946L36.9868 20.2291C37.4603 20.2464 37.6927 20.3069 37.8734 20.4365Z" fill="#08536B"/>
<path d="M35.0586 22.1044V25.3105H36.2896C37.6668 25.3105 37.9681 25.2501 38.5621 24.8525C40.0169 23.876 40.2837 21.1625 39.0527 19.7884C38.4157 19.0798 38.0973 18.9761 36.4617 18.9329L35.0586 18.8983V22.1044ZM37.8734 20.4365C38.7687 21.0847 38.7601 23.1328 37.8734 23.7723C37.6668 23.9192 37.4516 23.9797 36.9782 24.0056L36.3498 24.0316V22.1131V20.1946L36.9868 20.2291C37.4603 20.2464 37.6927 20.3069 37.8734 20.4365Z" stroke="#08536B"/>
<path d="M22.0766 28.3516L22.1024 28.9824H22.748H23.3936L23.4195 28.3516L23.4453 27.7294H22.748H22.0508L22.0766 28.3516Z" fill="#08536B"/>
<path d="M22.0766 28.3516L22.1024 28.9824H22.748H23.3936L23.4195 28.3516L23.4453 27.7294H22.748H22.0508L22.0766 28.3516Z" stroke="#08536B"/>
</svg>
