<svg width="52" height="48" viewBox="0 0 52 48" fill="none" xmlns="http://www.w3.org/2000/svg">
<path d="M23.0727 46.8975H45.0898V13.4835C45.0884 13.2886 45.0349 13.0976 44.935 12.9303C44.835 12.763 44.6921 12.6254 44.5211 12.5319L24.6914 1.69283C24.5246 1.60157 24.3369 1.55537 24.1468 1.55877C23.9567 1.56217 23.7708 1.61506 23.6074 1.71223C23.444 1.80939 23.3087 1.94748 23.215 2.11286C23.1212 2.27824 23.0721 2.46521 23.0727 2.65533V46.8975Z" stroke="#08536B" stroke-width="1.5" stroke-linecap="round"/>
<path d="M7.70313 46.8973H22.9609V12.8379L8.21719 21.2707C8.05956 21.3692 7.92965 21.5063 7.8397 21.6689C7.74976 21.8316 7.70275 22.0145 7.70313 22.2004V46.8973Z" stroke="#08536B" stroke-width="1.5" stroke-linecap="round"/>
<path d="M30.4211 16.416H38.1211" stroke="#08536B" stroke-width="1.5" stroke-linecap="round"/>
<path d="M13.4039 24.6738H17.2539" stroke="#08536B" stroke-width="1.5" stroke-linecap="round"/>
<path d="M13.4039 29.584H17.2539" stroke="#08536B" stroke-width="1.5" stroke-linecap="round"/>
<path d="M13.4039 34.8457H17.2539" stroke="#08536B" stroke-width="1.5" stroke-linecap="round"/>
<path d="M13.4039 39.7441H17.2539" stroke="#08536B" stroke-width="1.5" stroke-linecap="round"/>
<path d="M30.4211 22.5176H38.1211" stroke="#08536B" stroke-width="1.5" stroke-linecap="round"/>
<path d="M30.4211 28.5332H38.1211" stroke="#08536B" stroke-width="1.5" stroke-linecap="round"/>
<path d="M30.4211 34.5488H38.1211" stroke="#08536B" stroke-width="1.5" stroke-linecap="round"/>
<path d="M30.4211 40.5645H38.1211" stroke="#08536B" stroke-width="1.5" stroke-linecap="round"/>
<path d="M50.8086 46.8984H1.50234" stroke="#08536B" stroke-width="1.5" stroke-linecap="round"/>
</svg>
