<svg width="50" height="45" viewBox="0 0 50 45" fill="none" xmlns="http://www.w3.org/2000/svg">
<path d="M48.5445 42.7408H47.6484V21.4604C47.6484 21.0673 47.3299 20.7487 46.9368 20.7487C46.5437 20.7487 46.2252 21.0673 46.2252 21.4604V24.7714H25.6776C25.6776 23.7569 25.6776 8.67358 25.6776 7.68223L46.2252 2.30263V18.7088C46.2252 19.1019 46.5437 19.4204 46.9368 19.4204C47.3299 19.4204 47.6484 19.1019 47.6484 18.7088V1.92992L48.7248 1.64812C49.105 1.54849 49.3325 1.15965 49.233 0.779444C49.1334 0.39905 48.7447 0.172275 48.3643 0.27124L23.3158 6.82921C22.9356 6.92884 22.7081 7.31768 22.8076 7.69788C22.8914 8.01765 23.1798 8.22952 23.4956 8.22952C23.5553 8.22952 23.6159 8.22193 23.6763 8.20618L24.2545 8.05484V12.8528L1.5678 6.91309C1.18751 6.81394 0.79868 7.04109 0.699148 7.42129C0.599615 7.8015 0.82724 8.19034 1.20734 8.28997L2.28379 8.57177V12.0559C2.28379 12.449 2.60232 12.7675 2.99542 12.7675C3.38852 12.7675 3.70704 12.449 3.70704 12.0559V8.94439L24.2545 14.324V28.5666H3.70695V14.8076C3.70695 14.4145 3.38842 14.096 2.99532 14.096C2.60222 14.096 2.2837 14.4145 2.2837 14.8076V42.7408H1.38753C0.994425 42.7408 0.675901 43.0593 0.675901 43.4524C0.675901 43.8455 0.994425 44.1641 1.38753 44.1641H48.5445C48.9376 44.1641 49.2561 43.8455 49.2561 43.4524C49.2561 43.0593 48.9376 42.7408 48.5445 42.7408ZM3.70695 29.9901H24.2544V42.7408H3.70695V29.9901ZM30.0446 42.7408V38.7452C30.0446 35.4882 32.6945 32.8383 35.9515 32.8383C39.2085 32.8383 41.8583 35.4882 41.8583 38.7452V42.7407H30.0446V42.7408ZM43.2814 42.7408V38.7452C43.2814 34.7033 39.9933 31.415 35.9514 31.415C31.9096 31.415 28.6213 34.7033 28.6213 38.7452V42.7407H25.6776V26.1947H46.2252V42.7408H43.2814Z" fill="#08536B"/>
<path d="M43.328 15.4531H28.5533C27.8541 15.4531 27.2852 16.022 27.2852 16.7212V22.043C27.2852 22.7422 27.8541 23.3111 28.5533 23.3111H43.328C44.0273 23.3111 44.5961 22.7422 44.5961 22.043V16.7212C44.5961 16.022 44.0273 15.4531 43.328 15.4531ZM43.1729 18.6705H40.6242V16.8764H43.1729V18.6705ZM35.229 20.0938V21.8878H32.6803V20.0938H35.229ZM32.6803 18.6705V16.8764H35.229V18.6705H32.6803ZM36.6523 20.0938H39.2008V21.8878H36.6523V20.0938ZM36.6523 18.6705V16.8764H39.2008V18.6705H36.6523ZM31.2571 16.8764V18.6705H28.7084V16.8764H31.2571ZM28.7084 20.0938H31.2571V21.8878H28.7084V20.0938ZM40.6242 21.8878V20.0938H43.1729V21.8878H40.6242Z" fill="#08536B"/>
<path d="M44.5859 6.66837C44.5859 6.35231 44.4439 6.05836 44.1962 5.86194C43.9488 5.66572 43.6303 5.5938 43.3224 5.66629C42.0488 5.96404 33.0475 8.06868 32.3416 8.23378C31.8737 8.34328 31.5469 8.75537 31.5469 9.23596V12.8746C31.5469 13.442 32.0086 13.9038 32.5761 13.9038H43.5569C44.1243 13.9038 44.5861 13.4421 44.5861 12.8746V6.66837H44.5859ZM39.0143 8.1351V12.4803H36.3813V8.75072L39.0143 8.1351ZM32.97 9.54832L34.958 9.08348V12.4803H32.97V9.54832ZM43.1627 12.4804H40.4376V7.80234L43.1627 7.16519V12.4804Z" fill="#08536B"/>
<path d="M8.77314 24.8293C9.16625 24.8293 9.48477 24.5108 9.48477 24.1177V12.813C9.48477 12.4954 9.27432 12.2163 8.96898 12.1289L5.79028 11.2188C5.57527 11.1575 5.34442 11.2003 5.16604 11.3347C4.98766 11.4692 4.88281 11.6796 4.88281 11.903V24.1177C4.88281 24.5108 5.20134 24.8293 5.59444 24.8293H8.77314ZM6.30597 12.8469L8.06152 13.3495V23.4061H6.30597V12.8469Z" fill="#08536B"/>
<path d="M22.5635 27.5327C22.9566 27.5327 23.2751 27.2142 23.2751 26.8211V16.5639C23.2751 16.2298 23.0428 15.9409 22.7166 15.869C20.3366 15.3444 14.4832 14.0545 12.814 13.6866C12.6035 13.6402 12.3832 13.6917 12.2151 13.8269C12.047 13.962 11.9492 14.166 11.9492 14.3816V26.8211C11.9492 27.2143 12.2677 27.5328 12.6608 27.5328L22.5635 27.5327ZM21.8519 22.5534H18.3238V20.5016H21.8519V22.5534ZM16.9006 22.5534H13.3725V20.5016H16.9006V22.5534ZM13.3725 23.9767H16.9006V26.1094H13.3725V23.9767ZM18.3239 26.1094V23.9767H21.852V26.1094H18.3239ZM21.8519 19.0783H18.3238V16.3583L21.8519 17.1358V19.0783ZM16.9006 16.0446V19.0783H13.3725V15.2671L16.9006 16.0446Z" fill="#08536B"/>
<path d="M29.46 30.2246H27.7937C27.4006 30.2246 27.082 30.5431 27.082 30.9363C27.082 31.3294 27.4006 31.6479 27.7937 31.6479H29.46C29.8531 31.6479 30.1717 31.3294 30.1717 30.9363C30.1717 30.5431 29.853 30.2246 29.46 30.2246Z" fill="#08536B"/>
<path d="M44.085 30.2246H42.4187C42.0256 30.2246 41.707 30.5431 41.707 30.9363C41.707 31.3294 42.0256 31.6479 42.4187 31.6479H44.085C44.4781 31.6479 44.7967 31.3294 44.7967 30.9363C44.7967 30.5431 44.478 30.2246 44.085 30.2246Z" fill="#08536B"/>
<path d="M41.0094 27.0918H30.8484C30.4552 27.0918 30.1367 27.4103 30.1367 27.8034C30.1367 28.1965 30.4552 28.5151 30.8484 28.5151H41.0095C41.4026 28.5151 41.7211 28.1965 41.7211 27.8034C41.7211 27.4103 41.4025 27.0918 41.0094 27.0918Z" fill="#08536B"/>
<path d="M21.4313 31.082H6.52914C5.90138 31.082 5.39062 31.5927 5.39062 32.2205V40.5105C5.39062 41.1382 5.90138 41.649 6.52914 41.649H14.8464C15.2395 41.649 15.558 41.3305 15.558 40.9373C15.558 40.5442 15.2395 40.2257 14.8464 40.2257H6.81388V32.5053H21.1466V40.2257H17.5981C17.205 40.2257 16.8865 40.5442 16.8865 40.9373C16.8865 41.3305 17.205 41.649 17.5981 41.649H21.4313C22.0591 41.649 22.5698 41.1382 22.5698 40.5105V32.2205C22.5698 31.5926 22.0591 31.082 21.4313 31.082Z" fill="#08536B"/>
</svg>
