<svg width="136" height="136" viewBox="0 0 136 136" fill="none" xmlns="http://www.w3.org/2000/svg">
<path d="M80.2166 50.51L82.322 50.6268V57.2657H84.8261V64.0741H87.5791C87.5791 65.8449 87.5791 67.5273 87.5791 69.2096C87.5791 70.7864 87.579 70.7845 89.1604 70.8241C89.3139 70.8241 89.4692 70.8467 89.7331 70.8693V77.5929H92.7705C92.7986 78.0262 92.8416 78.3578 92.8416 78.6894C92.8416 86.8033 92.8417 94.9191 92.8623 103.033C92.8623 103.883 92.6377 104.148 91.7712 104.146C76.2678 104.121 60.765 104.121 45.2629 104.146C44.3964 104.146 44.17 103.881 44.1719 103.033C44.2018 94.9173 44.1905 86.8033 44.1905 78.6894V77.6381H47.3908V70.8674L49.5243 70.7657V64.0571H52.2529V57.3241H54.8449V52.4354C54.8628 52.1845 54.8628 51.9327 54.8449 51.6818C54.7046 50.7662 55.0901 50.4234 55.9809 50.5515C56.3006 50.5719 56.6213 50.5719 56.941 50.5515V43.8523H59.9653V34.1634H61.7264C61.7601 34.8266 61.7918 35.4671 61.8255 36.166H64.2584V34.1465H66.027V36.1472H70.9397V34.1559H72.7326C72.7625 34.8379 72.7925 35.4746 72.8224 36.1717H74.9802C75.0195 35.5104 75.0589 34.8699 75.1019 34.1597H76.8424V43.8542C77.7294 43.8542 78.5266 43.89 79.3164 43.8429C80.007 43.7996 80.2522 44.0313 80.226 44.7472C80.1792 46.3108 80.211 47.8782 80.211 49.4456L80.2166 50.51ZM62.473 81.8091H74.9316V84.9853H77.4711V102.251H90.9646V79.4825H46.0733V102.214H59.7931V84.9514H62.4825L62.473 81.8091ZM75.639 102.259V101.117C75.639 96.9198 75.639 92.7213 75.639 88.5214C75.639 86.8466 75.639 86.8071 73.979 86.8259C73.2435 86.8259 73.0675 86.5377 73.1012 85.884C73.1386 85.1436 73.1012 84.3995 73.1012 83.6233H64.2679C64.2679 84.4616 64.2454 85.2679 64.2679 86.0724C64.2884 86.6375 64.062 86.8579 63.5005 86.8259C62.868 86.792 62.2317 86.8259 61.5785 86.8259V102.274L75.639 102.259ZM87.9571 72.7174H73.921C74.0819 74.1247 74.2672 75.4547 74.3776 76.7904C74.4319 77.4573 74.7388 77.5948 75.3377 77.5816C76.8611 77.5458 78.3844 77.5684 79.9078 77.5684H87.0887C87.5379 77.5684 87.972 77.6061 87.9589 76.9242C87.9402 75.5451 87.9571 74.1737 87.9571 72.7099V72.7174ZM49.2922 72.7061V77.5063H62.1942C62.3814 75.9144 62.5685 74.347 62.7557 72.7061H49.2922ZM85.6926 70.7129V65.958H73.1537C73.3296 67.4651 73.4662 68.8818 73.6945 70.2909C73.7282 70.4963 74.2092 70.7676 74.4843 70.7713C77.997 70.8034 81.5099 70.7921 85.0208 70.7883C85.2461 70.7736 85.4704 70.7459 85.6926 70.7054V70.7129ZM63.5118 66.0164C63.3825 65.9692 63.249 65.9345 63.1132 65.9128C59.4151 65.9033 55.7151 65.9128 52.0152 65.8807C51.4538 65.8807 51.3433 66.152 51.349 66.6343C51.3621 67.7646 51.3677 68.895 51.349 70.0121C51.3396 70.549 51.4949 70.8109 52.0863 70.8071C55.5055 70.7883 58.9247 70.8071 62.3439 70.7751C62.5797 70.7751 62.984 70.4586 63.0158 70.2438C63.2236 68.8479 63.3508 67.45 63.5118 66.0088V66.0164ZM72.944 63.9724H82.9733V59.2287H72.3938C72.5866 60.8715 72.7644 62.4181 72.944 63.9648V63.9724ZM64.2903 59.1477C60.961 59.1477 57.7701 59.1477 54.5792 59.1665C54.4754 59.1948 54.3805 59.2492 54.3036 59.3247C54.2266 59.4002 54.1701 59.4943 54.1394 59.5979C54.1038 61.0542 54.1188 62.5104 54.1188 64.01H63.7382C63.9179 62.4181 64.0957 60.8583 64.2903 59.1402V59.1477ZM72.1786 57.2412H80.4412V52.5333H71.6452C71.8249 54.1554 72.0008 55.6907 72.1786 57.2337V57.2412ZM64.0507 77.4121H72.6408C72.4537 75.7712 72.2665 74.2358 72.0794 72.7023H64.5934C64.4119 74.2641 64.2379 75.7769 64.0507 77.4045V77.4121ZM56.7164 52.5239V57.292C59.1942 57.292 61.5823 57.3015 63.9759 57.2732C64.1743 57.2732 64.5168 57.0189 64.5373 56.8493C64.7245 55.4383 64.8649 54.0235 65.0239 52.5258L56.7164 52.5239ZM72.7794 42.5166H64.2098V38.1234H61.8087V43.7902C62.2129 43.8128 62.5779 43.8542 62.9428 43.8504C65.0258 43.8316 67.1106 43.7826 69.1936 43.7807C70.843 43.7807 72.4911 43.8084 74.138 43.8636C74.8099 43.8862 75.0981 43.6752 75.0588 42.9612C75.0064 41.9628 75.0457 40.9587 75.0457 39.9564C75.0457 37.9086 75.0457 37.9067 73.0151 38.0895C72.9627 38.0895 72.9141 38.1535 72.7794 38.2421V42.5166ZM78.3938 50.527C78.3938 49.0707 78.3676 47.7614 78.4051 46.454C78.4219 45.821 78.1636 45.6401 77.5797 45.6514C76.2435 45.6759 74.9072 45.6514 73.571 45.6514H70.8573C71.0295 47.2415 71.1736 48.6977 71.3701 50.1464C71.3888 50.2915 71.7145 50.5025 71.8997 50.5044C74.0257 50.5364 76.1386 50.527 78.4069 50.527H78.3938ZM58.8218 50.527C60.8636 50.527 62.7875 50.5402 64.7114 50.51C64.9154 50.51 65.2728 50.2726 65.2953 50.1106C65.4824 48.6695 65.6247 47.2226 65.78 45.7532H58.8218V50.527ZM71.8754 70.7167C71.6883 69.0928 71.5142 67.5518 71.3252 65.9052C69.435 65.9052 67.6066 65.8939 65.78 65.9241C65.6747 65.9562 65.579 66.0144 65.5018 66.0934C65.4246 66.1724 65.3684 66.2696 65.3383 66.3762C65.1511 67.7948 64.9959 69.2171 64.8256 70.7092L71.8754 70.7167ZM65.5929 63.9686H71.1118C70.9397 62.4897 70.7993 61.0956 70.5954 59.711C70.5518 59.5845 70.4777 59.4709 70.3797 59.3805C70.2817 59.29 70.1629 59.2256 70.0339 59.1929C68.9204 59.142 67.8012 59.142 66.6876 59.1929C66.5555 59.2208 66.4325 59.2819 66.3301 59.3705C66.2276 59.4591 66.1492 59.5723 66.1019 59.6997C65.8867 61.0843 65.7538 62.4803 65.5872 63.9686H65.5929ZM70.3427 57.2525C70.1743 55.7454 70.0227 54.3607 69.8505 52.9685C69.8318 52.8103 69.6951 52.5409 69.6034 52.5371C68.7706 52.5051 67.9341 52.507 67.0994 52.5371C67.0096 52.5371 66.8636 52.7481 66.8486 52.8724C66.6765 54.3155 66.5249 55.7604 66.362 57.2563L70.3427 57.2525ZM66.1094 40.7137H70.8966V38.1328H66.1094V40.7137ZM69.5641 50.51C69.3976 48.9916 69.261 47.5693 69.0626 46.1544C69.0402 45.9943 68.6883 45.7777 68.4805 45.7777C68.1904 45.7777 67.6702 45.9265 67.6478 46.0716C67.4288 47.5297 67.2921 48.9991 67.1274 50.5138L69.5641 50.51Z" fill="#08536B"/>
<path d="M79.7852 86.627H81.5238C81.5238 87.3975 81.5238 88.1058 81.5238 88.816C81.5238 91.0654 81.5238 93.3142 81.5238 95.5623C81.5238 97.2145 81.5238 97.2145 79.7852 96.9507V86.627Z" fill="#08536B"/>
<path d="M85.7695 86.627H87.5212V96.9884C87.3172 97.0148 87.1693 97.0449 87.0196 97.0506C85.7732 97.1033 85.7714 97.1033 85.7714 95.8807C85.7714 93.1302 85.7714 90.379 85.7714 87.6273L85.7695 86.627Z" fill="#08536B"/>
<path d="M57.806 87.0029V96.9876H56.0898V87.0029H57.806Z" fill="#08536B"/>
<path d="M51.3525 97.052C50.8566 97.052 50.5198 97.0331 50.1848 97.052C49.6926 97.0859 49.5372 96.8523 49.5391 96.3832C49.5522 93.3859 49.5485 90.3886 49.556 87.3914C49.5732 87.2625 49.6052 87.136 49.6514 87.0146L50.2016 86.926C51.0531 86.7904 51.4013 87.0654 51.3769 88.0206C51.3114 90.6411 51.3544 93.2653 51.3525 95.8877V97.052Z" fill="#08536B"/>
<circle cx="68.2188" cy="68.4346" r="67" stroke="#6C8C91"/>
</svg>
