<svg width="58" height="57" viewBox="0 0 58 57" fill="none" xmlns="http://www.w3.org/2000/svg">
<g clip-path="url(#clip0_191_11915)">
<path d="M1.03598 -0.0783328C1.21377 -0.0871806 1.21377 -0.0871805 1.39515 -0.096207C1.59033 -0.102577 1.59033 -0.102577 1.78945 -0.109075C1.92787 -0.11519 2.06628 -0.121304 2.2089 -0.127604C2.59356 -0.143973 2.9782 -0.158316 3.36298 -0.171656C3.60924 -0.180425 3.85545 -0.190009 4.10167 -0.199875C7.34725 -0.329908 10.5946 -0.402133 13.8423 -0.458486C14.2566 -0.465805 14.6709 -0.473269 15.0851 -0.480858C15.2395 -0.483678 15.2395 -0.483678 15.397 -0.486555C16.9434 -0.515614 18.4875 -0.569941 20.0325 -0.638392C22.4165 -0.742618 24.7988 -0.808505 27.1853 -0.81014C27.2814 -0.810274 27.3775 -0.810407 27.4765 -0.810544C32.3033 -0.81143 36.2493 -0.570403 39.8711 2.92844C44.0885 7.2055 44.0885 7.2055 44.08 9.30329C44.0802 9.43328 44.0802 9.43328 44.0803 9.5659C44.0805 9.85718 44.0799 10.1485 44.0793 10.4397C44.0792 10.6482 44.0792 10.8566 44.0793 11.0651C44.0793 11.6318 44.0787 12.1985 44.0779 12.7652C44.0772 13.3572 44.0771 13.9491 44.077 14.5411C44.0766 15.6624 44.0757 16.7837 44.0746 17.905C44.0733 19.1815 44.0727 20.4579 44.0721 21.7343C44.0709 24.3603 44.0689 26.9864 44.0664 29.6124C44.1422 29.6188 44.218 29.6252 44.2962 29.6318C44.3967 29.6409 44.4972 29.6499 44.6007 29.6593C44.6999 29.668 44.7991 29.6767 44.9013 29.6856C45.3598 29.7443 45.7779 29.8843 46.2117 30.0369C46.2998 30.0666 46.3879 30.0963 46.4787 30.127C47.057 30.3233 47.6296 30.533 48.195 30.7631C49.2488 31.0323 49.9112 30.6297 50.8279 30.1343C51.0172 30.035 51.0172 30.035 51.2104 29.9336C51.6562 29.6987 52.0998 29.4638 52.5312 29.204C52.949 28.9639 53.2165 29.0035 53.6953 29.0558C54.224 29.4266 54.3857 30.0056 54.6086 30.5796C54.6777 30.7532 54.6777 30.7532 54.7481 30.9302C54.8586 31.2087 54.9686 31.4874 55.0779 31.7663C55.3218 32.3885 55.5681 33.0098 55.814 33.6311C56.2364 34.6989 56.6585 35.7668 57.078 36.8357C57.2576 37.2933 57.4375 37.7507 57.622 38.2064C57.6733 38.334 57.7246 38.4616 57.7774 38.5931C57.8198 38.697 57.8621 38.8009 57.9058 38.908C58.0626 39.372 58.0783 39.704 58 40.1886C57.5959 40.5771 57.1347 40.7867 56.618 40.994C56.5414 41.0255 56.4648 41.057 56.3859 41.0894C56.2251 41.1553 56.0641 41.2208 55.9029 41.2859C55.6557 41.3857 55.409 41.487 55.1624 41.5885C55.0057 41.6525 54.849 41.7164 54.6923 41.7803C54.6184 41.8105 54.5445 41.8408 54.4684 41.872C53.9482 42.0812 53.9482 42.0812 53.6953 42.0812C53.6924 42.1512 53.6895 42.2213 53.6865 42.2934C53.6268 43.1774 53.434 43.8391 52.7607 44.4539C52.32 44.7972 51.7782 45.0871 51.2031 45.0871C51.2125 45.2156 51.2218 45.3442 51.2314 45.4767C51.228 46.1125 51.0059 46.5925 50.5712 47.061C50.0398 47.5373 49.5075 47.8518 48.7746 47.8911C48.631 47.8808 48.631 47.8808 48.4844 47.8703C48.4697 47.9633 48.4697 47.9633 48.4547 48.0581C48.3149 48.8044 48.0855 49.441 47.4768 49.9381C47.0322 50.2296 46.6471 50.3909 46.1055 50.4308C46.1107 50.4928 46.116 50.5548 46.1214 50.6187C46.1537 51.2906 46.0597 51.7747 45.6523 52.3234C45.2034 52.7912 44.7904 53.0949 44.1797 53.3253C44.1772 53.4516 44.1772 53.4516 44.1747 53.5804C44.1662 53.964 44.1553 54.3474 44.1443 54.7309C44.1417 54.8633 44.1392 54.9958 44.1365 55.1322C44.0977 56.3745 44.0977 56.3745 43.7266 56.8878C43.4112 57.0428 43.1542 57.0136 42.8011 57.0141C42.7283 57.0144 42.6555 57.0146 42.5805 57.0149C42.3342 57.0156 42.0879 57.0156 41.8416 57.0155C41.6641 57.0159 41.4867 57.0163 41.3093 57.0168C40.8199 57.0179 40.3304 57.0183 39.841 57.0186C39.3139 57.019 38.7868 57.0201 38.2597 57.0211C36.9859 57.0233 35.7121 57.0244 34.4384 57.0254C33.8391 57.0259 33.2398 57.0265 32.6405 57.0271C30.6493 57.029 28.6582 57.0306 26.667 57.0314C26.1501 57.0316 25.6331 57.0318 25.1162 57.032C24.9877 57.0321 24.8592 57.0321 24.7268 57.0322C22.6438 57.0331 20.5608 57.0359 18.4778 57.0395C16.341 57.0432 14.2043 57.0452 12.0676 57.0456C10.8671 57.0458 9.66666 57.0468 8.46621 57.0497C7.44419 57.0521 6.42218 57.053 5.40016 57.0519C4.87838 57.0514 4.35663 57.0516 3.83486 57.0537C3.35759 57.0557 2.88038 57.0556 2.40312 57.0539C2.23007 57.0536 2.05702 57.0541 1.88398 57.0554C1.64943 57.0571 1.41506 57.056 1.18052 57.0543C0.984815 57.0544 0.984815 57.0544 0.785154 57.0546C0.45312 56.9992 0.45312 56.9992 0.184658 56.8312C-0.0766179 56.4388 -0.0624512 56.0777 -0.0570271 55.624C-0.0576857 55.5289 -0.0583442 55.4338 -0.0590228 55.3358C-0.0606855 55.0149 -0.0590997 54.6941 -0.0575448 54.3732C-0.0580665 54.1417 -0.058786 53.9102 -0.0596869 53.6786C-0.0615854 53.0408 -0.0606403 52.4029 -0.0592399 51.765C-0.058218 51.0778 -0.0597955 50.3905 -0.0610433 49.7033C-0.0629454 48.4342 -0.0627755 47.1651 -0.0615366 45.8961C-0.0603978 44.7238 -0.0600986 43.5515 -0.0606406 42.3792C-0.0606752 42.3015 -0.0607098 42.2238 -0.0607455 42.1437C-0.0608865 41.8284 -0.0610308 41.513 -0.0611803 41.1977C-0.0625671 38.238 -0.0613085 35.2783 -0.0588708 32.3186C-0.0567203 29.6878 -0.0569128 27.0569 -0.0590797 24.4261C-0.0615048 21.4719 -0.0624688 18.5177 -0.0610678 15.5635C-0.0609225 15.2487 -0.0607808 14.934 -0.0606406 14.6192C-0.0606047 14.5416 -0.0605689 14.4641 -0.060532 14.3843C-0.0600161 13.2126 -0.0606203 12.0409 -0.0617641 10.8692C-0.0630579 9.5372 -0.062696 8.20524 -0.0602776 6.87327C-0.0590836 6.19319 -0.0586256 5.51313 -0.0601186 4.83305C-0.0614631 4.21117 -0.0607361 3.58934 -0.0583162 2.96746C-0.0578077 2.74182 -0.0580729 2.51617 -0.0591662 2.29052C-0.0605334 1.98507 -0.059142 1.67975 -0.0570271 1.37431C-0.0586183 1.24122 -0.0586183 1.24122 -0.0602417 1.10545C-0.0549044 0.722875 -0.0299032 0.487066 0.193692 0.168548C0.497849 -0.0300416 0.672754 -0.063301 1.03598 -0.0783328ZM1.81249 1.78041C1.81249 19.4148 1.81249 37.0492 1.81249 55.2179C15.1208 55.2179 28.4291 55.2179 42.1406 55.2179C42.1406 54.5199 42.1406 53.8219 42.1406 53.1027C41.6504 52.7408 41.6504 52.7408 41.3401 52.7861C41.0985 52.8897 40.8929 53.0125 40.675 53.1583C40.3279 53.3768 40.0667 53.5164 39.6484 53.548C39.5316 53.5595 39.4148 53.571 39.2944 53.5828C38.4911 53.5191 37.7397 53.3128 37.1987 52.6991C37.0476 52.5026 36.9285 52.3211 36.8164 52.1007C36.7137 52.1059 36.6111 52.1111 36.5053 52.1164C35.6594 52.141 34.9186 52.1576 34.2109 51.6554C34.0881 51.518 33.9699 51.3763 33.8569 51.231C33.705 51.0268 33.705 51.0268 33.5312 50.8761C33.1399 50.8687 33.1399 50.8687 32.7383 50.9874C31.9734 51.0491 31.3682 50.9259 30.6992 50.5421C29.911 49.8588 29.67 49.2052 29.5664 48.2042C29.4856 48.1798 29.4049 48.1554 29.3217 48.1303C28.3965 47.8293 27.714 47.505 27.2512 46.6317C26.9341 45.8303 26.9358 44.9845 27.2866 44.1964C27.4039 43.971 27.5271 43.7515 27.657 43.5328C27.7746 43.2574 27.7665 43.0866 27.7327 42.7909C27.724 42.7045 27.7154 42.6181 27.7066 42.5291C27.6739 42.3625 27.6739 42.3625 27.6406 42.1925C27.6353 42.0675 27.6353 42.0675 27.6299 41.9399C27.5807 41.5814 27.5098 41.3806 27.3008 41.0792C26.6993 40.6504 25.9681 40.4087 25.283 40.1399C25.0936 40.0624 24.9044 39.9845 24.7154 39.9062C24.3675 39.7623 24.0187 39.621 23.6688 39.4818C22.582 39.0407 22.582 39.0407 22.4297 38.7414C22.3817 38.1295 22.4915 37.7397 22.7624 37.191C22.7978 37.1184 22.8331 37.0457 22.8695 36.9709C22.9858 36.7323 23.1042 36.4949 23.2227 36.2573C23.3047 36.0899 23.3867 35.9223 23.4685 35.7547C23.6392 35.4051 23.8106 35.0558 23.9824 34.7068C24.358 33.9426 24.7242 33.174 25.0907 32.4056C25.2011 32.1743 25.3117 31.9432 25.4223 31.7121C25.4574 31.6389 25.4924 31.5657 25.5285 31.4903C25.5978 31.3458 25.6672 31.2012 25.7368 31.0567C25.9266 30.6619 26.1134 30.2658 26.2972 29.8682C26.3377 29.7815 26.3781 29.6947 26.4198 29.6054C26.498 29.4377 26.5755 29.2697 26.6521 29.1014C26.8336 28.7143 26.9322 28.518 27.3008 28.2765C28.032 28.2363 28.659 28.4958 29.3 28.8088C29.3883 28.8504 29.4765 28.892 29.5675 28.9348C29.8463 29.0665 30.1241 29.2002 30.4018 29.3341C30.6822 29.4675 30.9628 29.6005 31.2435 29.7334C31.4173 29.8159 31.5909 29.8988 31.7643 29.9821C32.981 30.5649 34.0316 30.4487 35.3154 30.1691C36.7866 29.8564 38.1123 29.7653 39.5542 30.2835C40.7114 30.674 40.811 30.3951 42.1406 29.8351C42.1406 23.1487 42.1406 16.4624 42.1406 9.57338C40.2341 9.53664 38.3276 9.49991 36.3633 9.46205C35.3211 9.07799 34.9154 8.84272 34.4375 7.90346C33.9335 5.92208 34.2517 3.82239 34.2109 1.78041C23.5194 1.78041 12.828 1.78041 1.81249 1.78041ZM36.1367 3.22768C36.1227 3.7724 36.1124 4.31701 36.1056 4.86186C36.1028 5.04706 36.0989 5.23225 36.094 5.41741C36.0871 5.68412 36.0839 5.95067 36.0814 6.21745C36.0785 6.29981 36.0756 6.38216 36.0725 6.46702C36.0723 6.8851 36.1252 7.10752 36.3657 7.45576C36.792 7.7401 37.1285 7.75221 37.6257 7.73516C37.7129 7.73438 37.8001 7.73359 37.89 7.73278C38.1671 7.72967 38.4439 7.72269 38.7209 7.71559C38.9094 7.7128 39.0978 7.71026 39.2862 7.70798C39.7469 7.70186 40.2074 7.69226 40.668 7.6808C40.1734 7.09975 39.6538 6.55646 39.1081 6.02175C39.0264 5.94131 38.9446 5.86087 38.8604 5.77799C38.6891 5.60955 38.5176 5.44125 38.3461 5.27309C38.0821 5.01433 37.8188 4.75497 37.5556 4.49556C37.3887 4.33165 37.2218 4.16777 37.0549 4.00393C36.9759 3.92602 36.8968 3.8481 36.8154 3.76782C36.7427 3.69679 36.6701 3.62575 36.5952 3.55256C36.5311 3.48964 36.467 3.42673 36.401 3.36191C36.2699 3.21523 36.2699 3.21523 36.1367 3.22768ZM28.0937 30.3917C27.3278 31.9431 26.5685 33.4973 25.8281 35.0606C25.7386 35.249 25.7386 35.249 25.6473 35.4412C25.2719 36.2366 24.9188 37.0388 24.582 37.8507C24.8413 37.9813 25.1009 38.1111 25.3608 38.2404C25.4411 38.2804 25.5214 38.3204 25.6041 38.3617C26.0473 38.5798 26.4923 38.7859 26.949 38.9753C27.0396 39.0131 27.1302 39.0509 27.2236 39.0899C27.3986 39.1621 27.5742 39.2327 27.7505 39.3017C28.3311 39.5419 28.639 39.7893 29 40.2999C29.1487 40.6757 29.1487 40.6757 29.2266 40.9679C29.2952 40.9438 29.3638 40.9197 29.4345 40.8949C30.3345 40.6009 31.137 40.4614 32.0373 40.8218C32.5455 41.0746 32.9537 41.3517 33.1861 41.8825C33.3158 42.1759 33.4283 42.3971 33.6445 42.6378C34.0114 42.7654 34.3675 42.827 34.7508 42.8914C35.2846 43.0086 35.6565 43.2435 36.0234 43.6398C36.0914 43.7794 36.1553 43.9209 36.2146 44.0642C36.4355 44.4494 36.4355 44.4494 36.7991 44.4774C37.0592 44.4897 37.3194 44.4993 37.5797 44.5065C38.3061 44.5535 38.7641 44.8443 39.2378 45.3723C39.4267 45.6052 39.5932 45.8406 39.7617 46.089C40.1323 46.1542 40.1323 46.1542 40.5618 46.1795C41.3703 46.2605 41.8486 46.4936 42.4805 46.9796C42.8522 47.2119 43.2332 47.4288 43.6133 47.6476C43.6779 47.6853 43.7424 47.7231 43.809 47.7619C44.0194 47.8847 44.2304 48.0063 44.4416 48.1277C44.5081 48.1666 44.5746 48.2056 44.6431 48.2457C45.0136 48.4567 45.3364 48.6115 45.7656 48.6496C46.1666 48.4938 46.3016 48.3728 46.5019 47.9955C46.5894 47.6539 46.5894 47.6539 46.4444 47.3793C46.1505 47.0038 45.7979 46.8079 45.3833 46.583C45.3004 46.5365 45.2176 46.49 45.1322 46.4421C44.8532 46.2859 44.5732 46.1317 44.293 45.9777C43.966 45.7968 43.6393 45.6155 43.313 45.4337C43.0998 45.315 42.8863 45.1971 42.6723 45.0799C42.5751 45.026 42.4779 44.9721 42.3778 44.9166C42.2476 44.845 42.2476 44.845 42.1147 44.772C41.9141 44.6417 41.9141 44.6417 41.8008 44.4191C41.7497 43.6288 41.7497 43.6288 41.9141 43.3058C42.2997 43.1163 42.6331 43.1164 43.0469 43.1945C43.5984 43.4311 44.1132 43.726 44.6328 44.0225C44.7802 44.1046 44.9277 44.1865 45.0753 44.2682C45.6955 44.6124 46.3117 44.9634 46.9263 45.3171C47.0087 45.364 47.0912 45.411 47.1761 45.4593C47.3206 45.542 47.4644 45.626 47.6071 45.7117C48.0286 45.9543 48.3373 46.0351 48.8242 45.9777C49.093 45.7777 49.2372 45.6138 49.3835 45.3167C49.3948 44.951 49.2863 44.8163 49.0508 44.5304C48.1898 43.8797 47.2011 43.4018 46.2491 42.8945C46.0454 42.7858 45.8422 42.6764 45.6391 42.567C45.5192 42.503 45.3993 42.439 45.2758 42.3731C45.0153 42.2179 44.8246 42.0888 44.6328 41.8585C44.5917 41.6428 44.5917 41.6428 44.5974 41.4132C44.5978 41.3375 44.5983 41.2617 44.5987 41.1836C44.6328 40.9679 44.6328 40.9679 44.8594 40.6339C45.2929 40.4765 45.5163 40.4676 45.9465 40.6415C46.7805 41.0635 47.5933 41.5127 48.3994 41.9838C49.6297 42.8056 49.6297 42.8056 51.0049 43.2014C51.4099 43.0476 51.559 42.8989 51.7695 42.5265C51.7975 42.1811 51.7975 42.1811 51.6562 41.8585C51.2965 41.5438 50.9195 41.3037 50.4986 41.0758C50.3848 41.0137 50.271 40.9516 50.1538 40.8877C50.0328 40.8223 49.9118 40.7569 49.7871 40.6896C49.5319 40.5505 49.2767 40.4114 49.0216 40.2721C48.8936 40.2024 48.7657 40.1326 48.6338 40.0608C48.0764 39.7552 47.5228 39.4433 46.9692 39.131C46.7756 39.0224 46.5819 38.9138 46.3882 38.8053C46.0863 38.636 45.7856 38.4651 45.4864 38.2913C44.4683 37.7134 43.8796 37.6768 42.7472 37.964C42.1066 38.1484 41.492 38.392 40.8733 38.637C39.1996 39.2985 37.3644 39.8165 35.5703 39.2423C34.4708 38.7651 33.5084 38.0285 32.9648 36.9601C32.8999 36.3729 32.8999 36.3729 33.1303 36.0864C33.534 35.7501 33.9781 35.4959 34.4304 35.2276C35.3799 34.6519 36.216 34.019 37.043 33.2863C37.2128 33.1447 37.3827 33.0032 37.5527 32.8618C37.9164 32.5484 38.2182 32.2135 38.5156 31.839C37.5472 31.5218 36.5084 31.7256 35.542 31.9503C34.8088 32.117 34.1077 32.2211 33.3542 32.2287C33.2351 32.2317 33.2351 32.2317 33.1136 32.2347C32.4292 32.2271 31.8825 32.0039 31.2656 31.7277C31.1461 31.6743 31.0266 31.6209 30.9034 31.5659C30.3782 31.3284 29.855 31.0868 29.3319 30.8449C29.2048 30.7866 29.0778 30.7284 28.9469 30.6683C28.8319 30.6152 28.7169 30.5621 28.5984 30.5073C28.3359 30.3773 28.3359 30.3773 28.0937 30.3917ZM52.193 31.5424C52.0942 31.5967 51.9954 31.6509 51.8936 31.7068C51.6855 31.8216 51.4775 31.9367 51.2697 32.0521C50.1462 32.6677 49.1893 32.9281 47.8985 32.6531C47.1163 32.4236 46.3523 32.1328 45.592 31.8411C44.2499 31.3306 43.031 31.404 41.7233 31.9708C40.8675 32.3919 40.2221 32.974 39.5351 33.6203C39.3076 33.8195 39.0777 34.0155 38.8471 34.2113C38.7005 34.3377 38.5562 34.4668 38.4143 34.5983C37.7703 35.1876 37.0702 35.6779 36.3465 36.167C36.2659 36.2216 36.1853 36.2763 36.1022 36.3326C36.0298 36.3811 35.9574 36.4297 35.8828 36.4797C35.6838 36.626 35.5147 36.7833 35.3437 36.9601C36.2933 37.6103 37.0267 37.8317 38.174 37.6311C39.184 37.3994 40.1532 36.9862 41.1211 36.6261C42.6294 36.069 44.1541 35.6436 45.7063 36.2993C46.0001 36.4471 46.2866 36.6037 46.5727 36.7653C46.6791 36.8238 46.7854 36.8823 46.895 36.9427C47.2372 37.132 47.5778 37.3239 47.918 37.5167C48.0331 37.5819 48.1482 37.647 48.2668 37.7141C49.0594 38.1635 49.8486 38.6183 50.6367 39.0753C51.0629 39.3224 51.0629 39.3224 51.4891 39.5693C51.6516 39.6635 51.814 39.7579 51.9763 39.8525C52.171 39.9656 52.3667 40.0772 52.5625 40.1886C52.6312 40.2348 52.6999 40.2809 52.7707 40.3285C53.1394 40.4531 53.331 40.3223 53.6794 40.1651C53.8057 40.1092 53.932 40.0532 54.0621 39.9955C54.1934 39.9353 54.3247 39.875 54.4599 39.8129C54.6595 39.7238 54.6595 39.7238 54.8631 39.6328C55.192 39.4857 55.5201 39.3369 55.8476 39.1867C55.6053 38.449 55.3355 37.7243 55.0525 37.001C55.0093 36.8902 54.9661 36.7795 54.9217 36.6653C54.8307 36.432 54.7395 36.1986 54.6483 35.9653C54.5109 35.6137 54.3738 35.2619 54.2367 34.9101C53.7636 33.697 53.2855 32.4864 52.7891 31.2824C52.572 31.2824 52.3767 31.4406 52.193 31.5424ZM30.2461 42.6378C29.9701 43.013 29.7604 43.4269 29.5381 43.8346C29.4753 43.9448 29.4125 44.055 29.3478 44.1686C29.2885 44.2759 29.2292 44.3833 29.1681 44.4939C29.1141 44.5916 29.06 44.6893 29.0043 44.7899C28.8676 45.1353 28.852 45.3873 28.8867 45.755C29.1061 46.0504 29.2694 46.1737 29.616 46.3047C30.0018 46.314 30.1604 46.1961 30.4726 45.9777C30.737 45.6224 30.9275 45.2281 31.1311 44.8366C31.188 44.7331 31.2449 44.6296 31.3034 44.523C31.6085 43.9463 31.8224 43.5136 31.7187 42.8605C31.4778 42.5764 31.4778 42.5764 31.1523 42.4152C30.6542 42.414 30.6542 42.414 30.2461 42.6378ZM33.1914 44.8644C32.9604 45.1807 32.9604 45.1807 32.7644 45.5554C32.7275 45.6225 32.6906 45.6897 32.6525 45.7588C32.5752 45.9004 32.4986 46.0424 32.4227 46.1847C32.3068 46.4014 32.1879 46.6163 32.0685 46.8311C31.9935 46.9694 31.9186 47.1077 31.844 47.2462C31.7764 47.3712 31.7088 47.4962 31.6392 47.6249C31.4832 48.0034 31.4437 48.2458 31.4922 48.6496C31.7164 48.9906 31.7164 48.9906 32.0586 49.2062C32.4065 49.2513 32.4065 49.2513 32.7383 49.0949C33.334 48.5002 33.6931 47.7695 34.0835 47.0353C34.1521 46.9112 34.2208 46.787 34.2915 46.6591C34.3557 46.5387 34.42 46.4183 34.4862 46.2943C34.5448 46.1854 34.6035 46.0766 34.664 45.9644C34.7998 45.5802 34.7788 45.3637 34.6641 44.9757C34.1283 44.4492 33.7973 44.4232 33.1914 44.8644ZM36.4956 46.5204C36.1554 47.0024 35.8725 47.5063 35.5915 48.0233C35.504 48.177 35.504 48.177 35.4148 48.3338C35.0618 48.96 35.0618 48.96 35.0123 49.6559C35.0948 49.9865 35.0948 49.9865 35.3013 50.2081C35.7016 50.3738 35.9497 50.3243 36.3633 50.2081C36.8207 49.741 37.1016 49.1638 37.404 48.5939C37.4806 48.4533 37.4806 48.4533 37.5587 48.3099C37.6074 48.2188 37.6561 48.1277 37.7063 48.0338C37.7503 47.9516 37.7942 47.8695 37.8396 47.7848C37.9599 47.512 38.0307 47.2756 38.0625 46.9796C37.8612 46.6795 37.7121 46.4735 37.3828 46.3117C36.8841 46.2438 36.8841 46.2438 36.4956 46.5204ZM39.5351 48.5382C39.3158 48.8602 39.1236 49.194 38.9333 49.5332C38.8819 49.6207 38.8304 49.7082 38.7774 49.7983C38.5043 50.2805 38.3131 50.6425 38.4023 51.2101C38.6217 51.5055 38.7851 51.6288 39.1316 51.7598C39.5174 51.769 39.6759 51.651 39.9883 51.4328C40.2552 51.0776 40.4481 50.6836 40.6538 50.2916C40.7116 50.1882 40.7695 50.0847 40.829 49.9781C41.1775 49.3448 41.1775 49.3448 41.2264 48.6439C41.1454 48.3119 41.1454 48.3119 40.9228 48.0999C40.2742 47.7989 39.9575 48.0327 39.5351 48.5382ZM43.0469 49.5402C42.7104 50.3117 42.7104 50.3117 42.3672 51.0988C42.9323 51.432 43.0992 51.5112 43.7266 51.4328C44.0192 51.275 44.0192 51.275 44.1797 50.9874C44.2646 50.5978 44.2646 50.5978 44.1797 50.2081C43.825 49.8397 43.5366 49.7327 43.0469 49.5402Z" fill="#08536B"/>
<path d="M17.6714 4.89845C18.0023 5.10342 18.3147 5.32858 18.6272 5.55946C18.8066 5.68937 18.9859 5.81926 19.1653 5.94911C19.2559 6.01512 19.3464 6.08114 19.4397 6.14915C19.8645 6.45753 20.294 6.75958 20.7229 7.06239C21.5181 7.6258 22.3079 8.19613 23.0962 8.76876C23.624 9.15169 24.1538 9.5315 24.6864 9.90792C25.0222 10.1454 25.3572 10.384 25.6922 10.6226C25.8599 10.7414 26.0282 10.8597 26.1968 10.9773C26.4454 11.1507 26.6924 11.3259 26.9392 11.5016C27.0131 11.5523 27.0869 11.603 27.163 11.6552C27.8009 12.114 28.2807 12.6928 28.4331 13.4707C28.4949 14.3807 28.3157 15.0187 27.7251 15.7321C27.2363 16.2394 26.8432 16.456 26.1379 16.4992C25.1079 16.5126 25.1079 16.5126 24.8081 16.3652C24.8093 16.5038 24.8093 16.5038 24.8104 16.6452C24.8173 17.5197 24.8224 18.3942 24.8258 19.2687C24.8275 19.7182 24.8299 20.1677 24.8338 20.6172C24.8375 21.0517 24.8395 21.4863 24.8404 21.9208C24.841 22.0858 24.8422 22.2509 24.8441 22.4159C24.8575 23.6634 24.812 24.8343 23.9279 25.8058C22.8815 26.8208 21.6892 26.8038 20.3026 26.803C20.0397 26.8007 19.7769 26.7983 19.514 26.7957C19.2413 26.7953 18.9686 26.7952 18.6958 26.7953C18.1264 26.7948 17.5571 26.792 16.9877 26.7875C16.2592 26.7818 15.5307 26.7806 14.8021 26.7808C14.2398 26.7807 13.6775 26.7789 13.1152 26.7765C12.8466 26.7754 12.5779 26.7747 12.3093 26.7745C11.9339 26.7738 11.5585 26.7708 11.1831 26.7673C11.018 26.7675 11.018 26.7675 10.8496 26.7677C9.77848 26.753 9.05572 26.4626 8.26731 25.7386C7.66801 25.087 7.4617 24.3695 7.46326 23.506C7.46324 23.4289 7.46322 23.3518 7.46321 23.2723C7.46328 23.0175 7.46416 22.7627 7.46505 22.5079C7.46526 22.3311 7.46543 22.1544 7.46554 21.9776C7.46597 21.5126 7.46708 21.0475 7.46834 20.5825C7.4695 20.1079 7.47001 19.6333 7.47058 19.1587C7.4718 18.2275 7.47373 17.2964 7.47612 16.3652C7.30789 16.4204 7.30789 16.4204 7.13627 16.4766C6.19927 16.5747 5.40585 16.4984 4.64408 15.9199C3.99991 15.1837 3.8069 14.5505 3.82103 13.5894C3.88578 12.8547 4.20387 12.4215 4.74321 11.926C5.362 11.4168 6.02282 10.9647 6.68337 10.5101C7.08927 10.2293 7.4915 9.94346 7.89384 9.65773C7.97933 9.59707 8.06482 9.53641 8.1529 9.47391C8.77958 9.02846 9.40284 8.57858 10.0249 8.12697C10.8991 7.49236 11.7772 6.86336 12.6601 6.24048C12.9714 6.02077 13.2807 5.79877 13.5884 5.57425C13.6941 5.49799 13.6941 5.49799 13.8018 5.42019C13.9891 5.28488 14.1758 5.14867 14.3624 5.01239C15.5154 4.29834 16.4752 4.28147 17.6714 4.89845ZM15.4443 6.60751C15.3251 6.6934 15.3251 6.6934 15.2036 6.78103C15.0759 6.87553 15.0759 6.87553 14.9456 6.97194C14.8559 7.03695 14.7663 7.10196 14.6739 7.16894C14.4841 7.30667 14.2947 7.44486 14.1057 7.58348C13.742 7.85008 13.3766 8.11441 13.0112 8.37873C12.8317 8.50858 12.6524 8.63856 12.4731 8.76865C11.6144 9.39168 10.7493 10.0059 9.88301 10.6187C9.62434 10.8018 9.36574 10.9849 9.10719 11.1681C9.02111 11.229 8.93502 11.29 8.84633 11.3528C8.67545 11.4741 8.50479 11.5957 8.33435 11.7176C7.92271 12.0118 7.50906 12.3013 7.0876 12.5818C7.00862 12.6356 6.92965 12.6893 6.84828 12.7446C6.70036 12.8452 6.55116 12.9439 6.40052 13.0405C6.0242 13.2995 5.89855 13.4393 5.78044 13.8825C5.74654 14.2373 5.74654 14.2373 5.89726 14.4657C6.23142 14.6458 6.41496 14.6336 6.79643 14.584C7.15299 14.3879 7.46678 14.1428 7.78764 13.8952C7.98034 13.751 8.17313 13.6069 8.36599 13.4629C8.4633 13.3895 8.56061 13.3162 8.66087 13.2406C9.0933 12.9174 9.53391 12.6059 9.97538 12.2948C10.1444 12.1751 10.3135 12.0554 10.4825 11.9356C10.7351 11.7569 10.9878 11.5782 11.2404 11.3995C11.4938 11.2203 11.747 11.0409 12.0003 10.8615C12.083 10.8028 12.1658 10.7442 12.2511 10.6838C12.9946 10.1561 13.7325 9.62085 14.4679 9.0822C14.7037 8.91034 14.941 8.74081 15.1792 8.57228C15.3253 8.46766 15.3253 8.46766 15.4744 8.36093C15.8578 8.18757 16.1207 8.18679 16.5386 8.2383C16.8064 8.38455 17.0169 8.52043 17.2537 8.70448C17.3932 8.8076 17.5327 8.91066 17.6723 9.01368C17.7457 9.06877 17.819 9.12386 17.8946 9.18062C18.2105 9.41547 18.5324 9.64177 18.8544 9.86843C19.6642 10.4384 20.4671 11.0173 21.2681 11.599C21.9527 12.0961 22.6385 12.5911 23.3341 13.0735C23.6695 13.3062 24.0007 13.5428 24.328 13.7864C24.3989 13.8384 24.4697 13.8903 24.5427 13.9438C24.6778 14.0429 24.812 14.1432 24.945 14.2449C25.3643 14.5497 25.6475 14.6553 26.1675 14.584C26.403 14.4084 26.403 14.4084 26.5074 14.1387C26.542 13.8619 26.542 13.8619 26.3941 13.582C25.8756 13.07 25.2566 12.6566 24.6595 12.2391C24.4782 12.1115 24.2969 11.9837 24.1156 11.856C24.0237 11.7914 23.9317 11.7268 23.837 11.6603C23.4045 11.356 22.9736 11.0495 22.5425 10.7432C22.0343 10.3823 21.526 10.0216 21.0172 9.66164C20.0339 8.96552 19.0546 8.26457 18.0828 7.55296C17.8336 7.37141 17.5832 7.19186 17.3316 7.01369C17.2412 6.94966 17.1508 6.88564 17.0577 6.81968C16.9683 6.75842 16.879 6.69716 16.7869 6.63404C16.7066 6.57864 16.6264 6.52323 16.5437 6.46615C16.1022 6.23664 15.8153 6.33625 15.4443 6.60751ZM16.0855 10.2422C14.9873 10.9967 13.8988 11.7622 12.822 12.546C12.097 13.0733 11.3669 13.5933 10.6336 14.1095C10.5546 14.1654 10.4755 14.2212 10.394 14.2787C10.3252 14.3271 10.2565 14.3755 10.1856 14.4253C10.1139 14.4777 10.0422 14.53 9.9683 14.584C9.82355 14.6729 9.82355 14.6729 9.67587 14.7636C9.36855 15.0617 9.33484 15.2183 9.32765 15.6354C9.32915 15.715 9.33065 15.7946 9.3322 15.8766C9.33157 15.9614 9.33095 16.0462 9.3303 16.1335C9.32896 16.4135 9.33171 16.6932 9.33464 16.9732C9.33483 17.1682 9.33482 17.3631 9.33462 17.558C9.33481 17.9667 9.33693 18.3752 9.3405 18.7838C9.34499 19.3067 9.34549 19.8294 9.34464 20.3523C9.34429 20.755 9.34567 21.1576 9.3476 21.5603C9.34839 21.753 9.34875 21.9457 9.34865 22.1384C9.34886 22.4084 9.35129 22.6782 9.35433 22.9481C9.354 23.0273 9.35366 23.1064 9.35332 23.1879C9.36222 23.702 9.46668 24.0554 9.74174 24.4922C10.4092 24.9928 11.1274 24.9526 11.9295 24.9445C12.0715 24.9437 12.0715 24.9437 12.2164 24.9429C12.4488 24.9416 12.6812 24.9396 12.9136 24.9375C12.914 24.8444 12.9144 24.7513 12.9149 24.6554C12.9192 23.7758 12.9256 22.8963 12.9344 22.0168C12.9389 21.5646 12.9426 21.1125 12.9443 20.6604C12.946 20.2236 12.9499 19.787 12.9553 19.3502C12.957 19.184 12.9579 19.0178 12.958 18.8516C12.9599 17.1796 12.9599 17.1796 13.48 16.5879C14.0004 16.1673 14.4702 16.0857 15.1443 16.0834C15.2245 16.083 15.3048 16.0826 15.3874 16.0822C15.5558 16.0819 15.7242 16.0827 15.8926 16.0845C16.149 16.0869 16.405 16.0846 16.6614 16.0817C16.8259 16.082 16.9905 16.0826 17.155 16.0834C17.303 16.084 17.451 16.0845 17.6035 16.085C18.2064 16.1702 18.5514 16.436 18.9529 16.8732C19.2669 17.3188 19.2735 17.6713 19.2806 18.2012C19.2817 18.274 19.2829 18.3468 19.284 18.4218C19.2876 18.6621 19.2904 18.9024 19.2932 19.1428C19.2955 19.3096 19.2979 19.4763 19.3003 19.6431C19.3066 20.0818 19.3122 20.5205 19.3177 20.9592C19.3233 21.4069 19.3297 21.8546 19.3359 22.3024C19.3481 23.1808 19.3596 24.0591 19.3706 24.9375C19.694 24.9436 20.0172 24.948 20.3406 24.9514C20.4765 24.9542 20.4765 24.9542 20.6152 24.9571C21.2369 24.9621 21.8935 24.9595 22.4 24.5587C22.821 23.9981 22.9033 23.5817 22.9294 22.9026C22.9329 22.8204 22.9363 22.7381 22.9399 22.6534C22.9704 21.8924 22.9887 21.1311 23.0032 20.3696C23.0131 19.8589 23.0271 19.3489 23.051 18.8386C23.2439 16.7003 23.2439 16.7003 22.6802 14.6975C22.2007 14.1887 21.652 13.8816 21.0117 13.604C20.5352 13.3785 20.1298 13.0606 19.7105 12.7471C19.5441 12.6288 19.3775 12.5109 19.2105 12.3935C18.8386 12.1296 18.4691 11.8628 18.1007 11.5942C18.003 11.523 17.9053 11.4519 17.8046 11.3785C17.6162 11.241 17.428 11.1031 17.24 10.965C17.1549 10.9028 17.0697 10.8407 16.982 10.7767C16.9072 10.7217 16.8324 10.6668 16.7553 10.6102C16.5394 10.4654 16.3218 10.3514 16.0855 10.2422ZM14.8394 17.9238C14.8287 18.1425 14.8261 18.3615 14.8265 18.5803C14.8265 18.7207 14.8266 18.8611 14.8266 19.0058C14.8271 19.1602 14.8277 19.3146 14.8283 19.469C14.8285 19.626 14.8287 19.7831 14.8288 19.9402C14.8293 20.3544 14.8304 20.7686 14.8316 21.1828C14.8328 21.6051 14.8333 22.0275 14.8339 22.4498C14.8351 23.279 14.8371 24.1083 14.8394 24.9375C15.6992 24.9375 16.559 24.9375 17.4449 24.9375C17.4449 22.623 17.4449 20.3085 17.4449 17.9238C17.1748 17.7911 17.0057 17.7981 16.7046 17.7977C16.6036 17.7976 16.5026 17.7974 16.3986 17.7973C16.2929 17.7977 16.1873 17.7982 16.0784 17.7986C15.9723 17.7982 15.8662 17.7977 15.7569 17.7973C15.6561 17.7974 15.5553 17.7976 15.4514 17.7977C15.3585 17.7979 15.2656 17.798 15.1699 17.7981C14.9517 17.7891 14.9517 17.7891 14.8394 17.9238Z" fill="#08536B"/>
<path d="M8.72802 46.6301C8.84586 46.6293 8.9637 46.6285 9.08511 46.6277C9.21435 46.6274 9.34358 46.6271 9.47674 46.6268C9.61288 46.626 9.74903 46.6253 9.8893 46.6246C10.3408 46.6224 10.7922 46.6211 11.2437 46.62C11.3992 46.6195 11.5547 46.619 11.7102 46.6186C12.4407 46.6165 13.1712 46.6149 13.9017 46.614C14.7447 46.6129 15.5876 46.6099 16.4306 46.6054C17.0824 46.6021 17.7342 46.6004 18.386 46.6001C18.7752 46.5998 19.1644 46.5988 19.5536 46.596C19.9878 46.5929 20.422 46.5934 20.8562 46.5942C20.985 46.5927 21.1137 46.5913 21.2464 46.5898C22.1136 46.5955 22.1136 46.5955 22.565 46.8485C22.8537 47.1896 22.8842 47.4311 22.8842 47.8711C22.7318 48.1992 22.648 48.3768 22.3178 48.5391C22.1297 48.5506 21.9411 48.5551 21.7525 48.5562C21.6329 48.5572 21.5133 48.5581 21.3901 48.5591C21.2584 48.5596 21.1266 48.56 20.9909 48.5605C20.8525 48.5614 20.7142 48.5624 20.5716 48.5633C20.1122 48.5661 19.6528 48.5679 19.1933 48.5695C19.0352 48.5701 18.877 48.5707 18.7189 48.5713C18.0611 48.5737 17.4033 48.5758 16.7455 48.577C15.8027 48.5789 14.8599 48.5826 13.9171 48.5889C13.2542 48.5932 12.5914 48.5954 11.9285 48.596C11.5326 48.5964 11.1367 48.5977 10.7407 48.6013C10.2989 48.6053 9.8572 48.6049 9.41537 48.604C9.21875 48.6068 9.21875 48.6068 9.01817 48.6096C8.13476 48.6028 8.13476 48.6028 7.67906 48.2815C7.41615 47.8904 7.40988 47.6634 7.478 47.2031C7.78009 46.6659 8.13908 46.6328 8.72802 46.6301Z" fill="#08536B"/>
<path d="M8.72802 41.2864C8.84586 41.2856 8.9637 41.2848 9.08511 41.2839C9.21435 41.2836 9.34358 41.2833 9.47674 41.283C9.61288 41.2823 9.74903 41.2816 9.8893 41.2808C10.3408 41.2786 10.7922 41.2773 11.2437 41.2762C11.3992 41.2758 11.5547 41.2753 11.7102 41.2748C12.4407 41.2727 13.1712 41.2711 13.9017 41.2702C14.7447 41.2691 15.5876 41.2662 16.4306 41.2617C17.0824 41.2583 17.7342 41.2567 18.386 41.2563C18.7752 41.256 19.1644 41.2551 19.5536 41.2523C19.9878 41.2492 20.422 41.2496 20.8562 41.2504C20.985 41.249 21.1137 41.2476 21.2464 41.2461C22.1136 41.2518 22.1136 41.2518 22.565 41.5047C22.8537 41.8458 22.8842 42.0874 22.8842 42.5273C22.7318 42.8555 22.648 43.0331 22.3178 43.1953C22.1297 43.2068 21.9411 43.2113 21.7525 43.2124C21.6329 43.2134 21.5133 43.2144 21.3901 43.2153C21.2584 43.2158 21.1266 43.2163 20.9909 43.2168C20.8525 43.2177 20.7142 43.2186 20.5716 43.2195C20.1122 43.2223 19.6528 43.2242 19.1933 43.2258C19.0352 43.2264 18.877 43.227 18.7189 43.2276C18.0611 43.23 17.4033 43.232 16.7455 43.2333C15.8027 43.2351 14.8599 43.2388 13.9171 43.2451C13.2542 43.2495 12.5914 43.2516 11.9285 43.2522C11.5326 43.2526 11.1367 43.254 10.7407 43.2576C10.2989 43.2615 9.8572 43.2611 9.41537 43.2603C9.21875 43.263 9.21875 43.263 9.01817 43.2658C8.13476 43.259 8.13476 43.259 7.67906 42.9377C7.41615 42.5467 7.40988 42.3196 7.478 41.8594C7.78009 41.3222 8.13908 41.2891 8.72802 41.2864Z" fill="#08536B"/>
<path d="M9.13093 35.9393C9.23061 35.9385 9.3303 35.9378 9.43301 35.9371C9.76311 35.9349 10.0932 35.9336 10.4233 35.9325C10.5924 35.9318 10.5924 35.9318 10.7649 35.9311C11.3612 35.9288 11.9575 35.9272 12.5539 35.9261C13.1701 35.9249 13.7863 35.9211 14.4025 35.9166C14.8762 35.9137 15.3498 35.9128 15.8235 35.9124C16.0507 35.9119 16.2779 35.9106 16.505 35.9085C16.8229 35.9058 17.1406 35.9059 17.4584 35.9067C17.5523 35.9052 17.6461 35.9038 17.7427 35.9023C18.1876 35.9063 18.4136 35.9292 18.8026 36.161C19.1176 36.498 19.1433 36.7308 19.1433 37.1836C18.9909 37.5117 18.9071 37.6893 18.5769 37.8516C18.2481 37.8649 17.922 37.8714 17.5931 37.873C17.4912 37.8739 17.3893 37.8749 17.2844 37.8758C16.9463 37.8786 16.6082 37.8804 16.2701 37.882C16.1548 37.8826 16.0395 37.8832 15.9207 37.8838C15.3104 37.8868 14.7001 37.8889 14.0898 37.8905C13.459 37.8924 12.8282 37.8974 12.1974 37.9031C11.7127 37.9068 11.2281 37.9081 10.7435 37.9087C10.5109 37.9095 10.2783 37.9112 10.0458 37.9138C9.72032 37.9173 9.39504 37.9174 9.06956 37.9165C8.97344 37.9184 8.87732 37.9202 8.77829 37.9221C8.2911 37.917 8.09783 37.8936 7.69786 37.594C7.40801 37.2044 7.40538 36.9884 7.47535 36.5156C7.84906 35.8511 8.43592 35.9415 9.13093 35.9393Z" fill="#08536B"/>
<path d="M9.13093 30.5955C9.23061 30.5948 9.3303 30.5941 9.43301 30.5933C9.76311 30.5911 10.0932 30.5898 10.4233 30.5887C10.5924 30.588 10.5924 30.588 10.7649 30.5873C11.3612 30.585 11.9575 30.5834 12.5539 30.5824C13.1701 30.5811 13.7863 30.5773 14.4025 30.5729C14.8762 30.57 15.3498 30.5691 15.8235 30.5687C16.0507 30.5681 16.2779 30.5668 16.505 30.5648C16.8229 30.562 17.1406 30.5621 17.4584 30.5629C17.5523 30.5615 17.6461 30.5601 17.7427 30.5586C18.1876 30.5625 18.4136 30.5854 18.8026 30.8172C19.1176 31.1542 19.1433 31.387 19.1433 31.8398C18.9909 32.168 18.9071 32.3456 18.5769 32.5078C18.2481 32.5211 17.922 32.5277 17.5931 32.5293C17.4912 32.5302 17.3893 32.5311 17.2844 32.532C16.9463 32.5348 16.6082 32.5367 16.2701 32.5383C16.1548 32.5388 16.0395 32.5394 15.9207 32.5401C15.3104 32.543 14.7001 32.5452 14.0898 32.5468C13.459 32.5486 12.8282 32.5536 12.1974 32.5593C11.7127 32.563 11.2281 32.5643 10.7435 32.565C10.5109 32.5657 10.2783 32.5674 10.0458 32.5701C9.72032 32.5736 9.39504 32.5736 9.06956 32.5728C8.97344 32.5746 8.87732 32.5764 8.77829 32.5783C8.2911 32.5732 8.09783 32.5498 7.69786 32.2502C7.40801 31.8607 7.40538 31.6447 7.47535 31.1719C7.84906 30.5073 8.43592 30.5977 9.13093 30.5955Z" fill="#08536B"/>
</g>
<defs>
<clipPath id="clip0_191_11915">
<rect width="58" height="57" fill="white"/>
</clipPath>
</defs>
</svg>
