<svg width="136" height="136" viewBox="0 0 136 136" fill="none" xmlns="http://www.w3.org/2000/svg">
<path d="M41.9128 101.453V76.5953L40.2598 76.4849V67.9431L41.9052 67.8003C41.9052 65.8353 41.9166 63.9102 41.8785 61.9871C41.8785 61.8329 41.5377 61.6063 41.3225 61.5549C41.0006 61.4806 40.6482 61.5358 40.2578 61.5358V52.8874C41.4252 52.8874 42.5603 52.8646 43.6858 52.8874C44.2876 52.9065 44.5486 52.718 44.5276 52.0839C44.4933 50.9757 44.4857 49.8637 44.5276 48.7574C44.5562 48.0644 44.2629 47.8682 43.6306 47.9101C43.0993 47.9444 42.566 47.9101 41.968 47.9101V39.3074H44.0953C44.0953 37.9746 44.1315 36.7483 44.0801 35.524C44.0496 34.7623 44.2819 34.4177 45.0913 34.4843C45.775 34.5415 46.4682 34.4958 47.2395 34.4958V31.0018H49.0716V34.4729H52.2519V39.2332L54.4287 39.3474V41.1392C54.4287 43.009 54.3621 44.8807 54.4554 46.7448C54.5068 47.7654 54.1259 48.0339 53.2137 47.9292C52.7893 47.9061 52.364 47.9061 51.9397 47.9292V52.8798H56.1294V56.9946H79.3291V52.9103H83.5646V47.9196C82.9432 47.9509 82.3204 47.942 81.7002 47.893C81.464 47.8606 81.0869 47.5255 81.0831 47.3218C81.0431 44.6979 81.0564 42.0722 81.0564 39.3607L83.1685 39.2408V34.5396H86.3717V30.9941H88.2076V34.4958C89.0779 34.4958 89.8302 34.5243 90.5805 34.4958C91.188 34.4672 91.4433 34.6862 91.4204 35.3069C91.3861 36.2875 91.4622 37.2738 91.3956 38.2506C91.3384 39.0827 91.6051 39.4331 92.4545 39.3169C92.8102 39.2939 93.1671 39.2939 93.5229 39.3169V47.9444C92.8906 47.9444 92.2736 47.9596 91.6585 47.9444C91.1747 47.9273 90.9729 48.1215 90.9805 48.6127C90.9976 49.8161 91.0014 51.0195 90.9805 52.2305C90.9805 52.7827 91.2261 52.9331 91.7422 52.9217C92.9039 52.8989 94.0675 52.9217 95.2578 52.9217V61.3892C95.1759 61.4501 95.1302 61.5149 95.0788 61.5187C93.5819 61.671 93.5819 61.671 93.5838 63.2019C93.5857 64.7328 93.5838 66.2313 93.5838 67.8403L95.2102 67.9488V76.5058L93.6067 76.6239V101.453H41.9128ZM59.3517 99.5206C59.4957 99.5513 59.6413 99.5742 59.7878 99.5892C64.9793 99.5892 70.1727 99.5892 75.3641 99.6101C76.065 99.6101 76.1126 99.2693 76.1107 98.7304C76.0973 95.1545 76.1106 91.5786 76.0916 88.0027C76.0885 87.2761 76.0016 86.5522 75.8326 85.8454C74.8271 81.7421 70.9383 78.9488 66.9523 79.4267C62.5131 79.9598 59.3879 83.3986 59.3555 87.818C59.3364 90.381 59.3555 92.9458 59.3555 95.5087L59.3517 99.5206ZM57.5063 99.4825C57.5063 96.0266 57.493 92.5802 57.5063 89.1338C57.4905 88.0592 57.5541 86.9849 57.6967 85.9197C58.4433 81.0909 62.9853 77.4122 67.9616 77.5416C73.016 77.6825 77.4494 81.5802 77.7713 86.5118C78.0303 90.4857 77.8989 94.4843 77.9389 98.4734C77.9389 98.8351 77.9389 99.1988 77.9389 99.5606H81.0584V78.1681C81.0584 76.6448 81.0584 76.6448 79.5615 76.4906C79.5101 76.4906 79.4644 76.4201 79.3235 76.3002V74.1009H56.1218V76.4068C54.4325 76.6829 54.4325 76.6829 54.4325 78.4251V97.0472C54.4325 99.8786 54.4325 99.8786 57.2739 99.572C57.3539 99.5493 57.4317 99.5193 57.5063 99.4825ZM47.1919 99.5701V76.6144H43.8173V99.5701H47.1919ZM52.5128 99.5549V76.5496C51.6425 76.5496 50.8522 76.6029 50.0714 76.5363C49.2449 76.4658 49.0791 76.8105 49.0811 77.5702C49.1058 84.562 49.0944 91.5558 49.0983 98.5476C49.0983 98.8808 49.1287 99.2141 49.1459 99.5549H52.5128ZM86.3584 99.5549C86.3756 99.2045 86.406 98.8961 86.406 98.5895C86.406 91.5939 86.406 84.5976 86.406 77.6007C86.406 77.4103 86.4594 77.1932 86.3851 77.0294C86.2956 76.839 86.1032 76.5744 85.9452 76.5667C84.9739 76.5249 84.0007 76.5458 82.9704 76.5458V99.5473L86.3584 99.5549ZM88.3123 76.6086V99.572H91.687V76.6144L88.3123 76.6086ZM66.8037 65.4468C66.6513 65.3516 66.6247 65.3212 66.6 65.3212C62.7359 65.2983 58.8737 65.2717 55.0115 65.2793C54.8909 65.3033 54.7785 65.3577 54.6848 65.4373C54.5911 65.517 54.5194 65.6192 54.4763 65.7344C54.4135 66.4122 54.4516 67.1015 54.4516 67.8003L56.1465 67.9374C56.1465 69.1351 56.1123 70.2718 56.1732 71.4028C56.1884 71.6675 56.5255 72.1321 56.7216 72.1359C59.8887 72.1816 63.0558 72.1759 66.2247 72.1359C66.4152 72.1359 66.7751 71.7875 66.779 71.5971C66.8189 69.554 66.8037 67.4995 66.8037 65.4525V65.4468ZM68.7081 65.3154V72.1055C69.0357 72.1302 69.3118 72.1683 69.588 72.1683C72.5303 72.1683 75.4727 72.1473 78.4131 72.1873C79.1844 72.1988 79.4034 71.9398 79.3653 71.2048C79.312 70.1157 79.352 69.0227 79.352 67.9184L81.066 67.8041C81.038 67.3063 81.038 66.8072 81.066 66.3094C81.165 65.4811 80.8756 65.2241 80.0186 65.2355C76.5411 65.2831 73.0598 65.2545 69.5804 65.2583C69.3137 65.2659 69.0395 65.3002 68.7139 65.3212L68.7081 65.3154ZM93.4067 74.6455V69.8548H81.2793V74.6455H93.4067ZM42.0899 74.6227H54.225V69.8453H42.0899V74.6227ZM54.2154 59.626V54.8067H42.1033V59.6298L54.2154 59.626ZM93.4086 54.8029H81.2545V59.5956H93.4086V54.8029ZM52.5452 61.6729H43.8286V67.787H52.5452V61.6729ZM82.9742 61.6463V67.7946H91.6889V61.6463H82.9742ZM52.5376 41.2268H43.8229V46.0194H52.5376V41.2268ZM82.9857 41.1791V46.0213H91.6718V41.1791H82.9857ZM59.4069 63.4152C61.7379 63.4152 63.9775 63.4304 66.2247 63.3866C66.4152 63.3866 66.7446 62.9906 66.777 62.7487C66.8252 62.1152 66.8341 61.4793 66.8037 60.8446C66.8037 58.8834 66.8037 58.8853 64.8555 58.8872C63.0577 58.8872 61.2618 58.8872 59.4069 58.8872V63.4152ZM75.5279 63.3485V58.9691H68.6986V63.3485H75.5279ZM89.1046 48.0682H85.5318V52.7865H89.1046V48.0682ZM49.978 48.051H46.4397V52.7751H49.978V48.051ZM45.9311 39.0923H50.439C50.439 38.3135 50.4808 37.5899 50.4103 36.8778C50.3689 36.7498 50.2957 36.6344 50.1974 36.5425C50.0991 36.4505 49.9791 36.3851 49.8486 36.3523C48.7459 36.299 47.6356 36.297 46.5329 36.3523C46.4018 36.3841 46.2807 36.4484 46.1809 36.5392C46.0811 36.6301 46.0057 36.7445 45.9616 36.8721C45.895 37.5804 45.9369 38.304 45.9369 39.0923H45.9311ZM89.5654 39.0923C89.5654 38.2887 89.594 37.5366 89.5445 36.7902C89.5125 36.6834 89.4537 36.5866 89.3737 36.5089C89.2937 36.4312 89.1952 36.3754 89.0875 36.3466C87.7715 36.3085 86.4556 36.3256 85.1358 36.3256V39.0923H89.5654ZM79.3501 61.4559C79.3501 60.7932 79.3844 60.1649 79.3329 59.5518C79.3139 59.329 79.133 58.9939 78.9521 58.931C77.9084 58.5769 77.4285 58.931 77.4285 60.0145C77.4285 60.2372 77.4285 60.4581 77.4285 60.679C77.4285 63.5542 77.4285 63.5542 80.2852 63.4171C80.4109 63.4171 80.5594 63.4456 80.666 63.3885C80.828 63.3167 80.9619 63.1936 81.0469 63.0382C81.3707 62.0994 80.9993 61.572 80.0166 61.5282C79.8262 61.5206 79.6453 61.4939 79.3558 61.4635L79.3501 61.4559ZM57.5025 63.4076C57.5025 62.0423 57.4911 60.818 57.5025 59.5994C57.5025 59.1481 57.4034 58.8891 56.8778 58.8872C56.3522 58.8853 56.116 59.0281 56.1313 59.586C56.1598 60.2049 56.1313 60.8275 56.1313 61.5339C55.6856 61.5339 55.3695 61.5492 55.0648 61.5339C54.3696 61.4901 54.4116 61.9681 54.4249 62.4193C54.4382 62.8706 54.2764 63.4304 55.0515 63.419C55.8266 63.4076 56.6302 63.4152 57.5082 63.4152L57.5025 63.4076Z" fill="#08536B"/>
<circle cx="67.7578" cy="68.2246" r="67" stroke="#6C8C91"/>
</svg>
