<svg width="30" height="45" viewBox="0 0 30 45" fill="none" xmlns="http://www.w3.org/2000/svg">
<path d="M1.18797 0.0550919C0.866024 0.150092 0.855469 0.213428 0.855469 2.18732V3.96593L1.00852 4.11898L1.16158 4.27204H5.95908C10.8094 4.27732 11.7963 4.3037 12.5299 4.45676C14.5882 4.87898 16.4355 6.21954 17.5438 8.08787C17.7813 8.48898 18.1666 9.39148 18.1666 9.5551C18.1666 9.65537 17.9924 9.65537 9.74853 9.65537C0.570469 9.65537 1.02436 9.63954 0.908247 9.94565C0.87658 10.0301 0.855469 10.8112 0.855469 11.8509V13.6243L1.00852 13.7773L1.16158 13.9304H9.66408C18.098 13.9304 18.1666 13.9304 18.1666 14.0359C18.1666 14.1943 17.9238 14.8065 17.6599 15.2973C17.0899 16.374 16.2191 17.3345 15.2005 18.0101C14.298 18.6118 13.5274 18.939 12.4666 19.1712C11.9863 19.2715 11.7594 19.2768 6.54491 19.3084L1.12464 19.3401L1.00325 19.4615C0.881858 19.5776 0.881858 19.5881 0.881858 21.0818V22.5859L11.6749 33.3843C17.6124 39.3218 22.5366 44.2143 22.6157 44.2565C22.9271 44.4254 22.9957 44.3726 24.7216 42.6468C25.7877 41.5859 26.3524 40.9843 26.3735 40.884C26.3946 40.8048 26.3946 40.6782 26.3788 40.6043C26.3577 40.5198 23.2438 37.369 17.9132 32.0437L9.48464 23.6204L10.9096 23.5834C12.4032 23.5465 12.9574 23.4831 13.881 23.2456C14.6832 23.0451 15.2691 22.8234 16.0819 22.4276C18.8949 21.0448 20.911 18.8862 21.9877 16.0837C22.2041 15.5137 22.4416 14.7484 22.5208 14.3526C22.5419 14.2523 22.5894 14.1151 22.6316 14.0465L22.7055 13.9304H25.8246H28.9438L29.0969 13.7773L29.2499 13.6243V11.8509C29.2499 10.8534 29.2288 10.0248 29.1971 9.95093C29.0863 9.65537 29.1074 9.65537 25.7824 9.65537C24.1041 9.65537 22.7055 9.63426 22.6685 9.61315C22.6369 9.59204 22.5471 9.31232 22.468 8.99565C22.0985 7.50204 21.4863 6.17731 20.5363 4.84204C20.3357 4.56231 20.1721 4.31954 20.1721 4.3037C20.1721 4.28787 22.146 4.27204 24.558 4.27204H28.9438L29.0969 4.11898L29.2499 3.96593V2.18732C29.2499 0.223984 29.2394 0.165925 28.928 0.0550919C28.7116 -0.018797 1.44658 -0.018797 1.18797 0.0550919ZM28.1416 2.16093V3.21648H23.4971C18.5255 3.21648 18.573 3.21648 18.4357 3.46981C18.3513 3.62815 18.3671 3.91315 18.4674 4.06093C18.5149 4.13482 18.7155 4.36704 18.916 4.57815C20.1827 5.92398 21.1221 7.77648 21.5285 9.73454C21.671 10.4259 21.7027 10.5104 21.8716 10.6265C21.9771 10.7004 22.373 10.7109 25.0646 10.7109H28.1416V11.7929V12.8748L25.0277 12.8854C21.9296 12.9012 21.9138 12.9012 21.803 13.012C21.7238 13.0965 21.6446 13.3287 21.5338 13.8301C21.1432 15.5929 20.531 16.9704 19.5494 18.274C18.1824 20.0895 15.9235 21.599 13.7016 22.1848C12.6724 22.454 12.2713 22.4909 10.0494 22.5173C8.07547 22.5437 7.97519 22.549 7.84325 22.6493C7.6638 22.797 7.60575 22.9606 7.66908 23.177C7.70603 23.309 9.77491 25.4095 16.3827 32.0173L25.0541 40.6887L23.9194 41.8234L22.7846 42.9582L12.398 32.5768C3.73186 23.9054 2.00602 22.1584 1.9638 21.9948C1.93214 21.884 1.9163 21.4829 1.92158 21.0976L1.93741 20.3957L7.03047 20.3693C10.7988 20.3481 12.2132 20.3218 12.4666 20.2743C14.2769 19.9207 15.6227 19.2345 16.9052 18.0048C18.0769 16.8806 18.726 15.8568 19.2221 14.3262C19.4438 13.6506 19.4649 13.1968 19.2855 13.0226L19.1641 12.9012L10.5666 12.8854L1.9638 12.8748V11.7929V10.7109H10.5455H19.1271L19.2802 10.5579C19.4755 10.3626 19.4755 10.1884 19.3013 9.57093C18.5994 7.16426 17.1427 5.31704 15.1213 4.28259C14.0552 3.73898 12.8096 3.36426 11.7435 3.27454C11.3741 3.23759 9.26825 3.21648 6.54491 3.21648H1.9638V2.16093V1.10537H15.0527H28.1416V2.16093Z" fill="#08536B"/>
</svg>
