<svg width="136" height="136" viewBox="0 0 136 136" fill="none" xmlns="http://www.w3.org/2000/svg">
<path d="M66.1353 32.221C63.2493 34.99 61.9233 37.33 61.5333 40.528L61.3383 42.361L58.4913 39.553C56.9312 37.993 55.4883 36.706 55.2933 36.706C55.1373 36.706 53.8113 37.759 52.3682 39.046C49.4433 41.698 47.8833 44.389 47.5323 47.47L47.2983 49.42L44.4903 46.573C42.9692 45.013 41.4873 43.726 41.2533 43.726C41.0192 43.726 39.6153 44.857 38.1333 46.261C36.2613 47.938 35.0913 49.42 34.4672 50.824L33.5312 52.891V77.071V101.251H69.2163H104.901V77.071V52.891L103.965 50.863C103.068 48.874 98.2323 43.726 97.2573 43.726C97.0233 43.726 95.5413 45.013 93.9813 46.573L91.1343 49.381L90.9393 47.548C90.5493 44.428 89.2623 42.049 86.3763 39.28C84.9333 37.876 83.5293 36.706 83.2952 36.706C83.0613 36.706 81.5403 37.993 79.9803 39.553L77.0942 42.361L76.8993 40.528C76.5093 37.33 75.1833 34.99 72.2973 32.221C70.8153 30.817 69.4113 29.686 69.2163 29.686C69.0213 29.686 67.6173 30.817 66.1353 32.221ZM71.4393 33.586C74.7153 36.706 75.2223 37.993 75.3783 43.609L75.5343 48.406H74.1302H72.7262V44.506C72.7262 40.099 72.2973 38.851 70.3862 37.486L69.2163 36.667L68.0462 37.486C66.1353 38.851 65.7062 40.099 65.7062 44.506V48.406H64.3022H62.8983L63.0543 43.609C63.2103 37.993 63.7173 36.706 66.9933 33.586C68.0853 32.533 69.0993 31.636 69.2163 31.636C69.3333 31.636 70.3473 32.533 71.4393 33.586ZM57.3993 40.606C60.9093 43.96 61.1823 44.818 61.3383 52.423L61.4943 58.975L60.1683 58.858L58.8813 58.741L58.8033 55.231C58.7253 53.281 58.6082 51.331 58.4913 50.863C58.2183 49.615 55.9953 47.236 55.1763 47.236C54.3573 47.236 52.1343 49.615 51.8612 50.863C51.7443 51.331 51.6273 53.281 51.5492 55.231L51.4713 58.741L50.1842 58.858L48.8583 58.975L49.0143 52.423C49.1313 46.534 49.2093 45.715 50.0282 44.233C50.7693 42.79 54.6303 38.656 55.1763 38.656C55.2933 38.656 56.3073 39.553 57.3993 40.606ZM70.3473 39.67C71.0493 40.567 71.1663 41.269 71.1663 44.545V48.406H69.2163H67.2663V44.545C67.2663 41.269 67.3833 40.567 68.0853 39.67C68.5143 39.124 69.0213 38.656 69.2163 38.656C69.4113 38.656 69.9183 39.124 70.3473 39.67ZM85.4793 40.606C88.9893 43.96 89.2623 44.818 89.4183 52.423L89.5742 58.975L88.2483 58.858L86.9613 58.741L86.8833 55.231C86.8053 53.281 86.6883 51.331 86.5713 50.863C86.2983 49.615 84.0753 47.236 83.2563 47.236C82.4373 47.236 80.2143 49.615 79.9412 50.863C79.8242 51.331 79.7073 53.281 79.6292 55.231L79.5513 58.741L78.2643 58.858L76.9383 58.975L77.0942 52.423C77.2113 46.534 77.2892 45.715 78.1082 44.233C78.8493 42.79 82.7103 38.656 83.2563 38.656C83.3733 38.656 84.3873 39.553 85.4793 40.606ZM43.3593 47.626C46.7913 50.902 47.1423 51.916 47.2983 58.663L47.4543 64.435L46.1283 64.318L44.8413 64.201L44.7633 60.691C44.6853 58.741 44.5683 56.791 44.4513 56.323C44.1783 55.075 41.9552 52.696 41.1363 52.696C40.3173 52.696 38.0943 55.075 37.8212 56.323C37.7042 56.791 37.5873 58.741 37.5093 60.691L37.4313 64.201L36.1443 64.318L34.8183 64.435L34.9743 58.663C35.0913 53.593 35.2083 52.696 35.9883 51.253C36.7292 49.81 40.5903 45.676 41.1363 45.676C41.2533 45.676 42.2673 46.573 43.3593 47.626ZM99.5192 47.626C102.951 50.902 103.302 51.916 103.458 58.663L103.614 64.435L102.288 64.318L101.001 64.201L100.923 60.691C100.845 58.741 100.728 56.791 100.611 56.323C100.338 55.075 98.1152 52.696 97.2963 52.696C96.4773 52.696 94.2542 55.075 93.9813 56.323C93.8643 56.791 93.7472 58.741 93.6693 60.691L93.5913 64.201L92.3043 64.318L90.9783 64.435L91.1343 58.663C91.2513 53.593 91.3683 52.696 92.1483 51.253C92.8893 49.81 96.7503 45.676 97.2963 45.676C97.4132 45.676 98.4273 46.573 99.5192 47.626ZM56.2292 50.044C57.0483 50.824 57.1263 51.214 57.1263 54.919V58.936H55.1763H53.2262V54.958C53.2262 51.409 53.3043 50.902 54.0842 50.083C55.0983 48.991 55.0983 48.991 56.2292 50.044ZM84.3092 50.044C85.1283 50.824 85.2062 51.214 85.2062 54.919V58.936H83.2563H81.3063V54.958C81.3063 51.409 81.3843 50.902 82.1642 50.083C83.1782 48.991 83.1782 48.991 84.3092 50.044ZM75.4562 57.22V64.435L74.2083 64.318L72.9212 64.201L72.8433 60.691C72.6873 56.206 72.5703 55.738 71.1273 54.061C69.6063 52.345 68.8263 52.345 67.3053 54.061C65.8623 55.738 65.7453 56.206 65.5893 60.691L65.5113 64.201L64.2633 64.318L62.9762 64.435V57.22V49.966H69.2163H75.4562V57.22ZM42.1892 55.504C43.0083 56.284 43.0863 56.674 43.0863 60.379V64.396H41.1363H39.1863V60.418C39.1863 56.869 39.2643 56.362 40.0443 55.543C41.0582 54.451 41.0582 54.451 42.1892 55.504ZM70.2692 55.504C71.0882 56.284 71.1663 56.674 71.1663 60.379V64.396H69.2163H67.2663V60.418C67.2663 56.869 67.3442 56.362 68.1243 55.543C69.1383 54.451 69.1383 54.451 70.2692 55.504ZM98.3493 55.504C99.1683 56.284 99.2463 56.674 99.2463 60.379V64.396H97.2963H95.3463V60.418C95.3463 56.869 95.4243 56.362 96.2043 55.543C97.2183 54.451 97.2183 54.451 98.3493 55.504ZM61.4163 67.516V74.536H60.0513H58.6863V70.402V66.307L56.9312 64.474L55.1763 62.641L53.4213 64.474L51.6663 66.307V70.402V74.536H50.3013H48.9363V67.516V60.496H55.1763H61.4163V67.516ZM89.4963 67.516V74.536H88.1313H86.7663V70.402V66.307L85.0112 64.474L83.2563 62.641L81.5013 64.474L79.7463 66.307V70.402V74.536H78.3813H77.0163V67.516V60.496H83.2563H89.4963V67.516ZM56.3073 65.8C57.0093 66.697 57.1263 67.399 57.1263 70.909C57.1263 74.497 57.0483 74.965 56.5023 74.77C56.1513 74.653 55.2933 74.536 54.5522 74.536H53.2262V70.675C53.2262 67.399 53.3433 66.697 54.0452 65.8C54.4743 65.254 54.9813 64.786 55.1763 64.786C55.3713 64.786 55.8783 65.254 56.3073 65.8ZM84.3873 65.8C85.0893 66.697 85.2062 67.399 85.2062 70.909C85.2062 74.497 85.1283 74.965 84.5823 74.77C84.2313 74.653 83.3733 74.536 82.6323 74.536H81.3063V70.675C81.3063 67.399 81.4233 66.697 82.1253 65.8C82.5543 65.254 83.0613 64.786 83.2563 64.786C83.4513 64.786 83.9583 65.254 84.3873 65.8ZM47.3763 72.976V79.996H46.0113H44.6462V75.862V71.767L42.8913 69.934L41.1363 68.101L39.3812 69.934L37.6263 71.767V75.862V79.996H36.2613H34.8963V72.976V65.956H41.1363H47.3763V72.976ZM75.4562 72.976V79.996H74.0913H72.7262V75.862V71.767L70.9713 69.934L69.2163 68.101L67.4613 69.934L65.7062 71.767V75.862V79.996H64.3413H62.9762V72.976V65.956H69.2163H75.4562V72.976ZM103.536 72.976V79.996H102.171H100.806V75.862V71.767L99.0513 69.934L97.2963 68.101L95.5413 69.934L93.7863 71.767V75.862V79.996H92.4212H91.0563V72.976V65.956H97.2963H103.536V72.976ZM42.2673 71.26C42.9692 72.157 43.0863 72.859 43.0863 76.252V80.191L41.1363 80.074L39.1863 79.918V76.096C39.1863 72.859 39.3033 72.157 40.0052 71.26C40.4343 70.714 40.9413 70.246 41.1363 70.246C41.3313 70.246 41.8383 70.714 42.2673 71.26ZM70.3473 71.26C71.0493 72.157 71.1663 72.859 71.1663 76.252V80.191L69.2163 80.074L67.2663 79.918V76.096C67.2663 72.859 67.3833 72.157 68.0853 71.26C68.5143 70.714 69.0213 70.246 69.2163 70.246C69.4113 70.246 69.9183 70.714 70.3473 71.26ZM98.4273 71.26C99.1292 72.157 99.2463 72.859 99.2463 76.252V80.191L97.2963 80.074L95.3463 79.918V76.096C95.3463 72.859 95.4633 72.157 96.1653 71.26C96.5942 70.714 97.1012 70.246 97.2963 70.246C97.4913 70.246 97.9983 70.714 98.4273 71.26ZM61.4163 87.991V99.886H60.2463H59.0763V93.412V86.938L57.9452 85.807C56.3463 84.208 54.0063 84.208 52.4072 85.807L51.2763 86.938V93.412V99.886H50.1063H48.9363V87.991V76.096H55.1763H61.4163V87.991ZM89.4963 87.991V99.886H88.3263H87.1562V93.412V86.938L86.0252 85.807C84.4263 84.208 82.0863 84.208 80.4873 85.807L79.3563 86.938V93.412V99.886H78.1863H77.0163V87.991V76.096H83.2563H89.4963V87.991ZM47.3763 90.721V99.886H46.2063H45.0363V93.412V86.938L43.9053 85.807C43.0083 84.91 42.4233 84.676 41.1363 84.676C39.8493 84.676 39.2643 84.91 38.3672 85.807L37.2363 86.938V93.412V99.886H36.0663H34.8963V90.721V81.556H41.1363H47.3763V90.721ZM75.4562 90.721V99.886H74.2863H73.1162V93.412V86.938L71.9853 85.807C71.0882 84.91 70.5033 84.676 69.2163 84.676C67.9292 84.676 67.3442 84.91 66.4473 85.807L65.3162 86.938V93.412V99.886H64.1462H62.9762V90.721V81.556H69.2163H75.4562V90.721ZM103.536 90.721V99.886H102.366H101.196V93.412V86.938L100.065 85.807C99.1683 84.91 98.5833 84.676 97.2963 84.676C96.0093 84.676 95.4243 84.91 94.5273 85.807L93.3963 86.938V93.412V99.886H92.2262H91.0563V90.721V81.556H97.2963H103.536V90.721ZM42.7743 86.899C43.3983 87.445 43.4763 88.225 43.4763 93.724V99.886H41.1363H38.7963V93.763C38.7963 88.615 38.9132 87.562 39.4592 86.938C40.2393 86.08 41.8383 86.041 42.7743 86.899ZM56.8143 86.899C57.4382 87.445 57.5163 88.225 57.5163 93.724V99.886H55.1763H52.8363V93.763C52.8363 88.615 52.9533 87.562 53.4993 86.938C54.2793 86.08 55.8783 86.041 56.8143 86.899ZM70.8543 86.899C71.4783 87.445 71.5563 88.225 71.5563 93.724V99.886H69.2163H66.8763V93.763C66.8763 88.615 66.9933 87.562 67.5392 86.938C68.3193 86.08 69.9183 86.041 70.8543 86.899ZM84.8943 86.899C85.5182 87.445 85.5963 88.225 85.5963 93.724V99.886H83.2563H80.9163V93.763C80.9163 88.615 81.0333 87.562 81.5793 86.938C82.3592 86.08 83.9583 86.041 84.8943 86.899ZM98.9342 86.899C99.5583 87.445 99.6363 88.225 99.6363 93.724V99.886H97.2963H94.9563V93.763C94.9563 88.615 95.0732 87.562 95.6193 86.938C96.3993 86.08 97.9983 86.041 98.9342 86.899Z" fill="#08536B"/>
<circle cx="68.3555" cy="68.2246" r="67" stroke="#08536B"/>
<circle cx="68.3555" cy="68.2246" r="67" stroke="#6C8C91"/>
</svg>
