<svg width="136" height="138" viewBox="0 0 136 138" fill="none" xmlns="http://www.w3.org/2000/svg">
<path d="M66.1192 29.3894C65.5055 29.8444 65.1708 30.8844 65.1708 32.4444C65.1708 34.5894 64.9476 34.9794 62.8833 36.0844C59.9822 37.6444 58.0852 41.0244 57.1368 46.2894C56.6347 49.2144 56.1325 50.5144 55.5188 50.6444C54.2356 50.9694 54.1798 55.3244 55.463 55.3244C56.021 55.3244 56.2441 55.7794 56.1325 56.7544C55.9094 58.6394 54.7935 58.9644 54.403 57.2744C53.9009 55.0644 52.5061 55.8444 51.1113 59.0294C50.386 60.7844 49.6607 62.2144 49.4375 62.3444C48.768 62.6694 48.8796 66.3744 49.5491 66.3744C49.8839 66.3744 50.107 67.9994 50.107 69.9494V73.5244H45.0858H40.0645L38.9487 70.9244C38.335 69.4944 37.4423 68.3244 36.996 68.3244C36.5497 68.3244 35.657 69.4944 35.0433 70.9244C33.6485 74.1744 32.8116 73.7844 32.8116 69.8194C32.8116 67.4144 32.5884 66.8294 31.64 66.5694C30.6357 66.2444 30.5242 65.8544 30.8589 63.1244C31.0821 61.1744 31.0263 59.8744 30.6357 59.5494C30.301 59.3544 30.022 58.6394 30.022 57.9894C30.022 57.3394 29.6315 56.4294 29.1852 55.9744C28.7388 55.5194 28.3483 54.6744 28.3483 54.0244C28.3483 52.7894 26.9535 51.8144 26.0608 52.4644C25.7819 52.6594 25.5587 53.3744 25.5587 54.0894C25.5587 54.7394 25.3355 55.3244 25.0008 55.3244C24.7218 55.3244 23.8849 56.6244 23.2712 58.3144C22.267 60.7194 22.1554 61.5644 22.7133 62.8644C23.6618 65.2694 23.4944 66.2444 22.0996 66.5044L20.8164 66.6994V83.9244V101.149L26.8419 101.344C31.9189 101.474 32.8116 101.344 32.8116 100.499C32.8116 99.6544 34.0948 99.5244 41.7383 99.5244H50.665V101.149V102.774H66.7887H82.9683L83.1357 101.279C83.3031 99.8494 83.4705 99.8494 92.1182 99.6544C99.7616 99.5244 100.877 99.6544 100.877 100.499C100.877 101.344 101.77 101.474 106.903 101.344L112.873 101.149L113.04 84.1194L113.152 67.0894L111.924 66.8944C110.418 66.6344 109.971 64.8144 110.92 62.7344C111.534 61.4994 111.422 60.7844 110.418 58.3144C109.804 56.6894 108.967 55.3244 108.688 55.3244C108.354 55.3244 108.13 54.7394 108.13 54.0894C108.13 52.7894 107.182 52.0744 106.066 52.5294C105.676 52.7244 105.341 53.3744 105.341 54.0244C105.341 54.6094 104.95 55.5194 104.504 55.9744C104.058 56.4294 103.667 57.3394 103.667 57.9894C103.667 58.6394 103.388 59.3544 103.053 59.5494C102.719 59.8744 102.607 61.3044 102.886 63.5144C103.221 66.7644 103.165 67.0244 102.049 67.0244C100.989 67.0244 100.877 67.4144 100.877 70.2744C100.877 74.8894 99.4269 74.4994 97.7531 69.4294C97.1394 67.5444 95.8004 68.1944 94.852 70.9244L93.9035 73.5244L88.8822 73.3944L83.861 73.1994L83.6936 69.7544C83.582 67.7394 83.7494 66.3744 84.0842 66.3744C84.7537 66.3744 84.921 62.6694 84.3073 62.3444C84.0284 62.2144 83.3031 60.7844 82.5778 59.0294C81.2388 55.8444 79.7882 55.0644 79.2861 57.2744C78.8955 59.0944 78.0029 58.8994 78.0029 56.9494C78.0029 55.9744 78.3376 55.3244 78.8397 55.3244C79.7324 55.3244 80.5693 52.5294 79.9556 51.4894C79.7882 51.0994 79.1745 50.7744 78.6166 50.7744C77.7797 50.7744 77.5007 50.0594 77.2218 47.1344C77.0544 45.1844 76.3849 42.3894 75.7712 41.0244C74.7112 38.5544 71.2521 35.1744 69.8015 35.1744C69.3552 35.1744 69.0762 34.2644 69.0762 32.5744C69.0762 29.7144 67.793 28.3494 66.1192 29.3894ZM67.9604 33.5494C67.9604 34.0694 67.5698 34.5244 67.1235 34.5244C66.6772 34.5244 66.2866 34.0694 66.2866 33.5494C66.2866 33.0294 66.6772 32.5744 67.1235 32.5744C67.5698 32.5744 67.9604 33.0294 67.9604 33.5494ZM71.3079 37.4494C73.2606 38.6194 75.1017 41.5444 75.548 44.2094L75.9386 46.2244H67.1793C59.2569 46.2244 58.4758 46.0944 58.4758 45.0544C58.4758 43.2994 60.8748 39.1394 62.716 37.7744C64.6687 36.2144 69.0204 36.0844 71.3079 37.4494ZM76.2175 49.2794C76.0502 50.3194 75.1017 50.4494 66.9561 50.6444C58.1968 50.7744 57.9179 50.7744 57.9179 49.4744C57.9179 48.2394 58.2526 48.1744 67.1793 48.1744C75.6596 48.1744 76.3849 48.2394 76.2175 49.2794ZM78.5608 53.0494C78.5608 53.8944 76.9428 54.0244 67.1235 54.0244C57.3042 54.0244 55.6862 53.8944 55.6862 53.0494C55.6862 52.2044 57.3042 52.0744 67.1235 52.0744C76.9428 52.0744 78.5608 52.2044 78.5608 53.0494ZM60.1495 59.5494C60.1495 63.0594 59.9822 63.7744 59.2011 63.7744C57.1368 63.7744 55.2957 60.0044 56.802 58.8994C57.1368 58.7044 57.36 57.7944 57.36 56.8844C57.36 55.6494 57.6389 55.3244 58.7547 55.3244C60.0937 55.3244 60.1495 55.4544 60.1495 59.5494ZM62.3812 59.5494C62.3812 61.9544 62.158 63.7744 61.8233 63.7744C61.4885 63.7744 61.2654 61.9544 61.2654 59.5494C61.2654 57.1444 61.4885 55.3244 61.8233 55.3244C62.158 55.3244 62.3812 57.1444 62.3812 59.5494ZM65.1708 59.5494C65.1708 62.8644 65.0034 63.7744 64.3339 63.7744C63.6644 63.7744 63.497 62.8644 63.497 59.5494C63.497 56.2344 63.6644 55.3244 64.3339 55.3244C65.0034 55.3244 65.1708 56.2344 65.1708 59.5494ZM67.9604 59.5494C67.9604 62.8644 67.793 63.7744 67.1235 63.7744C66.454 63.7744 66.2866 62.8644 66.2866 59.5494C66.2866 56.2344 66.454 55.3244 67.1235 55.3244C67.793 55.3244 67.9604 56.2344 67.9604 59.5494ZM70.192 59.5494C70.192 61.9544 69.9689 63.7744 69.6341 63.7744C69.2994 63.7744 69.0762 61.9544 69.0762 59.5494C69.0762 57.1444 69.2994 55.3244 69.6341 55.3244C69.9689 55.3244 70.192 57.1444 70.192 59.5494ZM72.4237 59.6144C72.4237 62.2794 72.2005 63.7094 71.8658 63.4494C71.5868 63.2544 71.3079 61.3044 71.3079 59.1594C71.3079 57.0144 71.531 55.3244 71.8658 55.3244C72.2005 55.3244 72.4237 57.2094 72.4237 59.6144ZM77.1102 58.7044C77.3892 60.9144 77.3334 62.2144 76.9428 62.3444C76.6081 62.4744 76.3291 62.9944 76.3291 63.4494C76.3291 63.9694 75.9386 64.1644 75.2133 63.9694C74.2648 63.6444 74.0975 63.0594 74.0975 59.4844C74.0975 55.5194 74.1532 55.3244 75.4365 55.3244C76.6081 55.3244 76.7755 55.7144 77.1102 58.7044ZM28.2367 56.7544C29.5757 58.3144 28.962 59.2244 26.6745 59.2244C24.2755 59.2244 23.9407 58.6394 25.3355 57.0144C26.3956 55.7794 27.344 55.7144 28.2367 56.7544ZM108.354 57.0144C109.748 58.6394 109.414 59.2244 107.015 59.2244C104.727 59.2244 104.113 58.3144 105.452 56.7544C106.345 55.7144 107.293 55.7794 108.354 57.0144ZM55.0167 61.3044C55.1841 62.2794 54.7935 62.4744 53.2314 62.4744C51.0555 62.4744 51.0555 62.4744 51.5576 60.8494C52.0597 59.4194 54.7935 59.8094 55.0167 61.3044ZM82.3546 61.3044C82.522 62.2794 82.1315 62.4744 80.5693 62.4744C78.3934 62.4744 78.3934 62.4744 78.8955 60.8494C79.3977 59.4194 82.1315 59.8094 82.3546 61.3044ZM28.7946 61.6294C27.9577 61.7594 26.4514 61.7594 25.4471 61.6294C24.4429 61.4994 25.1124 61.3694 26.9535 61.3694C28.7946 61.3694 29.6315 61.4994 28.7946 61.6294ZM108.577 61.6294C107.74 61.7594 106.233 61.7594 105.229 61.6294C104.225 61.4994 104.894 61.3694 106.736 61.3694C108.577 61.3694 109.414 61.4994 108.577 61.6294ZM29.3525 64.8794C29.5199 66.2444 29.2967 66.3744 27.0093 66.3744C24.6102 66.3744 24.4429 66.2444 24.4429 64.6844C24.4429 63.1894 24.6102 63.0594 26.8419 63.2544C28.7946 63.3844 29.2409 63.7094 29.3525 64.8794ZM109.246 65.0744C109.246 66.8944 109.135 67.0244 107.015 67.0244C105.508 67.0244 104.616 66.6994 104.448 66.0494C103.779 64.0994 104.671 63.1244 107.015 63.1244C109.135 63.1244 109.246 63.2544 109.246 65.0744ZM56.2441 64.4244C56.2441 64.7494 55.0167 65.0744 53.5103 65.0744C51.9482 65.0744 50.5534 64.7494 50.386 64.4244C50.1628 64.0344 51.2229 63.7744 53.1198 63.7744C54.8493 63.7744 56.2441 64.0344 56.2441 64.4244ZM83.582 64.4244C83.582 64.7494 82.1872 65.0744 80.5135 65.0744C78.8397 65.0744 77.445 64.7494 77.445 64.4244C77.445 64.0344 78.8397 63.7744 80.5135 63.7744C82.1872 63.7744 83.582 64.0344 83.582 64.4244ZM74.6554 67.6744V70.2744H66.8445H59.0337V67.6744V65.0744H66.8445H74.6554V67.6744ZM77.445 68.3894C77.445 69.6244 77.166 70.2744 76.6081 70.2744C76.0502 70.2744 75.7712 69.5594 75.7712 67.9994C75.7712 66.3094 75.9386 65.8544 76.6081 66.1144C77.1102 66.3744 77.445 67.3494 77.445 68.3894ZM55.1283 68.3244C55.1283 70.1444 54.9609 70.2744 53.1756 70.2744C51.3902 70.2744 51.2229 70.1444 51.2229 68.3244C51.2229 66.5044 51.3902 66.3744 53.1756 66.3744C54.9609 66.3744 55.1283 66.5044 55.1283 68.3244ZM57.36 68.3894C57.36 69.4944 57.1368 70.2094 56.802 69.9494C56.5231 69.7544 56.2441 68.8444 56.2441 67.9344C56.2441 67.0894 56.5231 66.3744 56.802 66.3744C57.1368 66.3744 57.36 67.2844 57.36 68.3894ZM82.4662 68.3244C82.4662 70.1444 82.2988 70.2744 80.5135 70.2744C78.7282 70.2744 78.5608 70.1444 78.5608 68.3244C78.5608 66.5044 78.7282 66.3744 80.5135 66.3744C82.2988 66.3744 82.4662 66.5044 82.4662 68.3244ZM23.327 69.6894C23.327 71.2494 22.0438 71.0544 21.7649 69.4294C21.6533 68.7794 21.9322 68.3244 22.4344 68.3244C22.9923 68.3244 23.327 68.9094 23.327 69.6894ZM29.2967 68.7144C29.1294 68.9094 28.6272 68.9744 28.2367 68.7794C27.7904 68.5844 27.9577 68.3894 28.5714 68.3894C29.1852 68.3244 29.5199 68.5194 29.2967 68.7144ZM31.6958 69.6244C31.6958 70.3394 31.4726 70.9244 31.1379 70.9244C30.8589 70.9244 30.5799 70.3394 30.5799 69.6244C30.5799 68.9094 30.8589 68.3244 31.1379 68.3244C31.4726 68.3244 31.6958 68.9094 31.6958 69.6244ZM103.109 69.6244C103.109 70.3394 102.886 70.9244 102.551 70.9244C102.272 70.9244 101.993 70.3394 101.993 69.6244C101.993 68.9094 102.272 68.3244 102.551 68.3244C102.886 68.3244 103.109 68.9094 103.109 69.6244ZM105.731 68.7144C105.564 68.9094 105.062 68.9744 104.671 68.7794C104.225 68.5844 104.392 68.3894 105.006 68.3894C105.62 68.3244 105.954 68.5194 105.731 68.7144ZM109.079 68.7144C108.911 68.9094 108.409 68.9744 108.019 68.7794C107.572 68.5844 107.74 68.3894 108.354 68.3894C108.967 68.3244 109.302 68.5194 109.079 68.7144ZM112.036 69.6244C112.036 70.3394 111.645 70.9244 111.199 70.9244C110.753 70.9244 110.362 70.3394 110.362 69.6244C110.362 68.9094 110.753 68.3244 111.199 68.3244C111.645 68.3244 112.036 68.9094 112.036 69.6244ZM28.3483 70.6644C28.3483 70.7944 27.5114 70.9244 26.5629 70.8594C25.0566 70.8594 24.945 70.7294 25.8377 70.3394C26.8419 69.8194 28.3483 70.0794 28.3483 70.6644ZM108.019 70.7294C107.461 70.8594 106.568 70.8594 106.066 70.7294C105.508 70.5344 105.954 70.4044 107.015 70.4044C108.075 70.4044 108.521 70.5344 108.019 70.7294ZM38.3908 72.5494C38.3908 73.1344 37.8887 73.5244 36.996 73.5244C35.657 73.5244 35.2107 72.8744 35.9917 72.0294C36.6612 71.1844 38.3908 71.5744 38.3908 72.5494ZM57.36 72.9394C57.36 74.1094 57.081 74.2394 54.4588 74.0444C52.1713 73.9144 51.446 73.5894 51.3345 72.6794C51.1671 71.7694 51.6134 71.5744 54.2356 71.5744C57.0252 71.5744 57.36 71.7044 57.36 72.9394ZM74.6554 72.8744C74.6554 74.1094 74.2648 74.1744 66.8445 74.1744C59.4242 74.1744 59.0337 74.1094 59.0337 72.8744C59.0337 71.6394 59.4242 71.5744 66.8445 71.5744C74.2648 71.5744 74.6554 71.6394 74.6554 72.8744ZM82.3546 72.6794C82.1872 73.6544 81.5735 73.8494 79.1187 73.8494C76.6639 73.8494 76.0502 73.6544 75.8828 72.6794C75.7154 71.7044 76.1617 71.5744 79.1187 71.5744C82.0757 71.5744 82.522 71.7044 82.3546 72.6794ZM97.9763 72.6794C98.0879 73.1994 97.6415 73.5244 96.7489 73.5244C95.3541 73.5244 94.9077 72.8744 95.6888 71.9644C96.2467 71.3144 97.6973 71.7694 97.9763 72.6794ZM23.327 73.9144C23.327 75.9294 22.0438 75.7344 21.7649 73.6544C21.6533 72.6794 21.8764 72.2244 22.4344 72.2244C23.0481 72.2244 23.327 72.8094 23.327 73.9144ZM29.3525 73.6544C29.2409 74.8894 28.7946 75.2144 26.8419 75.3444C24.6102 75.5394 24.4429 75.4094 24.4429 73.9144C24.4429 72.3544 24.6102 72.2244 27.0093 72.2244C29.2967 72.2244 29.5199 72.3544 29.3525 73.6544ZM31.6958 73.8494C31.6958 74.7594 31.4726 75.4744 31.1379 75.4744C30.8589 75.4744 30.5799 74.7594 30.5799 73.8494C30.5799 72.9394 30.8589 72.2244 31.1379 72.2244C31.4726 72.2244 31.6958 72.9394 31.6958 73.8494ZM103.109 73.8494C103.109 74.7594 102.886 75.4744 102.551 75.4744C102.272 75.4744 101.993 74.7594 101.993 73.8494C101.993 72.9394 102.272 72.2244 102.551 72.2244C102.886 72.2244 103.109 72.9394 103.109 73.8494ZM109.246 73.8494C109.246 75.3444 109.023 75.4744 106.736 75.4744C104.671 75.4744 104.225 75.2794 104.225 74.3044C104.225 72.5494 104.727 72.2244 107.126 72.2244C109.023 72.2244 109.246 72.4194 109.246 73.8494ZM111.924 74.0444C112.036 75.0194 111.813 75.4744 111.255 75.4744C110.641 75.4744 110.362 74.8894 110.362 73.7844C110.362 71.7694 111.645 71.9644 111.924 74.0444ZM46.09 75.2794C43.7468 75.4094 39.7298 75.4094 37.1634 75.2794C34.5969 75.2144 36.5497 75.0844 41.4593 75.0844C46.369 75.0844 48.4333 75.2144 46.09 75.2794ZM96.8605 75.2794C94.5172 75.4094 90.5002 75.4094 87.9338 75.2794C85.3674 75.2144 87.3201 75.0844 92.2297 75.0844C97.1394 75.0844 99.2037 75.2144 96.8605 75.2794ZM57.3042 77.5544C57.3042 79.5694 57.2484 79.5694 56.7462 78.2044C56.4115 77.0994 55.9094 76.7744 55.0167 76.9044C53.9009 77.0994 53.7335 77.5544 53.5661 80.4794C53.3987 83.9244 53.3987 83.9244 55.0725 83.9244C55.9652 83.9244 56.8578 83.5344 56.9694 83.0794C57.1368 82.6894 57.2484 83.9244 57.3042 85.8744C57.3042 88.7344 57.1926 89.1244 56.7462 87.9544C56.4115 86.8494 55.9094 86.5244 55.0167 86.6544C53.9009 86.8494 53.7335 87.3044 53.5661 90.2294C53.3987 93.6744 53.3987 93.6744 55.0725 93.6744C55.9652 93.6744 56.8578 93.2844 56.9694 92.8294C57.1368 92.4394 57.3042 93.0244 57.3042 94.1294C57.36 96.2744 57.36 96.2744 54.5704 96.2744H51.7808V85.8744V75.4744H54.5704C57.36 75.4744 57.36 75.4744 57.3042 77.5544ZM74.6554 85.8744C74.6554 95.8194 74.5996 96.2744 73.5395 96.2744C72.4795 96.2744 72.4237 95.8194 72.4237 88.5394C72.4237 81.1944 72.3679 80.6744 71.0289 78.8544C69.411 76.6444 67.514 75.9944 64.836 76.9044C61.9349 77.8144 61.2654 79.9594 61.2654 88.7994C61.2654 95.8194 61.2096 96.2744 60.1495 96.2744C59.0895 96.2744 59.0337 95.8194 59.0337 85.8744V75.4744H66.8445H74.6554V85.8744ZM81.9083 85.8744V96.2744H78.8397H75.7712V85.8744V75.4744H78.8397H81.9083V85.8744ZM23.327 80.9994C23.327 84.3144 23.1597 85.2244 22.4902 85.2244C21.8207 85.2244 21.6533 84.3144 21.6533 80.9994C21.6533 77.6844 21.8207 76.7744 22.4902 76.7744C23.1597 76.7744 23.327 77.6844 23.327 80.9994ZM29.1852 80.9994V84.8994L26.8419 85.0944L24.4429 85.2894V80.9994V76.7094L26.8419 76.9044L29.1852 77.0994V80.9994ZM31.6958 80.9994C31.6958 83.4044 31.4726 85.2244 31.1379 85.2244C30.8031 85.2244 30.5799 83.4044 30.5799 80.9994C30.5799 78.5944 30.8031 76.7744 31.1379 76.7744C31.4726 76.7744 31.6958 78.5944 31.6958 80.9994ZM50.107 80.9994V85.2244H41.4593H32.8116V80.9994V76.7744H41.4593H50.107V80.9994ZM100.877 80.9994V85.2244H91.9508H83.0241V81.4544C83.0241 79.3744 83.1915 77.4244 83.4147 77.2294C83.582 76.9694 87.599 76.7744 92.3413 76.7744H100.877V80.9994ZM103.109 80.9994C103.109 83.4044 102.886 85.2244 102.551 85.2244C102.216 85.2244 101.993 83.4044 101.993 80.9994C101.993 78.5944 102.216 76.7744 102.551 76.7744C102.886 76.7744 103.109 78.5944 103.109 80.9994ZM109.246 80.9994V85.2244H106.736H104.225V81.4544C104.225 79.3744 104.392 77.4244 104.616 77.2294C104.783 76.9694 105.954 76.7744 107.126 76.7744H109.246V80.9994ZM112.036 81.3894C112.036 84.3794 111.868 85.2244 111.199 85.2244C110.529 85.2244 110.362 84.3794 110.362 81.4544C110.362 79.3744 110.529 77.4244 110.697 77.2294C111.534 76.2544 112.036 77.7494 112.036 81.3894ZM55.6862 79.3744C55.6862 80.0894 55.463 80.6744 55.1283 80.6744C54.8493 80.6744 54.5704 80.0894 54.5704 79.3744C54.5704 78.6594 54.8493 78.0744 55.1283 78.0744C55.463 78.0744 55.6862 78.6594 55.6862 79.3744ZM70.1362 79.7644C71.1405 81.2594 71.3079 82.4294 71.3079 88.5394V95.6244H66.8445H62.3812V88.7344C62.3812 79.7644 63.1065 78.0744 66.9561 78.0744C68.5183 78.0744 69.2994 78.4644 70.1362 79.7644ZM23.327 91.0744V95.6894L26.8419 95.4944L30.301 95.2994L30.4684 90.8794C30.6915 84.8994 31.6958 85.3544 31.6958 91.3994V96.3394L26.8419 96.1444L21.9322 95.9494L21.7649 92.1144C21.5975 88.0194 21.8207 86.5244 22.7691 86.5244C23.1039 86.5244 23.327 88.4094 23.327 91.0744ZM29.1852 90.4244V93.9994L26.8419 94.1944L24.4429 94.3894V90.4244V86.4594L26.8419 86.6544L29.1852 86.8494V90.4244ZM50.107 90.7494V94.9744H41.4593H32.8116V90.7494V86.5244H41.4593H50.107V90.7494ZM100.766 90.8794L100.933 94.9744H91.9508H83.0241V91.2044C83.0241 89.1244 83.1915 87.1744 83.4147 86.9144C83.6378 86.7194 87.599 86.5894 92.174 86.6544L100.598 86.8494L100.766 90.8794ZM103.109 91.0744V95.6244H106.736H110.306L110.474 91.2044C110.697 85.4194 111.701 85.6144 111.924 91.5294L112.092 96.2744H107.015H101.993V91.3994C101.993 88.6044 102.216 86.5244 102.551 86.5244C102.886 86.5244 103.109 88.4744 103.109 91.0744ZM109.246 90.4244V94.3244H106.736H104.225V90.8794C104.225 88.9294 104.392 87.1744 104.616 86.9794C104.783 86.7194 105.954 86.5244 107.126 86.5244H109.246V90.4244ZM55.6862 89.1244C55.6862 89.8394 55.463 90.4244 55.1283 90.4244C54.8493 90.4244 54.5704 89.8394 54.5704 89.1244C54.5704 88.4094 54.8493 87.8244 55.1283 87.8244C55.463 87.8244 55.6862 88.4094 55.6862 89.1244ZM50.107 97.2494C50.107 98.0944 48.768 98.2244 41.4593 98.2244C34.1506 98.2244 32.8116 98.0944 32.8116 97.2494C32.8116 96.4044 34.1506 96.2744 41.4593 96.2744C48.768 96.2744 50.107 96.4044 50.107 97.2494ZM100.877 97.2494C100.877 98.0944 99.5385 98.2244 92.2855 98.2244C84.4189 98.2244 82.4104 97.8994 83.4147 96.6644C83.582 96.4694 87.599 96.2744 92.3413 96.2744C99.5385 96.2744 100.877 96.4044 100.877 97.2494ZM31.6958 98.5494C31.6958 99.3294 30.7473 99.5244 26.6745 99.5244C22.6017 99.5244 21.6533 99.3294 21.6533 98.5494C21.6533 97.7694 22.6017 97.5744 26.6745 97.5744C30.7473 97.5744 31.6958 97.7694 31.6958 98.5494ZM111.757 98.8744C111.757 99.6544 110.753 99.9144 106.903 100.044C102.272 100.239 101.993 100.174 101.993 98.8744C101.993 97.5744 102.272 97.5094 106.903 97.7044C110.753 97.8344 111.757 98.0944 111.757 98.8744ZM81.9083 99.5244C81.9083 100.824 81.5177 100.824 66.8445 100.824C52.1713 100.824 51.7808 100.824 51.7808 99.5244C51.7808 98.2244 52.1713 98.2244 66.8445 98.2244C81.5177 98.2244 81.9083 98.2244 81.9083 99.5244Z" fill="#08536B"/>
<path d="M77.2812 77.1648C77.058 77.4248 76.8906 79.0498 76.8906 80.8048C76.8906 83.8598 76.9464 83.9248 78.6202 83.9248H80.2939L80.1265 80.4798C79.9592 77.6198 79.7918 77.0998 78.8433 76.9048C78.1738 76.7748 77.5043 76.9048 77.2812 77.1648ZM79.1223 79.3748C79.1223 80.0898 78.8991 80.6748 78.5644 80.6748C78.2854 80.6748 78.0065 80.0898 78.0065 79.3748C78.0065 78.6598 78.2854 78.0748 78.5644 78.0748C78.8991 78.0748 79.1223 78.6598 79.1223 79.3748Z" fill="#08536B"/>
<path d="M77.2812 86.9148C77.058 87.1748 76.8906 88.7998 76.8906 90.5548C76.8906 93.6098 76.9464 93.6748 78.6202 93.6748H80.2939L80.1265 90.2298C79.9592 87.3698 79.7918 86.8498 78.8433 86.6548C78.1738 86.5248 77.5043 86.6548 77.2812 86.9148ZM79.1223 89.1248C79.1223 89.8398 78.8991 90.4248 78.5644 90.4248C78.2854 90.4248 78.0065 89.8398 78.0065 89.1248C78.0065 88.4098 78.2854 87.8248 78.5644 87.8248C78.8991 87.8248 79.1223 88.4098 79.1223 89.1248Z" fill="#08536B"/>
<path d="M25.0039 81.3248C25.0039 83.7948 25.1155 83.9248 26.6777 83.9248C28.2398 83.9248 28.3514 83.7948 28.3514 81.3248C28.3514 78.8548 28.2398 78.7248 26.6777 78.7248C25.1155 78.7248 25.0039 78.8548 25.0039 81.3248ZM27.2356 81.3248C27.2356 82.0398 27.0124 82.6248 26.6777 82.6248C26.3987 82.6248 26.1197 82.0398 26.1197 81.3248C26.1197 80.6098 26.3987 80.0248 26.6777 80.0248C27.0124 80.0248 27.2356 80.6098 27.2356 81.3248Z" fill="#08536B"/>
<path d="M34.599 81.1293C34.7664 83.2743 34.9895 83.5993 36.3285 83.7943C37.7791 83.9893 37.8349 83.8593 37.8349 81.3893C37.8349 78.8543 37.7791 78.7243 36.1054 78.7243C34.4874 78.7243 34.4316 78.8543 34.599 81.1293ZM36.5517 82.1043C36.3843 82.5593 36.2727 82.2343 36.2727 81.3243C36.2727 80.4143 36.3843 80.0893 36.5517 80.4793C36.6633 80.9343 36.6633 81.7143 36.5517 82.1043Z" fill="#08536B"/>
<path d="M40.0664 81.3248C40.0664 83.7948 40.178 83.9248 41.7402 83.9248C43.3023 83.9248 43.4139 83.7948 43.4139 81.3248C43.4139 78.8548 43.3023 78.7248 41.7402 78.7248C40.178 78.7248 40.0664 78.8548 40.0664 81.3248ZM42.2981 81.3248C42.2981 82.0398 42.0749 82.6248 41.7402 82.6248C41.4612 82.6248 41.1822 82.0398 41.1822 81.3248C41.1822 80.6098 41.4612 80.0248 41.7402 80.0248C42.0749 80.0248 42.2981 80.6098 42.2981 81.3248Z" fill="#08536B"/>
<path d="M45.0859 81.3248C45.0859 83.7948 45.1975 83.9248 46.7597 83.9248C48.3219 83.9248 48.4334 83.7948 48.4334 81.3248C48.4334 78.8548 48.3219 78.7248 46.7597 78.7248C45.1975 78.7248 45.0859 78.8548 45.0859 81.3248ZM47.3176 81.3248C47.3176 82.0398 47.0944 82.6248 46.7597 82.6248C46.4807 82.6248 46.2018 82.0398 46.2018 81.3248C46.2018 80.6098 46.4807 80.0248 46.7597 80.0248C47.0944 80.0248 47.3176 80.6098 47.3176 81.3248Z" fill="#08536B"/>
<path d="M84.6992 81.3248C84.6992 83.7948 84.8108 83.9248 86.373 83.9248C87.9351 83.9248 88.0467 83.7948 88.0467 81.3248C88.0467 78.8548 87.9351 78.7248 86.373 78.7248C84.8108 78.7248 84.6992 78.8548 84.6992 81.3248ZM86.9309 81.3248C86.9309 82.0398 86.7077 82.6248 86.373 82.6248C86.094 82.6248 85.8151 82.0398 85.8151 81.3248C85.8151 80.6098 86.094 80.0248 86.373 80.0248C86.7077 80.0248 86.9309 80.6098 86.9309 81.3248Z" fill="#08536B"/>
<path d="M90.2773 81.3248C90.2773 83.7948 90.3889 83.9248 91.9511 83.9248C93.5133 83.9248 93.6248 83.7948 93.6248 81.3248C93.6248 78.8548 93.5133 78.7248 91.9511 78.7248C90.3889 78.7248 90.2773 78.8548 90.2773 81.3248ZM92.509 81.3248C92.509 82.0398 92.2858 82.6248 91.9511 82.6248C91.6721 82.6248 91.3932 82.0398 91.3932 81.3248C91.3932 80.6098 91.6721 80.0248 91.9511 80.0248C92.2858 80.0248 92.509 80.6098 92.509 81.3248Z" fill="#08536B"/>
<path d="M95.3008 81.3248C95.3008 83.7948 95.4124 83.9248 96.9745 83.9248C98.5367 83.9248 98.6483 83.7948 98.6483 81.3248C98.6483 78.8548 98.5367 78.7248 96.9745 78.7248C95.4124 78.7248 95.3008 78.8548 95.3008 81.3248ZM97.5324 81.3248C97.5324 82.0398 97.3093 82.6248 96.9745 82.6248C96.6956 82.6248 96.4166 82.0398 96.4166 81.3248C96.4166 80.6098 96.6956 80.0248 96.9745 80.0248C97.3093 80.0248 97.5324 80.6098 97.5324 81.3248Z" fill="#08536B"/>
<path d="M105.344 81.3248C105.344 83.7948 105.455 83.9248 107.018 83.9248C108.58 83.9248 108.691 83.7948 108.691 81.3248C108.691 78.8548 108.58 78.7248 107.018 78.7248C105.455 78.7248 105.344 78.8548 105.344 81.3248ZM107.575 81.3248C107.575 82.0398 107.352 82.6248 107.018 82.6248C106.739 82.6248 106.46 82.0398 106.46 81.3248C106.46 80.6098 106.739 80.0248 107.018 80.0248C107.352 80.0248 107.575 80.6098 107.575 81.3248Z" fill="#08536B"/>
<path d="M25.2243 88.7347C25.0569 89.2547 25.0012 90.4897 25.1127 91.5297C25.2243 92.9597 25.6149 93.4147 26.8423 93.5447C28.2929 93.7397 28.3487 93.6747 28.3487 90.8147C28.3487 88.0197 28.2371 87.8247 26.9539 87.8247C26.1728 87.8247 25.3917 88.2147 25.2243 88.7347ZM27.0097 91.5297C26.3959 92.2447 25.9496 91.1397 26.3959 89.9697C26.8423 88.8647 26.8423 88.8647 27.0654 89.9697C27.2328 90.6197 27.177 91.3347 27.0097 91.5297Z" fill="#08536B"/>
<path d="M40.0664 90.8147C40.0664 93.6747 40.1222 93.7397 41.6286 93.5447C42.9676 93.3497 43.1349 93.0897 43.3023 90.5547C43.4697 87.8897 43.4139 87.8247 41.7959 87.8247C40.1222 87.8247 40.0664 87.8897 40.0664 90.8147ZM42.2981 90.8147C42.2981 91.3347 42.0749 91.7247 41.7402 91.7247C41.4612 91.7247 41.1822 91.1397 41.1822 90.3597C41.1822 89.6447 41.4612 89.2547 41.7402 89.4497C42.0749 89.6447 42.2981 90.2947 42.2981 90.8147Z" fill="#08536B"/>
<path d="M90.2773 90.8147C90.2773 93.6747 90.3331 93.7397 91.8395 93.5447C93.1785 93.3497 93.3459 93.0897 93.5133 90.5547C93.6806 87.8897 93.6248 87.8247 92.0069 87.8247C90.3331 87.8247 90.2773 87.8897 90.2773 90.8147ZM92.509 90.8147C92.509 91.3347 92.2858 91.7247 91.9511 91.7247C91.6721 91.7247 91.3932 91.1397 91.3932 90.3597C91.3932 89.6447 91.6721 89.2547 91.9511 89.4497C92.2858 89.6447 92.509 90.2947 92.509 90.8147Z" fill="#08536B"/>
<path d="M105.344 90.8147C105.344 93.6747 105.4 93.7397 106.906 93.5447C108.245 93.3497 108.412 93.0897 108.58 90.5547C108.747 87.8897 108.691 87.8247 107.073 87.8247C105.4 87.8247 105.344 87.8897 105.344 90.8147ZM107.575 90.4247C107.575 91.1397 107.352 91.7247 107.018 91.7247C106.739 91.7247 106.46 91.1397 106.46 90.4247C106.46 89.7097 106.739 89.1247 107.018 89.1247C107.352 89.1247 107.575 89.7097 107.575 90.4247Z" fill="#08536B"/>
<circle cx="67.6562" cy="70.2246" r="67" stroke="#6C8C91"/>
</svg>
