<svg width="188" height="21" viewBox="0 0 188 21" fill="none" xmlns="http://www.w3.org/2000/svg">
<g clip-path="url(#clip0_5_11789)">
<path d="M0.15625 0.300781V19.0076H4.58487V15.8317L8.0477 11.6943L13.0768 19.0076H18.4432L10.9157 8.29161L17.6258 0.300781H12.6457L4.58487 9.86346V0.300781H0.15625Z" fill="white"/>
<path d="M50.0813 19.0076V13.1569L50.0967 13.1303L57.4871 0.300781H52.5588L47.881 8.73671L43.1473 0.300781H38.3281L45.5673 13.2157V19.0076H50.0813Z" fill="white"/>
<path d="M77.0864 9.65491C77.0864 4.05895 72.9643 0.300781 66.8281 0.300781H59.4531V19.009H66.8281C72.9643 19.009 77.0864 15.2495 77.0864 9.65631V9.65491ZM66.6587 15.2005H63.8831V4.10934H66.6587C70.2853 4.10934 72.6284 6.28586 72.6284 9.65631C72.6284 13.0268 70.2853 15.2019 66.6587 15.2019V15.2005Z" fill="white"/>
<path d="M94.1111 4.07994V0.300781H79.6719V19.0076H94.1965V15.2299H84.1019V11.4311H93.2909V7.8787H84.1019V4.07994H94.1111Z" fill="white"/>
<path d="M119.104 19.0076V0.300781H114.741L108.31 12.1632L101.878 0.300781H97.4844V19.0076H101.774V9.14962L106.939 19.0076H109.68L114.817 9.20561V19.0076H119.104Z" fill="white"/>
<path d="M135.254 15.5602L136.582 19.009H141.301L133.483 0.300781H128.862L121.043 19.0076H125.789L127.119 15.5588H135.253L135.254 15.5602ZM131.187 5.11851L133.791 11.7796H128.612L131.187 5.11851Z" fill="white"/>
<path d="M157.427 19.0076H161.101V0.300781H156.699V11.8132L146.944 0.300781H143.242V19.0076H147.672V7.84371L157.427 19.0076Z" fill="white"/>
<path d="M35.4592 7.87695H25.8125V11.4308H35.4592V7.87695Z" fill="white"/>
<path d="M35.6593 15.2285H25.8125V19.0077H35.6593V15.2285Z" fill="white"/>
<path d="M24.4036 7.87695H21.1367V11.428H24.4036V7.87695Z" fill="white"/>
<path d="M24.4036 0.300781H21.1367V4.08414H24.4036V0.300781Z" fill="white"/>
<path d="M35.6593 0.300781H25.8125V4.07994H35.6593V0.300781Z" fill="white"/>
<path d="M24.4036 15.2227H21.1367V19.006H24.4036V15.2227Z" fill="white"/>
<path d="M172.431 20.1386L172.449 20.147L172.432 18.34V5.12831L168.79 3.60965L175.864 4.10794V18.3638C179.664 17.0635 182.021 13.8848 182.021 9.65491C182.02 4.06035 177.898 0.300781 171.762 0.300781H164.387V16.6744H164.405L164.387 16.6772L172.431 20.1386ZM170.447 10.6501C170.871 10.6501 171.214 10.993 171.214 11.4171C171.214 11.8412 170.871 12.1841 170.447 12.1841C170.023 12.1841 169.68 11.8412 169.68 11.4171C169.68 10.993 170.023 10.6501 170.447 10.6501Z" fill="white"/>
<path d="M170.447 12.1825C170.87 12.1825 171.214 11.8391 171.214 11.4155C171.214 10.9918 170.87 10.6484 170.447 10.6484C170.023 10.6484 169.68 10.9918 169.68 11.4155C169.68 11.8391 170.023 12.1825 170.447 12.1825Z" fill="white"/>
<path d="M184.834 20.1487C184.4 20.1487 184.009 20.0451 183.656 19.8379C183.305 19.6308 183.025 19.3522 182.816 18.9995C182.607 18.6482 182.504 18.2563 182.504 17.8266C182.504 17.3969 182.607 17.005 182.816 16.6508C183.025 16.2981 183.305 16.0168 183.656 15.8082C184.007 15.5997 184.4 15.4961 184.834 15.4961C185.268 15.4961 185.65 15.5997 186.002 15.8082C186.353 16.0168 186.633 16.2981 186.842 16.6508C187.05 17.005 187.154 17.3955 187.154 17.8266C187.154 18.2577 187.049 18.6482 186.842 18.9995C186.633 19.3508 186.353 19.6308 186.002 19.8379C185.65 20.0451 185.26 20.1487 184.834 20.1487ZM184.834 19.6882C185.194 19.6882 185.512 19.6112 185.788 19.4586C186.063 19.3047 186.277 19.0891 186.433 18.8106C186.588 18.532 186.665 18.2045 186.665 17.828C186.665 17.4515 186.588 17.1225 186.433 16.8426C186.277 16.5627 186.063 16.3443 185.788 16.1903C185.513 16.035 185.196 15.958 184.834 15.958C184.473 15.958 184.146 16.035 183.869 16.1903C183.591 16.3457 183.377 16.5627 183.226 16.8426C183.075 17.1225 182.998 17.4515 182.998 17.828C182.998 18.2045 183.074 18.532 183.226 18.8106C183.377 19.0891 183.591 19.3047 183.869 19.4586C184.146 19.6126 184.468 19.6882 184.834 19.6882ZM183.939 18.9925V16.6872H184.984C185.237 16.6872 185.433 16.7362 185.572 16.8342C185.711 16.9322 185.779 17.0805 185.779 17.2765C185.779 17.4501 185.729 17.5844 185.629 17.681C185.529 17.7776 185.419 17.849 185.299 17.8966L185.744 18.9925H185.279L184.895 17.9372H184.374V18.9925H183.939ZM184.374 17.5914H184.934C185.044 17.5914 185.138 17.5718 185.217 17.5312C185.295 17.4907 185.334 17.4179 185.334 17.3115C185.334 17.2317 185.303 17.1631 185.242 17.1057C185.18 17.0497 185.068 17.0204 184.904 17.0204H184.374V17.59V17.5914Z" fill="white"/>
</g>
<defs>
<clipPath id="clip0_5_11789">
<rect width="187" height="19.8476" fill="white" transform="translate(0.15625 0.300781)"/>
</clipPath>
</defs>
</svg>
