<svg version="1.2" xmlns="http://www.w3.org/2000/svg" viewBox="0 0 55 62" width="55" height="62"><style>.a{fill:#08536b}</style><path fill-rule="evenodd" class="a" d="m40.7 31.6q-0.3-0.6-0.5-1.2c-0.4-1.3 0.2-2.6 1.5-3.1q1.5-0.7 3.1-1.2c1.4-0.5 2.7 0.1 3.2 1.4q3.2 7.9 6.3 15.9c0.5 1.2-0.1 2.6-1.4 3.1q-1.5 0.6-3 1.1c-1.5 0.6-2.8 0.1-3.5-1.5q0-0.1-0.2-0.4c-0.6 0.3-1.3 0.6-1.9 0.9q-0.1 0-0.2 0.1-0.1 0.1-0.1 0.3c-0.1 1.7-0.7 2.5-2.4 3.3 0.2 1.1 0.1 2.1-0.7 3-0.7 0.9-1.7 1.2-2.8 1.2-0.1 1-0.4 1.9-1.2 2.6q-0.6 0.4-1.3 0.6-0.7 0.2-1.4 0.2c-0.1 0.3-0.2 0.6-0.2 0.8-0.7 2.1-3 3-5 1.9-0.5-0.3-0.7-0.3-1.2 0.1q-0.5 0.5-1.3 0.7-0.7 0.2-1.4 0.1-0.7-0.1-1.4-0.4-0.6-0.4-1-1.1c-0.3-0.4-0.5-0.4-0.9-0.3-1.4 0.2-2.5-0.2-3.4-1.3q-0.1-0.2-0.3-0.4c-3.1 1-5.1-1.1-5-3.5q-0.2 0-0.5-0.1c-2.4-0.4-3.6-2.8-2.4-4.9 0.5-0.9 0.7-1.7 0.5-2.8-0.3-0.9-0.6-1.6-1.6-1.8q-0.4-0.1-0.7-0.3-0.2 0.3-0.3 0.6c-0.7 1.3-2 1.8-3.3 1.2q-1.6-0.6-3.1-1.3c-1.3-0.6-1.8-2-1.3-3.2q3.5-7.8 7-15.5c0.6-1.3 2-1.8 3.3-1.3q1.5 0.6 3 1.3c1.4 0.6 1.9 1.9 1.3 3.3q-0.2 0.5-0.4 1c1.5 0.8 3 1.6 4.9 1.1q1.6-0.5 3.2-0.6c1.4-0.2 2.7 0.2 3.9 0.8q0.2 0 0.4 0 0.1 0 0.3 0c2.5-1.4 5-1.4 7.6-0.4q1.1 0.4 2.3 0.8 0.5 0.3 1.1 0.2 0.6 0 1.1-0.4c0.4-0.2 0.8-0.4 1.3-0.6zm-14.6 20.6q2.2-0.4 3.6 1.1 0.1 0.1 0.3 0.2 1.9 1.1 3.8 2.1c0.8 0.5 1.6 0.3 2-0.4 0.4-0.7 0.2-1.5-0.7-1.9q-2-1.1-4-2.3-0.9-0.5-1.9-1.1c-0.4-0.2-0.6-0.6-0.4-1 0.2-0.3 0.5-0.6 0.9-0.7 0.2-0.1 0.6 0.1 0.8 0.2q3.4 1.9 6.8 3.8 0.3 0.1 0.6 0.2 0.3 0.2 0.6 0.1 0.4 0 0.6-0.2 0.3-0.2 0.5-0.5 0.1-0.3 0.1-0.7c0-0.6-0.4-0.9-0.9-1.2q-2.7-1.5-5.3-2.9c-0.7-0.4-0.9-1-0.6-1.5 0.3-0.5 0.9-0.6 1.6-0.3q0.9 0.6 1.9 1.1 1.8 1 3.5 1.9 0.3 0.2 0.5 0.2 0.3 0.1 0.6 0 0.2-0.1 0.4-0.2 0.3-0.2 0.4-0.4c0.4-0.6 0.2-1.4-0.5-1.9q-0.2-0.1-0.5-0.2c-2.4-1.4-4.9-2.8-7.4-4.2q-0.6-0.4-1.4-0.5-0.7-0.1-1.4 0.1-0.8 0.2-1.6 0.5c-1.2 0.5-2.5 1-3.8 1.4-2.8 0.8-5.2 0.1-7.1-2.2q-1.1-1.3 0.4-2.2c1-0.6 2-1.2 2.9-1.9 1.3-1 2.5-2.1 3.7-3.1l-0.1-0.2c-0.6-0.1-1.2-0.3-1.8-0.2q-1.8 0.1-3.5 0.5c-1.5 0.3-3 0.3-4.4-0.5-0.5-0.2-1-0.4-1.5-0.7l-4.6 10.3c1.5 0.5 3 1 3.3 2.9 1.1-0.8 2.2-1 3.4-0.5 1.3 0.4 1.9 1.3 2.3 2.5 1.6-0.1 2.9 0.6 3.6 2q0.1 0.1 0.2 0.2 0.1 0 0.2 0c1.9-0.1 3.1 0.6 3.9 2.3zm19.4-8.3l-4.1-10.5c-0.4 0.2-0.8 0.4-1.1 0.6q-0.8 0.5-1.7 0.6-0.9 0.1-1.7-0.2c-0.8-0.2-1.5-0.5-2.2-0.8-0.9-0.2-1.7-0.5-2.6-0.7-2-0.3-3.7 0.5-5.2 1.7-1.3 1.1-2.5 2.3-3.8 3.3-0.9 0.8-2 1.4-3.1 2.2 0.7 0.4 1.3 0.8 2 1.1 1.3 0.4 2.5 0 3.7-0.4 1.4-0.5 2.7-1 4-1.5 1.7-0.5 3.3-0.4 4.8 0.6q0.3 0.1 0.6 0.3 3.9 2.3 7.9 4.5 0.1 0.1 0.2 0.1 0.1 0 0.2-0.1c0.7-0.2 1.4-0.5 2.1-0.8zm-32.2-15.3c-0.2-0.1-0.3-0.3-0.5-0.4-0.9-0.5-1.8-0.8-2.7-1.2-0.5-0.2-0.8-0.1-1 0.4q-3.4 7.5-6.8 15c-0.2 0.5 0 0.8 0.5 1 0.8 0.4 1.6 0.7 2.4 1.1 0.7 0.3 0.9 0.2 1.2-0.5q3.3-7.4 6.6-14.8c0.1-0.1 0.2-0.3 0.3-0.6zm32.5-0.7c-0.2 0-0.3 0-0.4 0.1q-1.4 0.5-2.9 1.1-0.6 0.2-0.3 0.8 0.2 0.5 0.4 1l5.6 14.3c0.3 0.7 0.5 0.8 1.2 0.5l2.2-0.8c0.9-0.4 1-0.5 0.6-1.4q-1.5-3.8-3-7.7-1.5-3.6-2.9-7.3c-0.1-0.2-0.4-0.4-0.5-0.6zm-29.1 28.5c0.4-0.3 0.9-0.5 1.1-0.8 0.7-1.4 1.4-2.7 2.1-4.1 0.3-0.6 0-1.3-0.6-1.6-0.5-0.4-1.4-0.3-1.6 0.2-0.9 1.4-1.7 2.8-2.4 4.2-0.5 0.9 0.2 2 1.4 2.1zm4.4 1.3q0.5 0.1 0.8-0.1 0.3-0.3 0.5-0.6 0.9-1.6 1.7-3.2 0.1-0.2 0.1-0.5 0-0.2 0-0.5-0.1-0.2-0.3-0.4-0.2-0.2-0.4-0.4-0.3-0.1-0.5-0.1-0.3 0-0.6 0-0.2 0.1-0.4 0.3-0.2 0.2-0.3 0.4c-0.6 1.1-1.1 2.2-1.8 3.2-0.5 0.8 0.2 2 1.2 1.9zm-5-9.2c0.1-0.8-0.3-1.3-0.9-1.5q-0.5-0.2-1 0-0.4 0.2-0.7 0.6c-0.4 0.6-0.7 1.3-1.1 1.9q-0.3 0.6-0.5 1.1c-0.2 0.4-0.2 0.7 0 1.1 0.1 0.3 0.4 0.5 0.7 0.7q0.3 0.1 0.5 0.1 0.3 0 0.5-0.1 0.3 0 0.5-0.2 0.2-0.2 0.3-0.4c0.4-0.9 1-1.8 1.5-2.6q0.1-0.4 0.2-0.7zm10.9 5.6q-0.4 0-0.7 0.2-0.3 0.2-0.5 0.5-0.7 1.4-1.4 2.8c-0.4 0.7-0.3 1.4 0.4 1.8 0.7 0.4 1.5 0.2 1.9-0.4q0.9-1.5 1.7-3c0.4-0.9-0.4-1.9-1.4-1.9zm2.3 4.4c0.7 0.4 1.3 0.8 2.1 0.4q0.3-0.2 0.5-0.5 0.2-0.4 0.2-0.7c-0.1-1-0.9-1.3-1.6-1.6q-0.6 1.2-1.2 2.4z"/><path fill-rule="evenodd" class="a" d="m35.4 24.1c-0.1 1.3-0.3 1.5-1.5 1.5h-13.2c-1.2 0-1.4-0.3-1.5-1.5-2.8 0-6.4 0-9.3 0-1 0-1.4-0.4-1.2-1.4 0.3-2.1 1.5-3.7 3.3-4.8q0.3-0.2 0.6-0.4c-1.8-2.2-1-4.5 0.4-5.6 0.7-0.6 1.7-1 2.7-1 1 0 1.9 0.4 2.6 1.1 1.6 1.4 1.8 3.6 0.4 5.4l2.7 2.3 2.6-1.8c-1-1.1-1.5-2.4-1.2-4 0.2-1 0.8-2 1.6-2.6 0.9-0.7 2-1.1 3.1-1 1.1 0 2.2 0.5 3 1.2 1.8 1.7 1.9 4 0.1 6.5 0.5 0.3 0.9 0.5 1.4 0.8 0.4 0.3 0.8 0.6 1.1 0.9l2.8-2.2c-1.6-2-1-4.4 0.4-5.5 0.7-0.7 1.7-1.1 2.7-1.1 1 0 2 0.4 2.7 1 1.6 1.5 1.8 3.6 0.4 5.6q0.2 0.2 0.5 0.3c1.8 1.2 3 2.8 3.3 4.9 0.2 1-0.2 1.4-1.3 1.4h-9.2zm-13.8-0.5h11.5c-0.3-2.2-3.1-4.3-5.8-4.3-2.6 0-5.5 2.1-5.7 4.3zm-10.7-1.5c2.7 0 6 0 8.6 0 0.5 0 0.7-0.3 0.4-0.8-0.5-0.8-1.2-1.5-2.2-2-2.6-1.2-6 0.1-6.8 2.8zm32.8 0q0-0.1-0.1-0.2c-0.8-1.9-2.3-2.9-4.3-3-2-0.1-3.5 0.7-4.6 2.4-0.3 0.5-0.1 0.8 0.5 0.8q2.6 0 5.2 0zm-16.3-4.8c0.7 0 1.3-0.2 1.8-0.7 0.5-0.5 0.8-1.1 0.8-1.8 0-0.7-0.3-1.3-0.8-1.8-0.5-0.5-1.1-0.7-1.8-0.7-0.7-0.1-1.3 0.2-1.8 0.7-0.5 0.5-0.8 1.1-0.8 1.8 0 0.7 0.2 1.3 0.7 1.8 0.5 0.5 1.2 0.7 1.9 0.7zm-9.7-2.4c0-0.6-0.2-1.1-0.6-1.4-0.4-0.4-0.9-0.6-1.5-0.6-0.5 0-1 0.2-1.4 0.6-0.3 0.4-0.5 0.8-0.5 1.4q-0.1 0.4 0.1 0.7 0.2 0.4 0.4 0.7 0.3 0.3 0.7 0.4 0.4 0.2 0.8 0.2 0.4 0 0.8-0.2 0.3-0.1 0.6-0.4 0.3-0.3 0.5-0.7 0.1-0.3 0.1-0.7zm23.4 0c0-0.5-0.2-1.1-0.6-1.4-0.4-0.4-0.9-0.6-1.4-0.6-0.6 0-1.1 0.2-1.4 0.6-0.4 0.3-0.6 0.8-0.6 1.4q0 0.4 0.1 0.7 0.2 0.4 0.4 0.7 0.3 0.3 0.7 0.4 0.4 0.2 0.8 0.2 0.4 0 0.8-0.2 0.3-0.1 0.6-0.4 0.3-0.3 0.5-0.7 0.1-0.3 0.1-0.7z"/><path class="a" d="m42.6 5c-0.1-0.5-0.3-0.9-0.4-1.4-0.1-0.6 0.2-1.1 0.7-1.2 0.5-0.2 1.1 0.1 1.3 0.7q0.6 2.2 1.2 4.3c0.2 0.7-0.2 1.3-0.9 1.3q-2.4 0.2-4.7 0.2-0.2 0-0.4-0.1-0.2 0-0.3-0.2-0.2-0.1-0.3-0.3 0-0.2 0-0.4c0-0.5 0.4-0.9 1-1 0.5 0 1.1 0 1.8-0.1q-0.2-0.2-0.4-0.3c-5.2-3.4-10.9-4.8-17-4-5.6 0.7-10.4 3.1-14.4 7q-0.2 0.1-0.3 0.4-0.1 0.2-0.1 0.5 0.1 1.8 0.2 3.5c0 0.7-0.4 1.2-1 1.2-0.6 0-1-0.4-1-1.2q-0.1-0.7-0.1-1.4c0 0-0.1-0.1-0.1-0.2-0.4 0.6-0.7 1-1 1.5-2.3 3.7-3.5 7.9-3.6 12.2 0 0.3 0 0.7-0.2 0.9-0.3 0.2-0.7 0.4-1.1 0.3-0.5 0-0.8-0.4-0.7-0.9 0.1-1.5 0.2-3.1 0.4-4.5 0.6-3.6 2-7.1 4.2-10.1 0-0.1 0.1-0.1 0.2-0.4-0.4 0.2-0.7 0.2-1 0.3q-1.4 0.4-1.7-0.5-0.3-1 1.1-1.4c1.1-0.3 2.2-0.6 3.4-0.9q0.5-0.2 0.8-0.6c5.6-5.4 12.3-8.1 20.2-7.9 4.9 0.1 9.5 1.7 13.6 4.3z"/><path class="a" d="m53.9 25.1q0 0.6 0 1.2 0 0.4-0.3 0.7-0.3 0.3-0.7 0.3c-0.6 0-1-0.4-1-1 0-4.2-1.2-8.3-3.3-12-0.3-0.6-0.2-1.1 0.3-1.4 0.5-0.3 1.1-0.1 1.5 0.5 1.9 3.3 3.1 7 3.4 10.8q0 0.4 0 0.9z"/><path class="a" d="m10.5 28.5q0.5 0 0.8 0.2 0.3 0.3 0.3 0.8 0 0.2-0.1 0.3-0.1 0.2-0.2 0.4-0.2 0.1-0.3 0.2-0.2 0.1-0.4 0.1-0.2 0-0.4-0.1-0.2-0.1-0.4-0.2-0.1-0.1-0.2-0.3-0.1-0.2-0.1-0.4 0-0.2 0.1-0.4 0.1-0.2 0.2-0.3 0.2-0.2 0.3-0.3 0.2 0 0.4 0z"/><path class="a" d="m45.7 30.5q0 0.2 0 0.3-0.1 0.2-0.3 0.4-0.1 0.1-0.3 0.2-0.2 0.1-0.4 0.1-0.4 0-0.7-0.3-0.3-0.3-0.3-0.7 0-0.4 0.3-0.7 0.3-0.3 0.7-0.3 0.2 0 0.4 0 0.2 0.1 0.3 0.2 0.2 0.2 0.3 0.4 0 0.2 0 0.4z"/></svg>