<svg width="56" height="61" viewBox="0 0 56 61" fill="none" xmlns="http://www.w3.org/2000/svg">
<path d="M11.7267 0.695312C13.3675 1.40311 15.0068 2.11678 16.6551 2.81136C16.8761 2.89437 17.1128 2.93041 17.3492 2.91708C18.4281 2.87744 19.5054 2.78345 20.5842 2.78052C21.0326 2.79272 21.4741 2.89258 21.8824 3.07421C22.3542 3.27392 22.7839 3.58083 23.2211 3.84808C23.9904 4.31505 24.1091 4.70419 23.711 5.51184C23.1746 6.60144 22.6502 7.69837 22.0702 8.76594C21.7982 9.26668 21.7577 9.66463 22.0942 10.161C22.296 10.4648 22.3718 10.8324 22.3061 11.1889C22.2235 11.4929 21.8553 11.7219 21.5353 12.0612C21.965 12.7043 22.4473 13.4606 22.9777 14.1831C23.0979 14.349 23.3789 14.4166 23.5998 14.4929C24.6395 14.8556 24.8093 15.1611 24.5298 16.211C24.3525 16.8718 24.1763 17.5321 24.001 18.1919C24.001 18.2081 24.013 18.2287 24.0475 18.3197L35.6847 23.1803C36.0663 22.3785 36.4224 21.6193 36.789 20.8645C37.2398 19.9218 37.8408 19.7867 38.6837 20.4416C39.3388 20.9541 40.036 21.4284 40.6235 22.0085C41.2741 22.6516 42.0089 22.6649 42.8578 22.5489C42.8803 22.3741 42.9164 22.2052 42.9224 22.0364C42.9225 21.7916 42.9895 21.5513 43.1166 21.3403C43.2437 21.1294 43.4262 20.9555 43.6451 20.8366C44.5466 20.2918 45.4481 19.747 46.3151 19.1567C46.7959 18.8293 47.1851 18.3726 47.6674 18.0392C47.9735 17.8067 48.3357 17.655 48.7192 17.5987C49.7709 17.5165 50.8362 17.5311 51.894 17.4886C52.1431 17.465 52.3939 17.5119 52.6166 17.6236C52.8393 17.7352 53.0244 17.907 53.1502 18.1185C53.66 18.89 54.1889 19.6487 54.7368 20.3946C54.8848 20.5911 54.9853 20.8177 55.0308 21.0575C55.0764 21.2973 55.0658 21.5441 54.9998 21.7794C54.537 23.753 54.8345 23.424 52.8962 24.1098C52.6528 24.1965 52.4109 24.2919 52.16 24.3551C51.559 24.5019 50.9955 24.684 51.0511 25.4608C50.097 26.5754 50.2337 27.9865 49.9663 29.2788C49.7604 30.2744 49.4314 30.5167 48.3931 30.3625C48.2579 30.3419 48.1197 30.3346 47.9078 30.3126C47.7575 31.2157 47.6479 32.0997 47.457 32.9675C47.3867 33.3227 47.2105 33.6497 46.9507 33.9073C46.5495 34.2568 45.9921 34.1071 45.5984 33.6137C45.0976 32.9793 44.6137 32.3332 44.1469 31.6753C43.9576 31.408 43.7638 31.2612 43.4122 31.3097C42.9149 31.3787 42.4446 31.3199 42.1786 30.8133C41.9292 30.3419 42.1336 29.9543 42.41 29.5695C42.7286 29.129 43.0276 28.6694 43.4047 28.1158C42.3169 28.1862 41.5611 27.687 40.8008 27.1818C40.7225 27.1316 40.6346 27.0974 40.5424 27.0812C40.4502 27.0651 40.3557 27.0673 40.2644 27.0878C39.6634 27.2978 39.0864 27.5563 38.4508 27.8221C38.8415 29.2347 39.2231 30.6224 39.6078 32.0101C39.7686 32.5975 39.9444 33.1746 40.0931 33.7605C40.2975 34.5726 39.7505 35.1497 38.9001 35.0322C38.6807 35.0154 38.4643 34.9725 38.2555 34.9044C37.5208 34.6107 36.9363 34.8075 36.3668 35.3127C36.0498 35.5917 35.8169 35.8413 35.8259 36.2833C35.8409 37.1453 35.4593 37.7385 34.6239 38.1101C33.7754 38.5025 32.9516 38.9438 32.1567 39.4317C31.894 39.5897 31.6849 39.8201 31.5557 40.0939C30.9231 41.5815 29.8593 42.6402 28.4079 43.3906C28.0338 43.583 27.7498 44.0059 27.5064 44.3774C27.0721 45.0603 26.5117 45.4377 25.6658 45.4861C25.3831 45.4885 25.1099 45.5862 24.8925 45.7628C24.6751 45.9395 24.5268 46.1841 24.4727 46.4553C24.4075 46.7411 24.3149 47.0204 24.1963 47.2894C23.8086 48.1249 23.717 48.9399 24.1422 49.8063C24.2759 50.078 24.2489 50.4627 24.1948 50.7784C23.9454 52.2596 23.6729 53.7383 23.3774 55.2146C23.3146 55.4973 23.1861 55.7621 23.0018 55.9885C22.3842 56.755 21.7336 57.4981 21.0966 58.2499C20.9824 58.385 20.8216 58.5098 20.772 58.667C20.3017 60.1545 18.8683 60.2441 17.6948 60.6787C17.1719 60.8726 16.7452 60.5466 16.4928 59.8931C15.7485 57.9577 15.0113 56.0203 14.2811 54.081C12.3969 49.1059 10.5022 44.1351 8.64955 39.1483C8.48545 38.6537 8.46157 38.1249 8.58044 37.6181C8.78028 36.7503 8.74571 35.9647 8.16874 35.1717C7.88025 35.5329 7.59628 35.8912 7.30929 36.2466C6.77589 36.9074 6.40777 36.9911 5.6565 36.6372C5.6042 36.6087 5.54998 36.5837 5.49423 36.5623C3.77683 36.0014 2.58983 34.8721 1.73789 33.3317C1.43738 32.781 1.26459 32.3038 1.79498 31.7384C1.53204 31.6107 1.30967 31.5006 1.08429 31.3934C0.579436 31.1511 0.0325121 30.944 0.0595578 30.2494C0.091111 29.5152 0.690627 29.3786 1.23755 29.1877C2.23223 28.8397 3.21789 28.4535 4.22759 28.1598C4.77001 27.9954 4.8286 27.684 4.64079 27.2787C4.26215 26.4623 3.84895 25.6634 3.43876 24.8587C3.35303 24.7286 3.24231 24.6159 3.11271 24.5269C2.42755 23.9762 2.35242 23.731 2.6379 22.9116C2.91287 22.1171 3.18333 21.3212 3.47182 20.5312C3.75129 19.772 4.22308 19.4754 4.95332 19.8219C6.20343 20.4093 7.04634 20.1509 7.83217 19.0436C8.73369 17.7764 10.101 16.8894 10.6119 15.2697C10.9875 14.0847 11.8139 13.0377 12.4705 11.8923C11.7192 11.0964 10.9995 10.2917 10.2392 9.51925C10.0507 9.34476 9.90399 9.13175 9.80945 8.89542C9.71491 8.6591 9.67491 8.4053 9.69231 8.15212C9.70884 7.88046 9.65926 7.60292 9.69231 7.33273C9.84256 5.98762 9.52854 4.89509 8.26941 4.08744C7.49861 3.59257 7.62633 2.82164 8.41967 2.33851C9.35274 1.77756 10.3038 1.24598 11.2459 0.702655L11.7267 0.695312ZM10.4451 3.48538C11.5915 4.03898 11.6712 5.00963 11.6201 6.05077C11.588 6.59688 11.604 7.14468 11.6681 7.68809C11.7076 8.00556 11.8366 8.30604 12.0408 8.55595C12.7274 9.34304 13.4652 10.089 14.1774 10.8541C14.7499 11.4679 14.7784 11.7572 14.3847 12.4694C14.0106 13.1375 13.6124 13.791 13.2623 14.4724C12.8386 15.2947 12.1505 16.0098 12.167 17.0245C12.167 17.1875 11.9972 17.374 11.8665 17.515C10.5012 18.9962 9.13237 20.4729 7.76005 21.9453C7.40095 22.3301 6.98625 22.4607 6.46487 22.2787C6.02312 22.1245 5.56335 22.007 5.09456 21.8675C4.9443 22.2669 4.82259 22.5929 4.72342 22.9277C4.68519 23.0515 4.69209 23.1843 4.74296 23.3036C5.17719 24.1113 5.60692 24.9189 6.08172 25.7104C6.58808 26.5489 6.74134 27.4388 6.71279 28.4006C6.69175 29.0438 6.43782 29.4286 5.8323 29.6327C5.11709 29.872 4.4079 30.1275 3.79036 30.3434C4.17801 30.7428 4.73996 31.0864 4.92477 31.5666C5.20274 32.2876 4.41691 32.5402 3.98568 32.8383C4.24863 33.9499 5.13812 34.2965 6.06669 34.6489C6.75485 33.7678 7.4325 32.9029 8.11615 32.0395C8.42567 31.6474 8.81784 31.4521 9.31818 31.6459C9.53074 31.7155 9.71034 31.858 9.82385 32.0469C9.93735 32.2358 9.97709 32.4585 9.93572 32.6738C9.81852 33.6783 10.071 34.5828 10.4857 35.5006C10.687 35.9412 10.675 36.5094 10.6539 37.0146C10.6254 37.6798 10.3775 38.298 10.6539 39.0102C12.6643 44.2086 14.6251 49.4274 16.601 54.639C17.0848 55.9151 17.5671 57.1912 18.087 58.5642C18.3875 58.3733 18.6715 58.2705 18.8382 58.062C19.3521 57.4423 19.7593 56.7301 20.3227 56.153C21.1927 55.2719 21.7096 54.2733 21.7862 53.0531C21.8076 52.8592 21.8417 52.667 21.8884 52.4774C22.1213 51.2938 22.4278 50.1206 21.8118 48.9414C21.6961 48.7196 21.7637 48.354 21.8463 48.0941C22.1468 47.1239 22.4729 46.1616 22.8245 45.2071C22.9206 44.9442 23.0874 44.6315 23.3158 44.5066C23.9844 44.141 24.7041 43.8664 25.3938 43.5375C25.5996 43.4405 25.7859 43.3082 25.9437 43.1469C26.3735 42.6931 26.695 42.0323 27.2134 41.7871C27.8386 41.5095 28.4003 41.1117 28.8649 40.6175C29.3296 40.1232 29.6877 39.5427 29.9179 38.9104C30.0682 38.533 30.4438 38.1761 30.8059 37.9559C31.6293 37.4449 32.5008 36.9999 33.3723 36.5667C33.7419 36.3832 33.8681 36.1262 33.9222 35.7488C33.9808 35.3347 34.0063 34.762 34.2783 34.5608C35.3301 33.784 36.1024 32.4506 37.7807 32.781C37.3059 31.0747 36.8431 29.4212 36.3879 27.7648C36.167 26.963 36.3473 26.5827 37.1031 26.2684C38.0587 25.872 39.0233 25.499 39.9774 25.0937C40.4853 24.8793 40.9646 24.8984 41.3838 25.2405C42.2658 25.9553 43.3783 26.3418 44.5241 26.3316C44.7041 26.3362 44.8836 26.3504 45.062 26.3742C46.0281 26.4931 46.3842 27.2156 45.8598 28.0174C45.5398 28.5064 45.1987 28.9822 44.8742 29.4535L45.8388 30.6077C45.9139 30.1995 45.9725 29.9146 46.0176 29.6283C46.237 28.2347 46.5044 28.0497 47.9273 28.3067C47.9847 28.3045 48.0414 28.2941 48.0956 28.2758C48.1287 28.1099 48.1572 27.9219 48.2023 27.7384C48.3991 26.9087 48.5809 26.0761 48.8033 25.2537C48.913 24.8514 49.1819 24.4843 49.2541 24.079C49.3487 23.5107 49.6072 23.1524 50.1661 22.9718C50.9429 22.7221 51.7137 22.4549 52.4845 22.1861C53.0239 21.9982 53.1562 21.6237 52.8632 21.1479C51.7888 19.4064 51.7888 19.4064 49.6883 19.468C49.5483 19.4655 49.4083 19.4719 49.2691 19.4871C49.1528 19.5009 49.0409 19.5395 48.9415 19.6002C47.9859 20.2698 47.0709 21.004 46.0747 21.5914C45.2709 22.0628 44.7224 22.5489 44.7389 23.5621C44.7525 24.2288 44.3333 24.499 43.6256 24.5092C42.8665 24.5428 42.1062 24.5374 41.3477 24.4931C40.9227 24.4528 40.5145 24.3105 40.1592 24.079C39.4801 23.6208 38.8625 23.0746 38.1819 22.5371C37.9249 23.0775 37.7071 23.5357 37.4907 23.9953C36.7229 25.6238 36.6132 25.6649 34.9214 24.9601C30.8645 23.2684 26.8077 21.5772 22.7509 19.8865C21.8809 19.5238 21.6991 19.1949 21.923 18.3447C22.1048 17.631 22.2956 16.9188 22.4278 16.4122C21.9395 15.8821 21.5263 15.5076 21.2017 15.0656C20.5587 14.1713 19.9682 13.2418 19.3566 12.3269C18.6054 11.2036 18.688 10.8585 19.8585 10.2226C19.573 9.47373 19.5745 9.42087 19.9471 8.67196C20.5196 7.51922 21.0935 6.36795 21.657 5.23577C21.4463 5.02799 21.1886 4.87159 20.9046 4.77924C20.6206 4.68689 20.3183 4.66118 20.0222 4.70419C19.1087 4.79377 18.1876 4.8437 17.2696 4.85104C16.8348 4.86045 16.4023 4.78817 15.9954 4.63811C14.7934 4.16527 13.5824 3.69243 12.4359 3.10505C11.6666 2.70269 11.0972 2.85835 10.4451 3.48097V3.48538Z" fill="#08536B"/>
<path d="M20.1901 41.4151C19.7426 41.3262 19.2913 41.2608 18.8512 41.1447C18.4349 41.0401 18.0519 40.8355 17.7371 40.5494C17.1373 39.9905 17.1317 39.27 17.7371 38.7201C18.257 38.2483 18.9107 38.0559 19.594 37.9434C20.2384 37.8348 20.8962 37.825 21.5438 37.9143C21.5926 37.9163 21.6414 37.9088 21.6873 37.8923C21.7332 37.8758 21.7753 37.8506 21.8112 37.8181C22.1027 37.5423 22.3794 37.2519 22.6635 36.9706C22.7249 36.9065 22.7934 36.8493 22.8677 36.8C22.9518 36.7499 23.0509 36.7293 23.1485 36.7419C23.2462 36.7544 23.3365 36.7993 23.4044 36.869C23.4736 36.9327 23.5187 37.0175 23.5322 37.1095C23.5457 37.2015 23.5268 37.2952 23.4787 37.3753C23.4337 37.4514 23.3774 37.5205 23.3116 37.5804C23.1017 37.7619 22.8863 37.9434 22.6561 38.1503C22.9383 38.319 23.1649 38.4334 23.3654 38.5785C24.1992 39.1792 24.2029 40.0866 23.3654 40.6892C22.7563 41.1302 22.0433 41.2935 21.3042 41.3788C21.2318 41.3788 21.1594 41.4024 21.0851 41.4151H20.1901ZM20.7843 40.5385C20.9867 40.5168 21.3265 40.4968 21.657 40.4369C22.082 40.3773 22.4866 40.2206 22.838 39.9796C23.1648 39.74 23.1667 39.5168 22.8269 39.2845C22.668 39.1751 22.4959 39.0855 22.3144 39.0177C21.4266 38.7058 20.4663 38.6473 19.5457 38.849C19.1292 38.9132 18.7348 39.0751 18.3963 39.3208C18.1345 39.5259 18.1326 39.7309 18.3963 39.9396C18.4894 40.0139 18.5902 40.0784 18.6971 40.132C19.3043 40.446 19.971 40.5186 20.7843 40.5385Z" fill="#08536B"/>
<path d="M14.2615 27.8418C14.2151 27.7456 14.1798 27.6603 14.1408 27.5877C13.541 26.4135 12.9319 25.2448 12.3433 24.0652C11.7249 22.8221 11.7862 21.5934 12.5754 20.4501C12.9231 19.9159 13.4151 19.4861 13.9971 19.2081C14.5791 18.9301 15.2284 18.8148 15.8733 18.8749C18.4284 19.0237 20.0439 21.7604 18.9094 23.9999C18.2966 25.2085 17.6764 26.4135 17.0524 27.6204L16.954 27.8146C17.2901 27.9471 17.6299 28.0596 17.9512 28.2102C18.3411 28.3917 18.6939 28.6439 18.8499 29.0613C18.9137 29.2889 18.9565 29.5215 18.9781 29.7564L19.8861 29.9597C19.9734 29.9796 20.0718 29.9923 20.1498 30.0177C20.209 30.0311 20.2648 30.0559 20.3141 30.0907C20.3634 30.1255 20.4051 30.1695 20.4367 30.2202C20.4684 30.2709 20.4893 30.3272 20.4984 30.386C20.5075 30.4447 20.5045 30.5046 20.4896 30.5622C20.457 30.675 20.3804 30.7709 20.2761 30.8289C20.1719 30.887 20.0485 30.9026 19.9325 30.8725C19.4571 30.7727 18.9818 30.6638 18.5045 30.5658C18.4277 30.545 18.3457 30.5528 18.2743 30.5876C17.4572 31.1121 16.5399 31.2536 15.5873 31.2536C14.8115 31.2746 14.0412 31.12 13.3367 30.8017C13.1677 30.7233 13.0072 30.6285 12.8577 30.5186C12.0406 29.9088 12.0518 28.9978 12.9059 28.437C13.248 28.2433 13.605 28.0759 13.9737 27.9362C14.0678 27.8996 14.1638 27.8681 14.2615 27.8418ZM15.6059 28.4824C15.656 28.3935 15.6857 28.3427 15.7117 28.29C16.5015 26.7438 17.2907 25.197 18.0793 23.6496C18.3604 23.1004 18.4413 22.4738 18.3086 21.8736C18.1759 21.2733 17.8376 20.7353 17.3495 20.3485C16.8581 19.9594 16.2449 19.747 15.6124 19.747C14.9799 19.747 14.3667 19.9594 13.8752 20.3485C13.3805 20.7341 13.0367 21.2743 12.9014 21.8784C12.7662 22.4825 12.8478 23.1137 13.1325 23.6659C13.8975 25.1662 14.6638 26.667 15.4313 28.1685L15.6059 28.4824ZM15.5929 30.3861C15.8826 30.3607 16.176 30.3499 16.4656 30.3081C16.9217 30.2569 17.3602 30.1062 17.7488 29.8671C18.1517 29.604 18.1684 29.3517 17.7488 29.1212C17.396 28.9484 17.0289 28.8051 16.6513 28.6929C16.6031 28.6766 16.4879 28.7438 16.4564 28.8018C16.3041 29.0704 16.1704 29.3463 16.0311 29.6257C15.9968 29.7119 15.9362 29.7857 15.8574 29.837C15.7787 29.8883 15.6857 29.9147 15.591 29.9125C15.5003 29.9098 15.4124 29.881 15.3384 29.8296C15.2644 29.7783 15.2076 29.7067 15.1751 29.6239C15.0358 29.3481 14.8891 29.0795 14.7554 28.7982C14.7034 28.6911 14.6366 28.6548 14.527 28.6948C14.2243 28.8018 13.9161 28.8944 13.6264 29.025C13.4203 29.1176 13.1603 29.2319 13.1696 29.4896C13.1789 29.7473 13.4333 29.8635 13.6468 29.9706C14.2548 30.2519 14.9203 30.394 15.5929 30.3861Z" fill="#08536B"/>
<path d="M26.0503 33.6748C24.8117 32.9071 24.6576 32.7002 24.7152 31.9126L23.6734 31.6821C23.5927 31.6667 23.5133 31.6455 23.4358 31.6186C23.335 31.5845 23.2507 31.5153 23.1989 31.4242C23.1472 31.3331 23.1317 31.2266 23.1554 31.125C23.1706 31.0225 23.2264 30.9301 23.3109 30.8676C23.3953 30.8051 23.5016 30.7776 23.6066 30.7911C24.0219 30.8521 24.4335 30.9351 24.8396 31.0397C24.972 31.0816 25.1123 31.0939 25.2501 31.0757C25.388 31.0575 25.52 31.0092 25.6362 30.9344C26.2354 30.6067 26.9086 30.4296 27.5952 30.419C28.5497 30.3646 29.4912 30.4481 30.3546 30.8891C30.653 31.0404 30.9185 31.2469 31.1364 31.497C31.5561 31.9888 31.4613 32.6276 30.9507 33.0904C30.44 33.5532 29.7493 33.7673 29.0529 33.878C28.4155 33.9832 27.7652 33.9906 27.1255 33.8998C27.0798 33.8985 27.0343 33.906 26.9916 33.9219C26.9489 33.9377 26.9098 33.9617 26.8766 33.9924C26.5647 34.29 26.2657 34.6003 25.963 34.8998C25.8992 34.9802 25.8096 35.0374 25.7086 35.0621C25.6076 35.0868 25.501 35.0776 25.4059 35.0359C25.3379 35.0078 25.2783 34.9635 25.2325 34.9069C25.1867 34.8503 25.1563 34.7833 25.1441 34.7122C25.1319 34.6411 25.1382 34.568 25.1626 34.5C25.1869 34.4319 25.2285 34.3709 25.2834 34.3227C25.5192 34.094 25.7773 33.9125 26.0503 33.6748ZM28.0558 33.0868C28.7354 33.0614 29.4113 32.9888 30.0315 32.6639C30.2358 32.555 30.4809 32.4371 30.4828 32.1866C30.4846 31.9362 30.2395 31.8237 30.0371 31.7057C29.5759 31.4732 29.0697 31.3384 28.5516 31.3101C27.7042 31.2055 26.844 31.3403 26.0726 31.6985C25.8609 31.8019 25.6046 31.9217 25.6121 32.1903C25.6195 32.4589 25.8739 32.5678 26.0874 32.6766C26.7002 32.9906 27.3687 33.0632 28.0632 33.0868H28.0558Z" fill="#08536B"/>
<path d="M24.3458 35.4707C24.4632 35.474 24.5748 35.5215 24.6572 35.6034C24.7395 35.6852 24.7863 35.7951 24.7877 35.9099C24.7853 36.0247 24.7376 36.1341 24.6545 36.2153C24.5715 36.2965 24.4595 36.3431 24.342 36.3454C24.2247 36.3405 24.1135 36.2926 24.0305 36.2112C23.9476 36.1299 23.8991 36.021 23.8945 35.9063C23.8992 35.7913 23.9484 35.6823 24.0322 35.6014C24.116 35.5206 24.2281 35.4738 24.3458 35.4707Z" fill="#08536B"/>
<path d="M22.2684 30.8388C22.2659 30.9532 22.2177 31.0621 22.1341 31.1422C22.0504 31.2223 21.938 31.2671 21.8209 31.2671C21.7034 31.2638 21.5918 31.2162 21.5095 31.1344C21.4271 31.0525 21.3803 30.9427 21.3789 30.8279C21.3818 30.7128 21.431 30.6035 21.5158 30.5237C21.6007 30.4439 21.7143 30.3999 21.832 30.4014C21.8902 30.4014 21.9479 30.4128 22.0016 30.4349C22.0553 30.457 22.1039 30.4894 22.1446 30.5301C22.1852 30.5709 22.2171 30.6192 22.2384 30.6722C22.2597 30.7252 22.2699 30.7819 22.2684 30.8388Z" fill="#08536B"/>
<path d="M17.4512 22.4786C17.4469 22.7152 17.3948 22.9486 17.2981 23.1655C17.2014 23.3824 17.0618 23.5786 16.8875 23.7428C16.7131 23.9069 16.5074 24.0359 16.282 24.1223C16.0566 24.2087 15.8159 24.2508 15.5739 24.2462C15.0885 24.2358 14.6266 24.04 14.2872 23.7008C13.9477 23.3615 13.7577 22.9059 13.7578 22.4314C13.7665 21.9544 13.9655 21.4996 14.3124 21.164C14.6593 20.8284 15.1266 20.6385 15.6147 20.6348C15.8594 20.6374 16.1011 20.6872 16.326 20.7814C16.5509 20.8756 16.7545 21.0123 16.9251 21.1836C17.0958 21.3549 17.2301 21.5576 17.3204 21.7798C17.4107 22.002 17.4551 22.2395 17.4512 22.4786ZM16.5506 22.4405C16.5491 22.1955 16.4485 21.961 16.2707 21.7883C16.0929 21.6155 15.8524 21.5186 15.6017 21.5186C15.3511 21.5233 15.1123 21.6234 14.9361 21.7977C14.7599 21.9719 14.6603 22.2064 14.6584 22.4514C14.6642 22.6946 14.7675 22.926 14.946 23.0956C15.1244 23.2653 15.3639 23.3598 15.6129 23.3588C15.7365 23.36 15.8592 23.3371 15.9736 23.2913C16.0881 23.2456 16.192 23.178 16.2794 23.0924C16.3667 23.0069 16.4357 22.9052 16.4823 22.7932C16.5289 22.6812 16.5521 22.5613 16.5506 22.4405Z" fill="#08536B"/>
</svg>
