<svg width="136" height="136" viewBox="0 0 136 136" fill="none" xmlns="http://www.w3.org/2000/svg">
<path d="M30.4609 98.9365V66.6535C31.2641 66.6535 32.028 66.6085 32.7978 66.6672C33.601 66.7278 33.8773 66.4502 33.8636 65.6313C33.8205 62.8949 33.8479 60.1683 33.8479 57.4379V56.3765H36.2867V50.8882H51.8541V49.7409C51.8541 47.2651 51.8541 44.7946 51.8541 42.3293C51.8541 40.3924 52.7944 39.0457 54.5319 38.2893C55.0961 38.045 55.2489 37.7498 55.2196 37.1986C55.1843 36.5185 55.2195 35.8305 55.2078 35.1522C55.196 34.474 55.4506 33.9443 56.1735 33.96C56.8963 33.9756 57.1392 34.517 57.1079 35.1913C57.1079 35.3536 57.1177 35.5158 57.1079 35.678C57.0119 37.0208 56.9904 38.1603 58.6535 38.8248C59.8876 39.3174 60.4283 40.6719 60.4557 42.0693C60.4773 43.1111 60.4851 44.1509 60.4557 45.1966C60.442 45.7439 60.6516 45.9491 61.1961 45.9491C66.2475 45.94 71.2982 45.94 76.3483 45.9491C76.8929 45.9491 77.1005 45.7341 77.0848 45.1907C77.0593 44.2135 77.0848 43.2362 77.0848 42.2589C77.0985 40.363 78.0329 39.0437 79.7293 38.299C80.2758 38.0586 80.4757 37.7948 80.4444 37.226C80.4032 36.4794 80.3327 35.7093 80.4796 34.992C80.5599 34.6011 81.0673 34.2864 81.3729 33.9365C81.713 34.2578 82.0256 34.6069 82.3073 34.9803C82.4267 35.164 82.3425 35.4884 82.3288 35.7484C82.2504 37.056 82.223 38.1642 83.8529 38.8111C85.1301 39.3174 85.6727 40.7031 85.6805 42.1338C85.6923 44.6044 85.6805 47.0769 85.6805 49.5474V50.8393H101.03V56.3003H103.44C103.469 56.7714 103.512 57.1427 103.512 57.516C103.512 60.2152 103.542 62.9145 103.501 65.6117C103.489 66.4072 103.716 66.7356 104.547 66.6652C105.287 66.6007 106.035 66.6515 106.854 66.6515V98.9365H30.4609ZM79.8253 68.651H57.5193V96.0145C57.5193 96.1767 57.4605 96.3761 57.535 96.4934C57.678 96.7201 57.8895 97.0621 58.0873 97.0699C59.247 97.1247 60.4125 97.0973 61.7035 97.0973V95.8542C61.7035 90.491 61.6819 85.1277 61.7035 79.7645C61.7328 74.7413 66.2893 71.401 70.9358 72.9569C73.7821 73.9126 75.6235 76.5434 75.6372 79.7977C75.6627 85.161 75.6372 90.5223 75.647 95.8855V97.0582H79.8175L79.8253 68.651ZM63.5978 87.7273C63.5978 90.4245 63.6271 93.1237 63.5801 95.819C63.5664 96.6536 63.7761 96.9527 64.6634 96.9331C67.3334 96.8745 70.0053 96.8784 72.6753 96.9331C73.5353 96.9507 73.784 96.7084 73.7782 95.8425C73.741 90.5438 73.7781 85.247 73.7468 79.9482C73.7467 79.2674 73.6457 78.5903 73.4471 77.939C72.74 75.6893 70.3834 74.1921 68.1581 74.5029C65.4744 74.8782 63.6526 76.8991 63.6134 79.6355C63.5703 82.3308 63.5998 85.0261 63.5978 87.7273ZM99.1617 56.099C99.1617 55.2136 99.1303 54.4396 99.1714 53.6695C99.2087 53.003 98.9873 52.7059 98.288 52.7704C97.7709 52.8193 97.2459 52.7802 96.7209 52.7802H50.9158C47.0097 52.7802 43.1018 52.7685 39.1938 52.8017C38.8686 52.8017 38.2848 53.0753 38.2633 53.2688C38.1653 54.1894 38.2201 55.1256 38.2201 56.099H99.1617ZM57.5624 66.4698H79.8057V58.3213H57.5624V66.4698ZM50.3575 68.608V97.025H55.5388V68.608H50.3575ZM81.7842 68.608V80.0166C81.7842 85.3115 81.8136 90.6083 81.7588 95.9031C81.747 96.9234 82.0605 97.2029 83.0282 97.1247C84.0022 97.0475 84.9808 97.0475 85.9548 97.1247C86.8696 97.197 87.1771 96.939 87.1731 95.9656C87.1359 87.1937 87.1517 78.4237 87.1497 69.6517C87.1497 69.3097 87.1125 68.9696 87.0929 68.61L81.7842 68.608ZM34.9076 97.1032V95.8542C34.9076 91.4663 34.8744 87.0784 34.9253 82.6924C34.9645 79.4264 37.658 76.8288 40.802 76.8816C44.0577 76.9441 46.5416 79.4674 46.569 82.7764C46.5906 85.5128 46.569 88.2355 46.569 90.9659C46.569 92.7524 46.5866 94.5408 46.569 96.3272C46.5592 96.9136 46.7649 97.1774 47.3526 97.109C47.6621 97.0758 47.9755 97.0699 48.3653 97.0445V95.9969C48.3653 89.2362 48.3497 82.4754 48.3888 75.7167C48.3888 74.8371 48.1303 74.6319 47.286 74.6377C42.6943 74.6768 38.1007 74.6925 33.509 74.6377C32.4629 74.6241 32.2807 74.9759 32.2866 75.918C32.3238 82.2233 32.3062 88.5267 32.3062 94.832C32.2764 95.3832 32.2869 95.9359 32.3376 96.4855C32.3709 96.7162 32.6569 97.0582 32.8606 97.0836C33.5419 97.1319 34.2254 97.1397 34.9076 97.1071V97.1032ZM102.848 97.0563C103.211 97.0817 103.405 97.1012 103.597 97.1051C105.04 97.1344 105.04 97.1325 105.04 95.7174C105.04 89.0544 105.025 82.3914 105.06 75.7303C105.06 74.8586 104.797 74.6299 103.947 74.6377C99.3889 74.6749 94.8266 74.6866 90.2683 74.6377C89.2496 74.626 89.0204 74.9505 89.0263 75.9082C89.0635 82.6025 89.0459 89.2987 89.0479 95.993C89.0479 96.3409 89.091 96.6869 89.1125 97.0133C91.1694 97.3064 91.1693 97.3064 91.1713 95.3773C91.1713 91.0773 91.1439 86.7969 91.1909 82.5067C91.2262 79.1117 94.3525 76.4926 97.7062 76.9636C100.75 77.3936 102.813 79.7274 102.837 82.8702C102.868 87.2249 102.846 91.5797 102.848 95.9344V97.0563ZM44.5944 96.9019V83.8847C42.1321 83.8847 39.7599 83.8671 37.3896 83.914C37.1937 83.914 36.8333 84.342 36.8313 84.5746C36.796 88.4693 36.796 92.366 36.8313 96.2647C36.8313 96.4777 37.1564 96.8725 37.3347 96.8745C39.7344 96.9194 42.136 96.9058 44.5944 96.9058V96.9019ZM93.1263 96.9019C95.5965 96.9019 97.9393 96.8862 100.28 96.9116C100.991 96.9116 100.954 96.4875 100.952 96.0145C100.952 93.772 100.952 91.5301 100.952 89.2889V83.9668H93.1283L93.1263 96.9019ZM89.1144 58.2881V66.458H101.571V58.2881H89.1144ZM35.799 58.2978V66.458H48.3124V58.2978H35.799ZM48.3144 68.6139H32.3963V72.7184H48.3144V68.6139ZM104.95 72.7184V68.608H89.0419C89.0419 69.6986 89.0929 70.7326 89.0263 71.7607C88.9714 72.6011 89.3025 72.7829 90.0881 72.779C94.713 72.7458 99.336 72.7634 103.961 72.7594C104.282 72.7653 104.6 72.736 104.956 72.7125L104.95 72.7184ZM77.0829 50.8413C77.0829 50.1025 77.026 49.4731 77.0965 48.877C77.1965 47.9877 76.8145 47.7922 75.9879 47.7981C71.1748 47.8313 66.3617 47.8157 61.5487 47.8215C61.2098 47.8215 60.869 47.8724 60.536 47.8997V50.8413H77.0829ZM55.5447 66.4776V58.3174H50.3281V66.4795L55.5447 66.4776ZM81.9899 58.2881C81.9311 58.3623 81.8547 58.4132 81.8547 58.464C81.8332 60.9912 81.8097 63.5165 81.8156 66.0437C81.8156 66.202 82.0486 66.4952 82.1779 66.4971C83.8195 66.5284 85.4591 66.5186 87.0752 66.5186V58.29L81.9899 58.2881ZM79.0143 45.8631H83.7667C83.7667 44.4715 83.841 43.1443 83.7451 41.8289C83.6589 40.6562 82.5697 39.849 81.3454 39.8744C80.1799 39.892 79.1103 40.7148 79.0358 41.8289C78.9418 43.1404 79.0104 44.4695 79.0104 45.8651L79.0143 45.8631ZM53.7895 45.8631H58.5458C58.5458 44.4773 58.6162 43.1502 58.5242 41.8348C58.4419 40.6797 57.3351 39.8509 56.1245 39.8646C54.9629 39.8783 53.8874 40.7051 53.811 41.8192C53.717 43.1385 53.7856 44.4676 53.7856 45.8651L53.7895 45.8631ZM36.9939 81.9164H44.5298C44.373 81.0356 43.9107 80.2379 43.2238 79.663C42.5369 79.088 41.6692 78.7725 40.7726 78.7716C39.8729 78.7724 39.0019 79.0875 38.3109 79.6624C37.6199 80.2373 37.1525 81.0355 36.99 81.9184L36.9939 81.9164ZM100.79 81.9164C100.337 79.9619 98.6857 78.6797 96.86 78.7696C95.0343 78.8595 93.4965 80.1574 93.2556 81.9164H100.79ZM58.5281 47.8958H53.811V50.8276H58.5281V47.8958ZM83.751 50.8393V47.8899H79.0496V50.8608L83.751 50.8393Z" fill="#08536B"/>
<path d="M92.2227 63.2513V61.5234H98.1424V63.2513H92.2227Z" fill="#08536B"/>
<path d="M44.7363 63.2816H38.8125V61.4932H44.7363V63.2816Z" fill="#08536B"/>
<circle cx="67.9609" cy="68.2246" r="67" stroke="#FFDD83"/>
<circle cx="67.9609" cy="68.2246" r="67" stroke="#6C8C91"/>
</svg>
