<svg width="136" height="136" viewBox="0 0 136 136" fill="none" xmlns="http://www.w3.org/2000/svg">
<circle cx="67.5586" cy="68.2246" r="67" stroke="#FFDD83"/>
<circle cx="67.5586" cy="68.2246" r="67" stroke="#6C8C91"/>
<g clip-path="url(#clip0_6_11417)">
<path d="M63.7208 33.8729C58.9195 34.3176 53.7533 35.4391 50.8149 36.6959L49.9122 37.0826L49.8546 38.8615L49.797 40.6211L48.5102 40.6791L47.2043 40.7371V43.3281V45.9385H45.7639H44.3235V49.1096V52.2613L43.6129 52.3967C43.2096 52.4547 42.4798 52.5127 41.9804 52.5127H41.0586V53.4795V54.4463H42.2109H43.3632V63.5342V72.6221H42.2109H41.0586V73.5889V74.5557H42.2109H43.3632V79.3897V84.2236H42.2109H41.0586V85.1904V86.1572H42.2109H43.3632V92.6348V99.1123H67.7539H92.1447V92.6541V86.1766L92.9705 86.1186L93.7771 86.0605L93.8347 85.1324L93.8923 84.2236H93.0281H92.1447V79.3897V74.5557H93.0089H93.8731V73.5889V72.6221H93.0089H92.1447V63.5342V54.4463H93.1049H94.0652V53.4988V52.5707L92.1447 52.416L90.2241 52.2807V49.1096V45.9385H89.0718H87.9195V43.3281V40.7178H86.7672H85.6341L85.5764 38.8422L85.5188 36.9859L84.4625 36.6186C82.3692 35.8838 77.5486 34.743 74.9367 34.3369C72.3632 33.9502 65.8526 33.6795 63.7208 33.8729ZM71.8831 35.8838C75.5129 36.2318 79.4692 37.0246 82.5036 38.0301L83.6943 38.4361V39.4803V40.5244H67.6579H51.6023L51.6599 39.4223L51.7175 38.3395L52.7738 37.9721C55.3473 37.0826 59.5917 36.1932 62.6645 35.9031C64.9692 35.6711 69.5016 35.6711 71.8831 35.8838ZM85.999 44.1982V45.7451H67.5619H49.1248V44.1982V42.6514H67.5619H85.999V44.1982ZM88.4957 50.0957V52.3193H67.3698H46.244V50.0957V47.8721H67.3698H88.4957V50.0957ZM90.2241 63.5342V72.6221H89.2639H88.3036V73.5889V74.5557H89.2639H90.2241L90.1857 79.3316L90.1281 84.127L89.2255 84.185L88.3036 84.243V85.2098V86.1572H89.2639H90.2241V91.668V97.1787H88.9758H87.7274V82.0967V67.0147H83.0221H78.3169V69.8184V72.6221H77.6447H76.9725V68.6002C76.9725 65.8352 76.8957 64.2883 76.7036 63.6115C75.993 60.9432 74.0533 58.6422 71.4606 57.3854C69.9818 56.6699 69.9433 56.6699 67.5619 56.6699C65.1804 56.6699 65.142 56.6699 63.6632 57.3854C61.1857 58.5842 59.3804 60.5951 58.5546 63.0895C58.1897 64.1529 58.1513 64.7523 58.1513 68.4648V72.6221H57.4791H56.8069V69.8184V67.0147H52.1016H47.3963V82.0967V97.1787H46.34H45.2838V91.668V86.1572H45.9559H46.6281V85.1904V84.2236H45.9559H45.2838V79.3897V74.5557H45.9559H46.6281V73.5889V72.6221H45.9559H45.2838V63.5342V54.4463H67.7539H90.2241V63.5342ZM69.8473 58.8162C72.6321 59.7057 74.6486 62.1613 75.052 65.1391C75.148 65.7965 75.2248 67.7494 75.2056 69.4703L75.1864 72.6221H74.0725H72.9394V73.5889V74.5363L74.0533 74.5943L75.148 74.6523V79.3897V84.127L74.0533 84.185L72.9394 84.243V85.1904V86.1572H74.0725H75.2056L75.1864 91.6293L75.148 97.082H67.5619H59.9758L59.9182 91.6293L59.8798 86.1766L61.0705 86.1186L62.2804 86.0605L62.3381 85.1518L62.3957 84.243L61.1857 84.185L59.9758 84.127V79.3897V74.6523L61.1857 74.5943L62.3765 74.5363V73.5889V72.6221H61.1281H59.8798V69.3736C59.8798 67.5947 59.9758 65.5838 60.091 64.8877C60.8208 60.3051 65.4877 57.4047 69.8473 58.8162ZM54.8864 83.0635V97.1787H52.1016H49.3169V83.0635V68.9482H52.1016H54.8864V83.0635ZM85.8069 83.0635V97.1787H83.0221H80.2374V83.0635V68.9482H83.0221H85.8069V83.0635ZM58.0553 79.3897V84.127H57.4791H56.903L56.8453 79.3316L56.8069 74.5363L57.4215 74.5943L58.0553 74.6523V79.3897ZM78.2784 79.3316L78.2208 84.127H77.6447H77.0685L77.0109 79.583C76.9917 77.0887 77.0109 74.9424 77.0493 74.807C77.1069 74.6717 77.4142 74.5557 77.7407 74.5557H78.3169L78.2784 79.3316ZM58.1129 91.61L58.0553 97.082L57.4407 97.14L56.8069 97.198V91.6873V86.1572H57.4791H58.1513L58.1129 91.61ZM78.3169 91.668V97.1787H77.6447H76.9725V91.668V86.1572H77.6447H78.3169V91.668Z" fill="#08536B"/>
<path d="M50.4696 58.3715C47.9153 60.0924 49.0292 64.1143 52.0636 64.1143C53.8881 64.1143 55.2709 62.7801 55.2709 61.0012C55.2709 59.9184 54.6179 58.7582 53.7345 58.2941C52.7742 57.7721 51.2762 57.8107 50.4696 58.3715ZM52.6398 59.8797C53.1776 60.1697 53.3504 60.4211 53.3504 61.0012C53.3504 61.6973 52.8127 62.1807 52.0828 62.1807C50.7961 62.1807 50.4504 60.5178 51.6219 59.9184C52.2173 59.6283 52.1405 59.6283 52.6398 59.8797Z" fill="#08536B"/>
<path d="M81.4653 58.2748C79.9673 59.2223 79.5064 60.7885 80.2554 62.316C80.8508 63.5342 81.7342 64.1143 82.9633 64.1143C85.8633 64.1143 87.2077 60.9625 85.2488 58.8355C84.5574 58.1008 84.4422 58.0428 83.2898 57.9848C82.3296 57.9268 81.9263 57.9848 81.4653 58.2748ZM83.77 60.073C84.711 60.8078 84.2117 62.2193 82.9826 62.2193C82.3872 62.2193 81.7726 61.5813 81.7726 60.9238C81.7726 60.4598 82.5792 59.667 83.021 59.667C83.1554 59.667 83.4819 59.841 83.77 60.073Z" fill="#08536B"/>
</g>
<defs>
<clipPath id="clip0_6_11417">
<rect width="85" height="85" fill="white" transform="translate(25.0586 20.9346)"/>
</clipPath>
</defs>
</svg>
