<svg width="56" height="58" viewBox="0 0 56 58" fill="none" xmlns="http://www.w3.org/2000/svg">
<path d="M39.7818 14.7852H42.7686C43.1569 12.6291 44.283 10.9546 46.2807 9.91222C47.6389 9.19023 49.2193 8.98335 50.7222 9.33082C53.9765 10.0421 56.0902 12.8414 55.8936 16.1635C55.6906 19.6123 53.0937 21.7795 48.5925 22.1835V22.8599C48.5925 25.7844 48.6102 28.7104 48.5925 31.6348C48.5699 34.4706 46.6109 36.3875 43.7369 36.4207C42.6526 36.435 41.5668 36.4207 40.4826 36.4207H39.8237C39.8092 36.6694 39.7899 36.8801 39.7899 37.0908C39.7899 40.9045 39.7899 44.7188 39.7899 48.5336C39.7899 50.075 39.7899 51.6148 39.7899 53.1547C39.7705 56.0062 37.8695 57.8645 34.9793 57.8645C25.2327 57.8645 15.486 57.8645 5.73931 57.8645C2.81209 57.8645 0.90625 55.9936 0.90625 53.1214C0.90625 37.2308 0.90625 21.3396 0.90625 5.44793C0.90625 2.57101 2.81209 0.695312 5.73931 0.695312H34.9793C37.8792 0.695312 39.7818 2.55042 39.7947 5.39724C39.8076 8.28207 39.7947 11.1669 39.7947 14.0502L39.7818 14.7852ZM2.73798 48.3434H37.9211V36.454C37.7068 36.4429 37.5296 36.4255 37.354 36.4255C35.4208 36.4255 33.4956 36.4366 31.5656 36.416C31.3057 36.3988 31.0465 36.4576 30.8206 36.5851C30.5947 36.7125 30.4122 36.9028 30.2961 37.132C29.5856 38.3233 28.8365 39.4941 28.0971 40.6696C26.8566 42.6371 24.432 42.6451 23.1867 40.6822C22.4311 39.4941 21.6739 38.3059 20.9506 37.0972C20.6477 36.5934 20.2498 36.3653 19.6618 36.4096C19.4427 36.4255 19.2203 36.4096 18.9996 36.4096C15.9951 36.4096 14.02 34.4753 14.0135 31.5129C14.0049 27.5809 14.0049 23.6478 14.0135 19.7137C14.0022 19.3188 14.0325 18.9238 14.1037 18.535C14.587 16.276 16.4816 14.8217 18.9481 14.8185C25.0377 14.8111 31.1274 14.8111 37.2171 14.8185H37.9178V10.2227H2.73798V48.3434ZM30.5297 16.6023C26.652 16.6023 22.7726 16.6023 18.8933 16.6023C17.1405 16.6023 15.8549 17.7509 15.8452 19.3778C15.8205 23.5485 15.8205 27.7203 15.8452 31.8931C15.8491 32.5428 16.0873 33.17 16.5175 33.6632C16.9476 34.1564 17.5417 34.4834 18.1941 34.5862C18.7132 34.646 19.2366 34.6614 19.7584 34.6322C20.9506 34.6147 21.8399 35.0963 22.4553 36.1055C23.2006 37.3242 23.9578 38.5356 24.7268 39.7396C25.2713 40.6014 25.9963 40.5983 26.5424 39.7396C27.2722 38.5816 28.0181 37.4314 28.7093 36.2544C29.3682 35.1296 30.3203 34.629 31.63 34.6369C35.6302 34.6623 39.6287 34.6496 43.6273 34.6448C45.6089 34.6448 46.7656 33.501 46.7704 31.5445C46.7704 28.4221 46.7704 25.2996 46.7817 22.1756C46.7817 21.7874 46.6625 21.5926 46.2984 21.4104C45.4396 20.9915 44.6883 20.387 44.1008 19.6421C43.5132 18.8973 43.1046 18.0314 42.9056 17.1093C42.8009 16.6673 42.6172 16.6007 42.2209 16.6023C38.3287 16.6071 34.4268 16.6023 30.5297 16.6023ZM37.9146 50.2049H2.70576C2.70576 51.1554 2.75893 52.0568 2.69449 52.9582C2.55272 54.9385 4.02519 56.1156 5.88108 56.1061C15.523 56.0601 25.165 56.0839 34.807 56.0839C34.9874 56.0839 35.1678 56.0839 35.3483 56.0839C36.6081 56.0173 37.7777 55.1334 37.8888 53.95C38.0048 52.7174 37.9146 51.4707 37.9146 50.2049ZM2.71542 8.38188H37.971C37.971 7.43136 37.971 6.50776 37.971 5.58576C37.971 3.51362 36.9287 2.49022 34.8279 2.49022H5.82953C5.6491 2.49022 5.46705 2.49022 5.28662 2.49022C3.94141 2.57418 2.79759 3.59916 2.73154 4.89346C2.67032 6.03567 2.71542 7.18105 2.71542 8.37713V8.38188ZM49.2997 10.9974C46.9557 10.8754 44.6793 12.9428 44.5649 15.2985C44.4328 18.017 46.3838 20.2096 49.0854 20.368C51.626 20.5264 53.9507 18.4907 54.0796 16.0019C54.2423 13.2755 52.1963 11.1431 49.2997 10.9926V10.9974Z" fill="#08536B"/>
<path d="M31.2805 26.4894H20.0034C19.069 26.4894 18.6421 26.2137 18.6292 25.6149C18.6163 24.9907 19.0593 24.6992 20.0243 24.6992H42.5641C43.5549 24.6992 43.9673 24.9685 43.9625 25.6054C43.9577 26.2422 43.5533 26.4894 42.5432 26.4894H31.2805Z" fill="#08536B"/>
<path d="M31.3645 20.0243H39.4357C39.5968 20.0173 39.7582 20.02 39.919 20.0322C40.4023 20.0861 40.689 20.349 40.7342 20.8243C40.7793 21.2996 40.5279 21.6164 40.072 21.7542C39.8562 21.7999 39.6349 21.8154 39.4147 21.8002H23.2014C22.9814 21.8155 22.7602 21.8011 22.5441 21.7574C22.0898 21.6275 21.8337 21.3154 21.8755 20.8306C21.9174 20.3459 22.1977 20.0829 22.6811 20.0259C22.8612 20.0129 23.0419 20.0103 23.2224 20.0179L31.3645 20.0243Z" fill="#08536B"/>
<path d="M31.2875 29.3994H39.4199C39.6004 29.3885 39.7815 29.3928 39.9612 29.4121C40.1653 29.4291 40.356 29.5191 40.497 29.6651C40.6381 29.8111 40.7197 30.0029 40.7265 30.2042C40.7716 30.6795 40.5251 30.9963 40.074 31.1452C39.9385 31.1803 39.7981 31.1932 39.6584 31.1832C34.0961 31.1832 28.5343 31.1832 22.973 31.1832C22.2642 31.1832 21.8711 30.8537 21.8711 30.2898C21.8711 29.7258 22.2577 29.4074 22.9763 29.4074C25.7461 29.3968 28.5166 29.3942 31.2875 29.3994Z" fill="#08536B"/>
<path d="M20.3402 53.9861C20.1001 53.9861 19.8569 54.002 19.62 53.9861C19.4054 53.9846 19.1997 53.9011 19.0465 53.7533C18.8932 53.6056 18.8042 53.405 18.7984 53.194C18.7533 52.7314 18.9901 52.3433 19.467 52.2847C20.0415 52.215 20.6226 52.215 21.1972 52.2847C21.6805 52.3417 21.9141 52.7203 21.8738 53.1893C21.8706 53.3991 21.7849 53.5995 21.6348 53.7487C21.4846 53.8978 21.2817 53.984 21.0683 53.9893C20.8235 54.0036 20.5802 53.9861 20.3402 53.9861Z" fill="#08536B"/>
<path d="M20.3744 4.56114C21.4779 4.56114 22.5799 4.55322 23.6834 4.56114C24.3472 4.56114 24.7499 4.90016 24.766 5.41819C24.7821 5.93623 24.3601 6.3402 23.6754 6.34337C21.4511 6.35499 19.2257 6.35499 16.9993 6.34337C16.3017 6.34337 15.9086 5.9695 15.9264 5.41185C15.9457 4.87798 16.3243 4.56589 17.0057 4.56114C18.1286 4.55322 19.2515 4.56114 20.3744 4.56114Z" fill="#08536B"/>
</svg>
