<svg width="77" height="77" viewBox="0 0 77 77" fill="none" xmlns="http://www.w3.org/2000/svg">
<path d="M24.188 16.0551C23.866 16.1501 23.8555 16.2134 23.8555 18.1873V19.9659L24.0085 20.119L24.1616 20.272H28.9591C33.8094 20.2773 34.7963 20.3037 35.5299 20.4568C37.5882 20.879 39.4355 22.2195 40.5438 24.0879C40.7813 24.489 41.1666 25.3915 41.1666 25.5551C41.1666 25.6554 40.9924 25.6554 32.7485 25.6554C23.5705 25.6554 24.0244 25.6395 23.9082 25.9456C23.8766 26.0301 23.8555 26.8112 23.8555 27.8509V29.6243L24.0085 29.7773L24.1616 29.9304H32.6641C41.098 29.9304 41.1666 29.9304 41.1666 30.0359C41.1666 30.1943 40.9238 30.8065 40.6599 31.2973C40.0899 32.374 39.2191 33.3345 38.2005 34.0101C37.298 34.6118 36.5274 34.939 35.4666 35.1712C34.9863 35.2715 34.7594 35.2768 29.5449 35.3084L24.1246 35.3401L24.0032 35.4615C23.8819 35.5776 23.8819 35.5882 23.8819 37.0818V38.5859L34.6749 49.3843C40.6124 55.3218 45.5366 60.2143 45.6157 60.2565C45.9271 60.4254 45.9958 60.3726 47.7216 58.6468C48.7877 57.5859 49.3524 56.9843 49.3735 56.884C49.3946 56.8048 49.3946 56.6782 49.3788 56.6043C49.3577 56.5198 46.2438 53.369 40.9132 48.0437L32.4846 39.6204L33.9096 39.5834C35.4032 39.5465 35.9574 39.4832 36.881 39.2456C37.6832 39.0451 38.2691 38.8234 39.0819 38.4276C41.8949 37.0448 43.911 34.8862 44.9877 32.0837C45.2041 31.5137 45.4416 30.7484 45.5208 30.3526C45.5419 30.2523 45.5894 30.1151 45.6316 30.0465L45.7055 29.9304H48.8246H51.9438L52.0969 29.7773L52.2499 29.6243V27.8509C52.2499 26.8534 52.2288 26.0248 52.1971 25.9509C52.0863 25.6554 52.1074 25.6554 48.7824 25.6554C47.1041 25.6554 45.7055 25.6343 45.6685 25.6131C45.6369 25.592 45.5471 25.3123 45.468 24.9957C45.0985 23.502 44.4863 22.1773 43.5363 20.842C43.3357 20.5623 43.1721 20.3195 43.1721 20.3037C43.1721 20.2879 45.146 20.272 47.558 20.272H51.9438L52.0969 20.119L52.2499 19.9659V18.1873C52.2499 16.224 52.2394 16.1659 51.928 16.0551C51.7116 15.9812 24.4466 15.9812 24.188 16.0551ZM51.1416 18.1609V19.2165H46.4971C41.5255 19.2165 41.573 19.2165 41.4357 19.4698C41.3513 19.6282 41.3671 19.9132 41.4674 20.0609C41.5149 20.1348 41.7155 20.367 41.916 20.5781C43.1827 21.924 44.1221 23.7765 44.5285 25.7345C44.671 26.4259 44.7027 26.5104 44.8716 26.6265C44.9771 26.7004 45.373 26.7109 48.0646 26.7109H51.1416V27.7929V28.8748L48.0277 28.8854C44.9296 28.9012 44.9138 28.9012 44.803 29.012C44.7238 29.0965 44.6446 29.3287 44.5338 29.8301C44.1432 31.5929 43.531 32.9704 42.5494 34.274C41.1824 36.0895 38.9235 37.599 36.7016 38.1848C35.6724 38.454 35.2713 38.4909 33.0494 38.5173C31.0755 38.5437 30.9752 38.549 30.8432 38.6493C30.6638 38.797 30.6057 38.9606 30.6691 39.177C30.706 39.309 32.7749 41.4095 39.3827 48.0173L48.0541 56.6887L46.9194 57.8234L45.7846 58.9582L35.398 48.5768C26.7319 39.9054 25.006 38.1584 24.9638 37.9948C24.9321 37.884 24.9163 37.4829 24.9216 37.0976L24.9374 36.3957L30.0305 36.3693C33.7988 36.3482 35.2132 36.3218 35.4666 36.2743C37.2769 35.9207 38.6227 35.2345 39.9052 34.0048C41.0769 32.8806 41.726 31.8568 42.2221 30.3262C42.4438 29.6507 42.4649 29.1968 42.2855 29.0226L42.1641 28.9012L33.5666 28.8854L24.9638 28.8748V27.7929V26.7109H33.5455H42.1271L42.2802 26.5579C42.4755 26.3626 42.4755 26.1884 42.3013 25.5709C41.5994 23.1643 40.1427 21.317 38.1213 20.2826C37.0552 19.739 35.8096 19.3643 34.7435 19.2745C34.3741 19.2376 32.2682 19.2165 29.5449 19.2165H24.9638V18.1609V17.1054H38.0527H51.1416V18.1609Z" fill="#08536B"/>
</svg>
