<svg width="58" height="67" viewBox="0 0 58 67" fill="none" xmlns="http://www.w3.org/2000/svg">
<path d="M54.2183 11.2396L28.7525 1.69531L3.28297 11.2396C3.28297 11.2396 -0.80843 23.7812 2.61717 42.4502C4.1877 45.8205 8.05655 55.6465 28.7488 65.8939C49.4392 55.6465 53.3099 45.8205 54.8805 42.4502C58.3097 23.7812 54.2183 11.2396 54.2183 11.2396Z" stroke="#08536B" stroke-width="2" stroke-miterlimit="10" stroke-linejoin="round"/>
<path d="M37.7244 29.6885C37.7244 27.3484 36.7791 25.1042 35.0964 23.4495C33.4137 21.7948 31.1315 20.8652 28.7518 20.8652C27.5733 20.865 26.4064 21.093 25.3175 21.5363C24.2287 21.9797 23.2394 22.6295 22.406 23.4489C21.5726 24.2682 20.9115 25.241 20.4605 26.3116C20.0095 27.3822 19.7773 28.5297 19.7773 29.6885C19.7765 31.0617 20.1019 32.4161 20.7277 33.6438C21.3535 34.8714 22.2623 35.9383 23.3817 36.7593V41.3906C23.3817 42.8054 23.9532 44.1623 24.9706 45.1627C25.9879 46.1631 27.3678 46.7251 28.8065 46.7251C29.519 46.7254 30.2245 46.5875 30.8828 46.3195C31.541 46.0515 32.1392 45.6586 32.6429 45.1632C33.1467 44.6678 33.5463 44.0797 33.8188 43.4323C34.0914 42.785 34.2315 42.0912 34.2313 41.3906V36.675C35.3192 35.8517 36.2 34.7934 36.8057 33.582C37.4114 32.3706 37.7257 31.0384 37.7244 29.6885Z" stroke="#08536B" stroke-width="2" stroke-miterlimit="10" stroke-linejoin="round"/>
</svg>
