<svg width="71" height="71" viewBox="0 0 71 71" fill="none" xmlns="http://www.w3.org/2000/svg">
<path d="M32.0727 57.8975H54.0898V24.4835C54.0884 24.2886 54.0349 24.0976 53.935 23.9303C53.835 23.763 53.6921 23.6254 53.5211 23.5319L33.6914 12.6928C33.5246 12.6016 33.3369 12.5554 33.1468 12.5588C32.9567 12.5622 32.7708 12.6151 32.6074 12.7122C32.444 12.8094 32.3087 12.9475 32.215 13.1129C32.1212 13.2782 32.0721 13.4652 32.0727 13.6553V57.8975Z" stroke="#08536B" stroke-width="1.5" stroke-linecap="round"/>
<path d="M16.7031 57.8973H31.9609V23.8379L17.2172 32.2707C17.0596 32.3692 16.9296 32.5063 16.8397 32.6689C16.7498 32.8316 16.7028 33.0145 16.7031 33.2004V57.8973Z" stroke="#08536B" stroke-width="1.5" stroke-linecap="round"/>
<path d="M39.4211 27.416H47.1211" stroke="#08536B" stroke-width="1.5" stroke-linecap="round"/>
<path d="M22.4039 35.6738H26.2539" stroke="#08536B" stroke-width="1.5" stroke-linecap="round"/>
<path d="M22.4039 40.584H26.2539" stroke="#08536B" stroke-width="1.5" stroke-linecap="round"/>
<path d="M22.4039 45.8457H26.2539" stroke="#08536B" stroke-width="1.5" stroke-linecap="round"/>
<path d="M22.4039 50.7441H26.2539" stroke="#08536B" stroke-width="1.5" stroke-linecap="round"/>
<path d="M39.4211 33.5176H47.1211" stroke="#08536B" stroke-width="1.5" stroke-linecap="round"/>
<path d="M39.4211 39.5332H47.1211" stroke="#08536B" stroke-width="1.5" stroke-linecap="round"/>
<path d="M39.4211 45.5488H47.1211" stroke="#08536B" stroke-width="1.5" stroke-linecap="round"/>
<path d="M39.4211 51.5645H47.1211" stroke="#08536B" stroke-width="1.5" stroke-linecap="round"/>
<path d="M59.8086 57.8984H10.5023" stroke="#08536B" stroke-width="1.5" stroke-linecap="round"/>
</svg>
