<svg width="136" height="136" viewBox="0 0 136 136" fill="none" xmlns="http://www.w3.org/2000/svg">
<path d="M52.2578 44.502V47.7539H53.3125H54.3672V52.3242V56.8945H46.1934H38.0195V59.4434V61.9922H36.0859H34.1523V80.0977V98.2031L43.6094 98.2207C48.7949 98.2207 58.4277 98.2559 65.002 98.3086C71.5762 98.3438 82.9844 98.3262 90.3672 98.2559L103.762 98.1504V80.0625V61.9922H102.883H102.004V59.4434V56.8945L93.0918 56.8594L84.1621 56.8066L84.1445 52.2715L84.127 47.7539H84.8828H85.6562V44.502V41.25H68.957H52.2578V44.502ZM83.8984 44.502V45.9961H68.957H54.0156V44.502V43.0078H68.957H83.8984V44.502ZM61.0117 50.7773L60.959 53.8184H58.5859H56.2129L56.1602 50.7773L56.125 47.7539H58.5859H61.0469L61.0117 50.7773ZM75.4609 50.8301V53.9062L69.0977 53.8711L62.7168 53.8184L62.6641 50.7773L62.6289 47.7539H69.0449H75.4609V50.8301ZM82.457 50.7773L82.4043 53.8184L79.8203 53.8711L77.2188 53.9238V50.8301V47.7539H79.8555H82.4922L82.457 50.7773ZM82.4043 55.6465C82.457 55.7344 82.4395 56.4902 82.3867 57.3164L82.2637 58.8281H69.3086H56.3535L56.2305 57.3164C56.1777 56.4902 56.1602 55.7344 56.2129 55.6465C56.2832 55.5586 61.5566 55.4883 69.3086 55.4883C77.0605 55.4883 82.334 55.5586 82.4043 55.6465ZM54.3672 60.3223V61.9922H47.0723H39.7773V60.3223V58.6523H47.0723H54.3672V60.3223ZM100.246 60.3223V61.9922H92.248H84.25V60.3223V58.6523H92.248H100.246V60.3223ZM82.4922 61.2891V61.9922H79.6797H76.8672V63.1348V64.2773H68.957H61.0469V63.1348V61.9922H58.5859H56.125V61.2891V60.5859H69.3086H82.4922V61.2891ZM38.5469 65.9473V68.1621L37.1934 68.1094L35.8223 68.0566L35.7695 65.8945L35.7168 63.75H37.1406H38.5469V65.9473ZM44.1367 65.8945L44.084 68.0566H42.2383H40.3926L40.3398 65.8945L40.2871 63.75H42.2383H44.1895L44.1367 65.8945ZM49.709 65.9473V68.0566L47.8281 68.1094L45.9297 68.1621V65.9473V63.7324L47.8281 63.7852L49.709 63.8379V65.9473ZM55.2461 65.9473V68.1621L53.3652 68.1094L51.4668 68.0566L51.4141 65.8945L51.3613 63.75H53.3125H55.2461V65.9473ZM59.2539 65.8945L59.2012 68.0566L58.1113 68.1094L57.0039 68.1621V65.9473V63.75H58.1465H59.3066L59.2539 65.8945ZM81.4375 65.9473V68.1621L80.084 68.1094L78.7129 68.0566L78.6602 65.8945L78.6074 63.75H80.0312H81.4375V65.9473ZM87.0273 65.8945L86.9746 68.0566L85.0938 68.1094L83.1953 68.1621V65.9473V63.75H85.1289H87.0801L87.0273 65.8945ZM92.5117 65.9473V68.1445H90.666H88.8203V65.9473V63.75H90.666H92.5117V65.9473ZM98.1016 65.8945L98.0488 68.0566H96.2031H94.3574L94.3047 65.8945L94.252 63.75H96.2031H98.1543L98.1016 65.8945ZM102.145 65.8945L102.092 68.0566L101.002 68.1094L99.8945 68.1621V65.9473V63.75H101.037H102.197L102.145 65.8945ZM76.8672 81.2402V96.4453H76.3398H75.8125V86.6895C75.8125 80.1504 75.7422 76.6523 75.6191 76.0195C75.1621 73.8926 73.8086 72.2051 71.8047 71.2559C70.7324 70.7461 70.4688 70.6934 68.957 70.6934C67.4453 70.6934 67.1816 70.7461 66.127 71.2559C64.7383 71.9414 63.4902 73.207 62.8398 74.6133L62.3652 75.6152L62.3125 86.0215L62.2598 96.4453H61.6621H61.0469V81.2402V66.0352H68.957H76.8672V81.2402ZM59.2539 83.1211L59.2891 96.4453H47.5117H35.7344V83.209C35.7344 75.9141 35.7871 69.9023 35.8574 69.8496C35.9102 69.7793 41.2012 69.7441 47.582 69.7617L59.2012 69.8145L59.2539 83.1211ZM102.145 83.1211L102.18 96.4453H90.4023H78.625V83.209C78.625 75.9141 78.6777 69.9023 78.748 69.8496C78.8008 69.7793 84.0918 69.7441 90.4727 69.7617L102.092 69.8145L102.145 83.1211ZM71.4004 72.9961C71.9277 73.2773 72.6133 73.8398 72.9297 74.2793C74.0547 75.7383 74.0547 75.7734 74.0547 86.6367V96.4453H69.0449H64.0352V86.2852V76.125L64.4922 75.2109C65.0195 74.1387 66.2324 73.0137 67.252 72.6445C68.4297 72.2051 70.2578 72.3633 71.4004 72.9961Z" fill="#08536B"/>
<path d="M40.832 76.1426V80.0977H41.7109H42.5898V76.1426V72.1875H41.7109H40.832V76.1426Z" fill="#08536B"/>
<path d="M46.6328 76.1426V80.0977H47.5117H48.3906V76.1426V72.1875H47.5117H46.6328V76.1426Z" fill="#08536B"/>
<path d="M53.1367 76.1426V80.0977H54.0156H54.8945V76.1426V72.1875H54.0156H53.1367V76.1426Z" fill="#08536B"/>
<path d="M83.7227 76.1426V80.0977H84.6016H85.4805V76.1426V72.1875H84.6016H83.7227V76.1426Z" fill="#08536B"/>
<path d="M89.5234 76.1426V80.0977H90.4023H91.2812V76.1426V72.1875H90.4023H89.5234V76.1426Z" fill="#08536B"/>
<path d="M96.0273 76.1426V80.0977H96.9062H97.7852V76.1426V72.1875H96.9062H96.0273V76.1426Z" fill="#08536B"/>
<circle cx="67.957" cy="68.2246" r="67" stroke="#6C8C91"/>
</svg>
