<svg width="55" height="52" viewBox="0 0 55 52" fill="none" xmlns="http://www.w3.org/2000/svg">
<path d="M55.0078 38.7061V43.4055C54.7101 43.4612 54.4112 43.5645 54.119 43.5614C53.0668 43.55 52.4969 44.0623 52.2825 44.9681C52.2339 45.1465 52.2527 45.335 52.3358 45.5021C52.6624 46.0185 53.0346 46.4987 53.4157 47.0317C52.8069 47.5873 52.2191 48.1203 51.6381 48.6584C51.057 49.1965 50.4604 49.7573 49.8749 50.3037C49.3649 49.9876 48.8983 49.7335 48.4783 49.4268C48.1228 49.1665 47.8339 49.2306 47.4173 49.3307C46.5351 49.5435 46.2418 50.0537 46.1896 50.818C46.1663 51.1464 46.0585 51.4697 45.9896 51.7961H2.69739C2.69739 51.5968 2.68294 51.3974 2.68294 51.1981C2.68294 45.6897 2.68294 40.1813 2.68294 34.673C2.68294 30.0473 2.68294 25.4209 2.68294 20.7939C2.68294 20.5398 2.69405 20.3446 2.34963 20.2186C0.823085 19.6619 0.0275905 18.5454 0.0164802 17.0169C0.00981407 16.3352 -0.00241318 15.6525 0.0242514 14.9709C0.0316218 14.6753 0.0940252 14.3832 0.208686 14.1074C1.43859 11.3271 2.66738 8.54567 3.94062 5.78184C4.31104 5.02717 4.48572 4.20219 4.45059 3.3733C4.40392 2.48301 4.44058 1.58756 4.44058 0.697266H39.9456C39.9456 1.86642 39.9301 2.99632 39.9545 4.1252C39.9605 4.45424 40.0301 4.7796 40.1601 5.08572C41.4933 8.11292 42.8576 11.1319 44.2053 14.1549C44.297 14.3337 44.3523 14.5266 44.3686 14.724C44.3842 15.5554 44.4086 16.3889 44.3686 17.2193C44.2909 18.626 43.5454 19.6444 42.1388 20.1856C41.7899 20.3209 41.7 20.4696 41.7022 20.797C41.7144 23.8097 41.7099 26.8214 41.7099 29.8331V30.3496H45.9885C46.1141 30.9352 46.2207 31.4908 46.3596 32.0403C46.4007 32.2014 46.4907 32.4193 46.6262 32.4813C47.4039 32.8376 48.1295 33.1433 48.9772 32.439C49.7938 31.7604 49.8749 31.8441 50.6526 32.567L53.4124 35.1305C53.2213 35.398 53.0946 35.6469 52.8991 35.8359C52.2058 36.5062 52.0891 37.2147 52.6535 38.0048C52.6824 38.0441 52.6769 38.1081 52.7113 38.1422C52.8069 38.229 52.9058 38.3488 53.0224 38.3736C53.6712 38.4934 54.3401 38.5956 55.0078 38.7061ZM9.77795 43.5087V42.9923C9.77795 41.8779 9.77795 40.7625 9.77795 39.647C9.78573 37.4719 10.9301 36.0321 13.161 35.3939C14.8187 34.9229 16.4808 34.4643 18.1395 33.9995C18.3017 33.9541 18.5062 33.8963 18.5928 33.7847C18.7895 33.5265 18.5795 32.3388 18.3351 32.0961C17.614 31.3731 17.0707 30.5375 16.9774 29.5491C16.8876 28.472 16.8572 27.3913 16.8863 26.3112C16.8951 25.7809 16.983 25.2544 17.1474 24.7465C17.9073 22.4113 20.4071 20.9819 23.0358 21.3382C25.4801 21.6718 27.451 23.7581 27.5077 26.0892C27.5299 27.0043 27.5299 27.9193 27.5077 28.8344C27.481 29.9333 27.1344 30.96 26.3267 31.7604C25.8178 32.2644 25.7001 32.7808 25.7223 33.4191C25.7334 33.7703 25.8589 33.9097 26.2045 34.0016C27.6488 34.3879 29.0698 34.8372 30.5219 35.1863C32.2151 35.5922 33.6206 36.2996 34.2994 37.9036C34.7649 37.3159 34.9271 36.7789 34.3338 36.1964C34.0328 35.901 33.8339 35.5157 33.5561 35.1233C34.3794 34.3631 35.1793 33.605 36.0004 32.8717C36.1325 32.7642 36.2369 32.6303 36.3058 32.4801C36.3746 32.3299 36.4062 32.1672 36.3981 32.0041C36.3826 28.3097 36.3892 24.6153 36.3892 20.9199V20.3549C34.9627 20.607 33.8061 20.2517 32.834 19.3159C32.0951 20.0389 31.2185 20.4386 30.1597 20.4386C29.1009 20.4386 28.2388 20.009 27.501 19.318C26.7533 20.0482 25.8878 20.4355 24.8468 20.4386C23.8058 20.4417 22.9247 20.0162 22.1803 19.3221C21.4348 20.0327 20.576 20.4345 19.5339 20.4386C18.474 20.4386 17.6051 20.0255 16.8807 19.3366C15.292 20.7722 13.2055 20.8362 11.6034 19.4151C11.0245 19.7136 10.499 20.0885 9.90461 20.2641C9.31021 20.4396 8.65915 20.4097 8.0292 20.4706V43.5087H9.77795ZM4.43726 50.1012H36.8514C36.6726 49.9215 36.5592 49.8007 36.437 49.6881C35.6026 48.9114 34.7816 48.1203 33.9228 47.3674C33.6039 47.0875 33.6028 46.8881 33.8539 46.5814C34.1939 46.1682 34.4861 45.7148 34.8605 45.1922H6.20378V19.4378C5.75159 19.6991 5.37051 20.0007 4.93055 20.1504C4.49058 20.3002 4.42947 20.5026 4.42947 20.8796C4.43984 30.4312 4.44244 39.9827 4.43726 49.5342V50.1012ZM42.4421 32.0031C42.331 32.503 42.2555 32.9647 42.1088 33.4067C42.0344 33.5886 41.887 33.7367 41.6977 33.8198C40.8867 34.1607 40.0649 34.4798 39.2324 34.7773C39.0343 34.8438 38.8164 34.8371 38.6235 34.7587C38.1791 34.5294 37.7614 34.2423 37.3947 34.0161L35.8693 35.3866C36.147 35.7739 36.4548 36.1633 36.707 36.5816C36.7857 36.7476 36.7909 36.9357 36.7214 37.1052C36.3992 37.8768 36.0548 38.6421 35.686 39.394C35.586 39.5807 35.4137 39.7253 35.2038 39.7988C34.7327 39.9362 34.2383 40.0054 33.7594 40.0994V41.9833C34.2572 42.0948 34.7594 42.1826 35.2482 42.3313C35.4421 42.4084 35.5981 42.5498 35.686 42.7279C36.0526 43.4853 36.3963 44.2493 36.717 45.0198C36.787 45.2045 36.7775 45.4073 36.6903 45.5857C36.4459 45.9989 36.1348 46.3893 35.9048 46.7218L37.3658 48.144C37.7603 47.8993 38.1702 47.6617 38.5613 47.3994C38.8013 47.2382 38.9835 47.2135 39.2746 47.356C39.9023 47.6658 40.5489 47.9953 41.2311 48.1451C41.9321 48.3 42.1388 48.6346 42.2577 49.244C42.4577 50.2768 42.1766 50.1291 43.402 50.1374C44.5131 50.1436 44.5131 50.1374 44.7353 49.1479C44.7674 49.0355 44.7919 48.9213 44.8086 48.8061C44.8375 48.5055 44.9797 48.3506 45.3219 48.2752C45.8052 48.1719 46.3307 48.0614 46.724 47.8032C47.6595 47.1907 48.4817 47.1835 49.2916 47.9561C49.506 48.1626 49.7027 48.1471 49.9182 47.9158C50.2017 47.6157 50.5057 47.3328 50.8281 47.0689C51.0592 46.8788 51.1048 46.7218 50.9037 46.4843C50.6726 46.2096 50.4937 45.8987 50.2682 45.6198C50.096 45.4133 50.0971 45.2511 50.226 45.0001C50.5993 44.2679 50.8926 43.5015 51.2559 42.763C51.3507 42.5707 51.5189 42.4179 51.7281 42.3344C52.1947 42.1867 52.8913 42.2518 53.1191 41.9688C53.3724 41.6528 53.2102 41.0485 53.2302 40.5693C53.2302 40.5363 53.2302 40.5022 53.2302 40.466C53.2768 40.1707 53.1191 40.0529 52.818 40.0095C52.4279 39.9632 52.0421 39.89 51.6636 39.7906C51.493 39.7331 51.3529 39.6165 51.2725 39.4652C50.9003 38.6772 50.5459 37.8819 50.216 37.0784C50.157 36.9077 50.1722 36.7224 50.2582 36.562C50.5104 36.1488 50.8137 35.7574 51.067 35.399C50.5659 34.9146 50.0982 34.4633 49.606 33.9861C49.1738 34.2526 48.7561 34.5376 48.3072 34.7711C48.1289 34.8456 47.9261 34.8519 47.7428 34.7886C46.8962 34.485 46.0578 34.161 45.2275 33.8167C45.0507 33.7381 44.9117 33.6011 44.8375 33.4325C44.6708 32.9719 44.7142 32.2964 44.3853 32.0754C44.0353 31.8348 43.3554 32.0093 42.8188 32.0031C42.7132 32.0021 42.6065 32.0031 42.4421 32.0031ZM16.8663 43.4953H27.5322V39.4394H29.2942V43.5087H32.0107V38.7578L32.6606 38.5853C32.3362 37.7301 31.6807 37.2426 30.7963 36.9968C29.0531 36.5052 27.3044 36.0301 25.5679 35.5188C25.199 35.4104 24.9868 35.493 24.7379 35.7347C23.9102 36.5351 23.058 37.3128 22.1948 38.1195C21.3126 37.2984 20.4571 36.5186 19.625 35.7171C19.3872 35.4878 19.1806 35.4145 18.8406 35.5106C17.1196 36.0115 15.3875 36.4804 13.6632 36.972C12.2189 37.3851 11.5523 38.2114 11.5356 39.6129C11.5256 40.7769 11.5356 41.9419 11.5356 43.1059C11.5356 43.234 11.56 43.3621 11.5745 43.5036H15.0842V39.4446H16.8707V43.4943L16.8663 43.4953ZM25.6889 27.4608C25.6889 26.9289 25.7223 26.3949 25.6823 25.8661C25.559 24.2518 24.0002 22.9442 22.2126 22.9267C20.4249 22.9091 18.8217 24.1939 18.7017 25.8186C18.6262 26.8957 18.6262 27.9762 18.7017 29.0534C18.795 30.4518 19.9605 31.623 21.4159 31.9122C22.1634 32.0643 22.9436 31.9881 23.6408 31.695C24.3379 31.402 24.9148 30.9076 25.2856 30.2855C25.8267 29.3859 25.7034 28.4172 25.6889 27.4608ZM6.25489 3.91244H38.118V2.33429H6.25489V3.91244ZM21.2604 13.8213V5.64861H18.5551C18.3106 8.39178 18.0684 11.0978 17.8251 13.8255L21.2604 13.8213ZM23.108 13.8027H26.5444C26.2956 11.0554 26.0511 8.34737 25.8056 5.63725H23.1103L23.108 13.8027ZM13.0632 5.6042C12.2722 5.6042 11.5767 5.62589 10.8845 5.59594C10.5123 5.57941 10.3524 5.69922 10.239 6.02456C9.36688 8.50333 8.47583 10.9728 7.59256 13.4464C7.55652 13.5702 7.5276 13.6957 7.50591 13.8224H10.8512C11.5812 11.1122 12.3089 8.40934 13.0632 5.6042ZM36.8292 13.8389C36.8437 13.7521 36.8614 13.7149 36.8514 13.6871C35.9204 11.0706 34.9856 8.45616 34.0472 5.84381C34.0139 5.75189 33.8917 5.62382 33.8083 5.62279C32.9973 5.60523 32.1851 5.61246 31.3852 5.61246C31.3727 5.67164 31.3667 5.73186 31.3674 5.79217C32.0529 8.38868 32.7362 10.9852 33.435 13.5776C33.4614 13.6395 33.5034 13.6945 33.5576 13.738C33.6118 13.7815 33.6764 13.8122 33.7461 13.8275C34.776 13.8502 35.8082 13.842 36.8292 13.842V13.8389ZM8.53138 5.6042C7.76589 5.6042 7.08704 5.62692 6.41154 5.59594C6.01823 5.57734 5.85603 5.72401 5.70938 6.04625C4.6239 8.50436 3.51844 10.9563 2.42074 13.4103C2.36408 13.5373 2.32629 13.6716 2.27185 13.8234H5.58272C6.55598 11.1184 7.52591 8.41244 8.53138 5.6042ZM42.1399 13.8399C40.9233 11.1246 39.7457 8.48887 38.5546 5.85724C38.5213 5.7957 38.4732 5.7421 38.4141 5.70056C38.3549 5.65902 38.2863 5.63065 38.2135 5.61763C37.4492 5.59594 36.6837 5.60626 35.9282 5.60626C35.9126 5.69302 35.8926 5.7302 35.9026 5.75809C36.8359 8.37422 37.7669 10.9904 38.7168 13.6013C38.7557 13.7098 38.9702 13.8265 39.1046 13.8296C40.0878 13.8513 41.0711 13.843 42.1399 13.843V13.8399ZM38.1736 19.474C38.1601 19.5053 38.1522 19.5384 38.1502 19.5721C38.1502 23.7798 38.1502 27.9875 38.1502 32.1952C38.1502 32.4565 38.6813 32.9533 38.9802 32.9874C39.3735 33.0318 39.9345 32.5743 39.9367 32.2076C39.9367 31.7087 39.9367 31.2099 39.9367 30.71C39.9367 27.405 39.9367 24.0917 39.9267 20.7815C39.9267 20.6039 39.8279 20.3519 39.6834 20.2651C39.2135 19.9769 38.7013 19.7466 38.1736 19.4771V19.474ZM27.591 5.65791C27.8343 8.38352 28.0777 11.0926 28.321 13.8172H31.6652C31.6185 13.621 31.5829 13.4454 31.5363 13.2719C30.9785 11.1938 30.4204 9.11613 29.862 7.03879C29.4531 5.50608 29.4564 5.50505 27.7355 5.62072C27.721 5.62589 27.7043 5.63312 27.591 5.661V5.65791ZM16.053 13.8172C16.2974 11.0606 16.5374 8.35254 16.7819 5.6042C16.213 5.6042 15.7308 5.61659 15.2509 5.6042C14.9564 5.59284 14.8542 5.70748 14.792 5.96465C14.6242 6.66077 14.4209 7.3507 14.2365 8.04372C13.7221 9.9596 13.2088 11.8765 12.6877 13.8224L16.053 13.8172ZM5.29608 15.5327H1.80634C1.80634 16.1379 1.773 16.7163 1.81411 17.2885C1.8422 17.6915 2.03225 18.0699 2.34653 18.3486C2.6608 18.6274 3.07633 18.7861 3.51065 18.7933C3.94532 18.8079 4.36989 18.6694 4.69946 18.4055C5.02903 18.1416 5.23931 17.7719 5.28829 17.3701C5.34607 16.7855 5.29608 16.1855 5.29608 15.5368V15.5327ZM12.4522 15.5234C12.4522 16.1431 12.4233 16.7236 12.4589 17.2988C12.5077 18.0982 13.181 18.7004 14.0599 18.784C14.8376 18.8574 15.7108 18.3761 15.8619 17.6479C16.0041 16.9621 15.973 16.2454 16.0197 15.5203L12.4522 15.5234ZM39.0057 15.5296C39.0435 16.2309 39.0179 16.9136 39.1324 17.5756C39.2568 18.2872 40.0378 18.7954 40.8211 18.7944C41.6044 18.7933 42.431 18.2439 42.5232 17.524C42.6065 16.8754 42.541 16.2102 42.541 15.5296H39.0057ZM26.6089 15.5296H23.0892C23.0892 16.0842 23.0769 16.612 23.0892 17.1387C23.1169 18.0549 23.798 18.7221 24.7557 18.7861C25.2083 18.8128 25.6543 18.6743 25.9988 18.4C26.3432 18.1257 26.5589 17.7373 26.6 17.3174C26.6567 16.7514 26.6044 16.1669 26.6044 15.5358L26.6089 15.5296ZM28.3865 15.5296C28.3865 16.1018 28.3865 16.6141 28.3865 17.1274C28.3936 17.2771 28.4197 17.4254 28.4643 17.5694C28.5652 17.9283 28.7936 18.2449 29.1125 18.4678C29.4314 18.6908 29.822 18.8069 30.2208 18.7975C31.0308 18.7685 31.8063 18.2108 31.8874 17.4868C31.9618 16.8506 31.9029 16.202 31.9029 15.5337L28.3865 15.5296ZM33.7294 15.5296C33.7294 16.0997 33.7128 16.6451 33.7294 17.1883C33.7374 17.6016 33.9139 17.9966 34.2233 18.2935C34.5327 18.5903 34.9519 18.7668 35.396 18.7871C36.2459 18.846 37.0859 18.2862 37.2058 17.4631C37.2981 16.8341 37.2236 16.1834 37.2236 15.5296H33.7294ZM7.13149 15.5296C7.13149 16.1793 7.06927 16.8103 7.14815 17.4259C7.24703 18.2046 7.98142 18.7541 8.81469 18.7923C9.62018 18.8284 10.4501 18.3048 10.5701 17.5395C10.6734 16.8826 10.5912 16.1968 10.5912 15.5296H7.13149ZM21.2782 15.5296H17.7085C17.7485 16.235 17.7151 16.9198 17.844 17.5777C17.994 18.3461 18.8317 18.8501 19.6405 18.784C20.5294 18.7107 21.2282 18.0827 21.2726 17.2658C21.3037 16.7112 21.2793 16.1462 21.2793 15.5358L21.2782 15.5296ZM20.3649 33.3396C20.4238 33.7042 20.3716 34.0326 20.5238 34.1968C21.0326 34.7442 21.6148 35.2296 22.2292 35.8008C22.6914 35.3474 23.0936 34.8981 23.5624 34.5129C23.9446 34.1937 24.0569 33.8519 23.9035 33.3768C22.7503 33.7132 21.5122 33.7024 20.366 33.3458L20.3649 33.3396ZM37.5414 49.9783L37.5758 50.0971H40.6323C40.41 49.3855 39.7001 49.401 39.2235 49.2481C38.5069 49.023 38.1536 49.8141 37.5425 49.9845L37.5414 49.9783Z" fill="#08536B"/>
<path d="M7.93994 48.4773H6.26562V46.8682H7.93994V48.4773Z" fill="#08536B"/>
<path d="M11.504 48.4665H9.80078V46.876H11.504V48.4665Z" fill="#08536B"/>
<path d="M15.0526 48.4738H13.3672V46.876H15.0526V48.4738Z" fill="#08536B"/>
<path d="M40.8851 37.6886C40.5518 37.2455 40.2296 36.8282 39.9141 36.4141C41.9628 34.777 45.5303 34.9836 47.6746 36.8334C49.9711 38.8143 50.341 42.077 48.4956 44.3916L47.1313 43.4848C48.2145 41.0246 48.0201 39.3814 46.5291 38.0955C45.2492 36.9883 43.1549 36.4151 40.8851 37.6886Z" fill="#08536B"/>
<path d="M38.464 37.7588L39.8339 38.6615C38.6518 40.5939 38.6874 42.4643 40.4461 44.0321C42.1126 45.5132 44.0525 45.539 46.0546 44.4525L47.0267 45.7125C45.4324 47.0552 41.7771 47.4818 39.264 45.3056C36.6842 43.0675 36.8475 39.6282 38.464 37.7588Z" fill="#08536B"/>
</svg>
