<svg width="136" height="136" viewBox="0 0 136 136" fill="none" xmlns="http://www.w3.org/2000/svg">
<g clip-path="url(#clip0_7_11427)">
<path d="M42.1293 34.5824C42.1293 35.5744 42.1134 35.6064 41.5705 35.8624C40.9158 36.1824 40.1014 37.2384 39.9577 37.9744C39.8938 38.3424 39.9737 38.7424 40.1972 39.2544C40.4527 39.8464 40.5325 40.3424 40.5325 41.5104V43.0144H38.5365H36.5405L36.5086 46.4864L36.4607 49.9744L35.9497 50.0224C35.4707 50.0704 35.4228 50.1184 35.4228 50.6144C35.4228 51.1104 35.4707 51.1584 35.9497 51.2064L36.4607 51.2544L36.5086 53.5264L36.5565 55.8144H35.9816C35.4387 55.8144 35.4228 55.8304 35.4228 56.4544C35.4228 57.0784 35.4387 57.0944 35.9816 57.0944H36.5405V59.1744V61.2544H35.9816C35.4387 61.2544 35.4228 61.2704 35.4228 61.8944C35.4228 62.5184 35.4387 62.5344 35.9816 62.5344H36.5405V66.3744V70.2144H33.5066H30.4727V85.4944V100.774H67.0395H103.606L103.638 84.8864L103.686 69.0144L104.133 68.9664C104.517 68.9184 104.564 68.8384 104.564 68.3584C104.564 67.8944 104.501 67.8144 104.213 67.8144C103.447 67.8144 103.431 67.7184 103.511 64.9184C103.543 63.4784 103.622 61.9584 103.686 61.5424C103.782 60.9184 103.734 60.6784 103.447 60.2144C103.255 59.9104 102.888 59.5264 102.632 59.3824C102.233 59.1424 102.169 59.0144 102.169 58.4224V57.7344H101.531H100.892V58.4384C100.892 58.9984 100.828 59.1744 100.588 59.2544C100.157 59.3824 99.327 60.3744 99.1992 60.8864C99.1353 61.1264 99.1513 61.5904 99.2471 61.9104L99.4068 62.5184L98.7681 61.9744C97.826 61.1584 96.5964 60.7424 95.0635 60.7264C94.3609 60.7264 93.4986 60.8064 93.1473 60.9184C92.1892 61.2384 91.0874 61.9744 90.6244 62.6464C90.1453 63.3024 90.0814 63.1264 90.4168 62.1504C90.7521 61.1744 90.321 60.0544 89.3788 59.5264C88.9796 59.2864 88.9158 59.1584 88.9158 58.4864V57.7344H88.293H87.6543L87.6064 58.4864C87.5745 58.9024 87.4627 59.2544 87.3509 59.3024C87.2072 59.3504 87.1593 59.0624 87.1593 58.2304V57.1104L86.5685 57.0624L85.9617 57.0144L85.8818 51.8144C85.802 46.8704 85.7701 46.5664 85.4347 45.7504C84.3968 43.2704 82.1932 41.2544 79.7501 40.5344C79.1114 40.3424 79.1114 40.3424 79.1593 39.5904C79.2072 38.6944 78.792 37.9104 77.9617 37.4144C77.4826 37.1104 77.4188 36.9984 77.4188 36.3584C77.4188 35.6544 77.4188 35.6544 76.8599 35.6544C76.301 35.6544 76.301 35.6544 76.301 36.3744C76.301 37.0304 76.2531 37.1424 75.7741 37.4144C75.0076 37.8784 74.4806 38.8704 74.5765 39.7344L74.6563 40.4064L73.826 40.6784C72.2132 41.1904 70.281 42.7104 69.2591 44.3104C68.1573 46.0224 67.8539 48.2144 67.8379 54.3264V57.0944H67.1194H66.4008V58.2944C66.4008 58.9504 66.3529 59.4944 66.305 59.4944C66.2571 59.4944 66.0814 59.4144 65.9058 59.3344C65.6822 59.2064 65.6024 58.9984 65.6024 58.4544C65.6024 57.7344 65.6024 57.7344 65.0435 57.7344C64.4846 57.7344 64.4846 57.7344 64.4846 58.4384C64.4846 59.0784 64.4367 59.1744 63.9258 59.4784C63.0954 59.9584 62.6962 60.6944 62.792 61.5744C62.824 61.9744 62.9038 62.5024 62.9677 62.7744L63.0794 63.2544L62.6802 62.6784C62.1852 61.9744 60.9876 61.1584 60.1094 60.9024C59.7421 60.8064 58.8798 60.7264 58.1772 60.7424C56.5804 60.7424 55.3828 61.1744 54.3289 62.1024C53.8339 62.5344 53.6104 62.6624 53.7062 62.4544C54.1533 61.3664 53.7381 60.1024 52.7162 59.4784C52.2531 59.1904 52.1892 59.0624 52.1892 58.4384V57.7344H51.5505H50.9118V58.4864C50.9118 59.1744 50.8639 59.2864 50.4327 59.5264C49.6503 59.9744 49.283 60.7104 49.3948 61.6544C49.4587 62.0864 49.5385 63.6544 49.5705 65.1264L49.6503 67.8144H49.2351C48.8838 67.8144 48.8359 67.8784 48.8359 68.3744C48.8359 68.8704 48.8838 68.9344 49.2351 68.9344C49.6024 68.9344 49.6343 68.9984 49.6343 69.5744C49.6343 70.1984 49.6184 70.2144 49.0755 70.2144H48.5166V56.6144V43.0144H46.7601H45.0036V41.3664C45.0036 40.1504 45.0675 39.5584 45.2591 39.1904C45.7701 38.1504 45.1792 36.6624 43.9497 35.9424C43.4228 35.6384 43.4068 35.5904 43.4068 34.5984V33.5744H42.7681H42.1293V34.5824ZM43.6782 37.3504C44.5725 38.3264 44.1254 39.3344 42.816 39.3344C42.0016 39.3344 41.5705 39.1424 41.3309 38.6944C41.0755 38.2304 41.5705 37.2704 42.1932 36.9984C42.8 36.7424 43.2152 36.8384 43.6782 37.3504ZM77.5305 38.7264C77.9297 39.0944 78.0096 39.6384 77.7062 39.9424C77.5944 40.0544 77.2271 40.1344 76.8599 40.1344C75.79 40.1344 75.4866 39.4944 76.2212 38.7744C76.7002 38.2784 77.0515 38.2784 77.5305 38.7264ZM43.7261 41.7344V43.0144H42.6882H41.6503V41.8464C41.6503 41.1904 41.6982 40.6144 41.7621 40.5664C41.81 40.5024 42.289 40.4544 42.8 40.4544H43.7261V41.7344ZM78.9038 41.6544C81.6184 42.3584 83.79 44.4704 84.4766 47.0464C84.5725 47.4624 84.6363 47.8464 84.5884 47.8784C84.5405 47.9264 83.9337 47.7184 83.2311 47.4144C82.5445 47.1104 81.2192 46.7104 80.293 46.5344C78.8559 46.2304 78.2651 46.1984 76.1413 46.2624C73.5066 46.3584 72.0216 46.6464 70.281 47.4144C69.802 47.6384 69.3709 47.8144 69.3549 47.8144C69.2271 47.8144 69.6583 46.3264 70.0096 45.6224C71.5106 42.5024 75.4547 40.7584 78.9038 41.6544ZM47.2391 47.1744V50.0544H42.5285H37.818V47.1744V44.2944H42.5285H47.2391V47.1744ZM78.7761 47.5744C79.8778 47.6864 81.2192 48.0064 82.4966 48.4864L83.3749 48.8224L82.7681 49.0144C82.4487 49.1424 81.9856 49.4144 81.7461 49.6224L81.3309 50.0224L80.2451 49.6544C79.3828 49.3664 79.0794 49.1744 78.8399 48.7904C77.9138 47.2704 75.7581 47.3024 74.8479 48.8544C74.6403 49.1904 74.3848 49.4144 74.1932 49.4144C74.0335 49.4144 73.5226 49.5744 73.0914 49.7504L72.293 50.1024L71.8459 49.6704C71.5904 49.4304 71.1114 49.1424 70.792 49.0144L70.1852 48.8224L71.1273 48.4544C72.5325 47.9264 73.778 47.6384 75.2311 47.5104C76.5246 47.3824 76.8918 47.3984 78.7761 47.5744ZM77.6423 49.2864C77.8339 49.5584 77.8978 50.0864 77.8978 51.5264V53.4144H76.8599H75.822V51.4944C75.822 49.7824 75.8539 49.5424 76.1413 49.2544C76.5725 48.8224 77.3389 48.8384 77.6423 49.2864ZM70.8719 50.5344C71.1593 50.8224 71.1912 51.0624 71.1912 53.3024V55.7504L70.6962 56.4384C70.2651 57.0144 70.1214 57.1104 69.6902 57.0624L69.1952 57.0144L69.1473 54.2144C69.1313 52.6784 69.1473 51.2544 69.1952 51.0624C69.4028 50.2304 70.281 49.9424 70.8719 50.5344ZM84.301 50.6784L84.7641 51.1584L84.7321 54.0864L84.6842 57.0144L84.1094 57.0624C83.5824 57.1104 83.4866 57.0464 82.9437 56.3104L82.3689 55.4944V53.1744C82.3689 51.0624 82.4008 50.8224 82.6882 50.5344C83.1513 50.0704 83.7421 50.1344 84.301 50.6784ZM74.5445 52.1664V53.6544L73.6343 54.0544C73.1393 54.2784 72.6763 54.4864 72.5964 54.5024C72.5166 54.5344 72.4846 53.8624 72.5006 52.9984L72.5485 51.4464L73.2671 51.0784C74.4966 50.4384 74.5445 50.4704 74.5445 52.1664ZM80.5325 51.1584C81.0116 51.4304 81.0116 51.4464 81.0595 52.9824L81.1074 54.5344L80.309 54.1344C79.8778 53.9104 79.4467 53.7344 79.3509 53.7344C79.2391 53.7344 79.1753 53.2064 79.1753 52.1984V50.6624L79.6224 50.7744C79.8619 50.8224 80.277 50.9984 80.5325 51.1584ZM47.2391 53.4944V55.8144H42.5285H37.818V53.4944V51.1744H42.5285H47.2391V53.4944ZM79.1433 55.0304C81.1234 55.7184 82.8479 57.7664 82.8479 59.4464V59.8304L82.3369 59.4464C80.6922 58.2144 78.7122 57.6544 76.3808 57.7824C74.4966 57.8944 73.2351 58.2784 71.814 59.2064L70.824 59.8304L70.9357 59.1744C71.3669 56.4544 74.3848 54.3584 77.4188 54.6464C77.8978 54.6944 78.6802 54.8704 79.1433 55.0304ZM47.2391 59.1744V61.2544H42.5285H37.818V59.1744V57.0944H42.5285H47.2391V59.1744ZM69.6583 59.2064C69.5305 60.5664 69.5146 60.6144 68.9557 60.6144C68.5086 60.6144 68.4766 60.6624 68.4766 61.1584C68.4766 61.6704 68.5246 61.7184 69.0036 61.7664L69.5146 61.8144V68.7744V75.7344L69.0036 75.7824L68.4766 75.8304V77.5104V79.1744H76.7002H84.9238V77.5104C84.9238 75.8944 84.9078 75.8304 84.5725 75.7824L84.2052 75.7344V68.7744V61.8144L84.7321 61.7664C85.1952 61.7184 85.2431 61.6704 85.2431 61.1584C85.2431 60.6624 85.2112 60.6144 84.7641 60.6144C84.2052 60.6144 84.1733 60.5664 84.0774 59.2064L83.9976 58.1984L84.8918 58.2464L85.802 58.2944V72.3744V86.4544H76.7002H67.5984L67.5505 72.5344C67.5345 64.8704 67.5505 58.5184 67.5984 58.4064C67.6463 58.2784 68.0295 58.2144 68.7162 58.2144H69.7541L69.6583 59.2064ZM79.0315 59.2704C80.325 59.6544 81.6503 60.4224 82.3689 61.1904L83.0076 61.8944V65.0944V68.2944H76.9397H70.8719V64.9504V61.6064L71.6383 60.9344C72.5166 60.1504 73.5864 59.5744 74.7521 59.2544C75.8858 58.9504 77.9617 58.9504 79.0315 59.2704ZM102.121 60.6464C102.6 61.1904 102.664 61.5104 102.345 61.7984C102.01 62.1024 100.876 62.1344 100.604 61.8624C100.301 61.5584 100.381 61.1104 100.812 60.6944C101.291 60.1984 101.706 60.1824 102.121 60.6464ZM52.3329 60.8704C52.5246 61.1104 52.6683 61.3984 52.6683 61.5104C52.6683 62.2144 51.1353 62.5024 50.6882 61.8784C50.4806 61.5744 50.4806 61.4784 50.6723 61.0784C51.0715 60.3264 51.8379 60.2304 52.3329 60.8704ZM65.7142 60.8064C66.4647 61.5104 66.0495 62.2144 64.8998 62.2144C64.1174 62.2144 63.7661 61.7184 64.0854 61.0784C64.4527 60.3744 65.1234 60.2464 65.7142 60.8064ZM88.6763 60.5504C88.804 60.6144 89.0275 60.8544 89.1553 61.0944C89.3469 61.4624 89.3469 61.5744 89.1393 61.8784C88.6922 62.5024 87.1593 62.2144 87.1593 61.5104C87.1593 61.3984 87.303 61.1104 87.4946 60.8704C87.814 60.4544 88.1653 60.3584 88.6763 60.5504ZM59.6782 62.1504C60.9717 62.5344 62.0735 63.6704 62.4886 65.0944C62.5844 65.4464 62.5206 65.4144 61.9138 64.8224C60.8439 63.7984 59.8699 63.4144 58.3369 63.4144C57.315 63.4144 56.8998 63.4944 56.277 63.7984C55.5106 64.1824 54.5685 64.9984 54.0575 65.7344L53.786 66.1344L53.8659 65.5744C54.313 62.8864 56.9477 61.3344 59.6782 62.1504ZM97.1872 62.4704C98.1772 62.9504 98.8639 63.8144 99.2152 64.9824C99.5505 66.1184 99.5186 66.1984 98.9756 65.4464C97.1872 62.9664 93.7062 62.6624 91.4068 64.7744L90.6882 65.4464L90.9277 64.7104C91.7581 62.2784 94.6643 61.2384 97.1872 62.4704ZM47.2391 66.2944V70.0544H42.5285H37.818V66.2944V62.5344H42.5285H47.2391V66.2944ZM102.169 65.4944V67.6544H101.451H100.732V65.4944V63.3344H101.451H102.169V65.4944ZM52.3489 65.5744V67.6544H51.6303H50.9118V65.5744V63.4944H51.6303H52.3489V65.5744ZM65.7621 65.5744V67.6544H65.0435H64.325V65.5744V63.4944H65.0435H65.7621V65.5744ZM88.9158 65.5744V67.6544H88.1972H87.4786V65.5744V63.4944H88.1972H88.9158V65.5744ZM59.9816 65.0304C61.323 65.7024 62.0894 66.8864 62.0894 68.3264C62.0894 68.8544 62.1214 68.9024 62.6962 68.9984C63.0156 69.0464 63.9098 69.0944 64.6922 69.0944H66.0814V74.2944V79.4944H63.7022C61.9457 79.4944 61.1473 79.4304 60.6363 79.2384C59.4068 78.8064 57.81 78.7584 56.5325 79.1584C55.6383 79.4304 54.9996 79.4944 53.323 79.4944H51.2311V74.8544C51.2311 71.8624 51.1673 70.2144 51.0715 70.2144C50.9916 70.2144 50.9118 69.9584 50.9118 69.6544V69.0944H52.0136C52.6044 69.0944 53.4347 69.0464 53.8499 68.9984C54.5365 68.9024 54.5844 68.8544 54.5844 68.4064C54.5844 67.5424 54.9517 66.6784 55.6543 65.8944C56.82 64.5984 58.4487 64.2624 59.9816 65.0304ZM96.5485 64.9984C97.7301 65.6064 98.6563 67.0944 98.6563 68.3744C98.6563 68.8704 98.6882 68.9024 99.3908 68.9984C99.806 69.0464 100.636 69.0944 101.227 69.0944H102.329V74.2944V79.4944H100.141C98.4008 79.4944 97.7142 79.4304 96.7561 79.1584C95.3828 78.7744 93.8339 78.8064 92.6044 79.2384C92.0934 79.4304 91.295 79.4944 89.5385 79.4944H87.1593V74.2944V69.0944H88.5645C89.3309 69.0944 90.2252 69.0464 90.5605 68.9984C91.1353 68.9024 91.1513 68.8704 91.1513 68.2304C91.1513 66.8384 92.2531 65.3664 93.6583 64.8384C94.4088 64.5504 95.8619 64.6464 96.5485 64.9984ZM82.9277 72.6944V75.7344L76.9078 75.7824L70.8719 75.8144V72.6944V69.5744L76.9078 69.6064L82.9277 69.6544V72.6944ZM49.6343 75.1744V78.8544H40.6922H31.7501V75.1744V71.4944H40.6922H49.6343V75.1744ZM83.6463 77.4144V77.8944H76.7002H69.7541V77.5264C69.7541 77.3184 69.802 77.0944 69.8659 77.0464C69.9138 76.9824 73.0435 76.9344 76.812 76.9344H83.6463V77.4144ZM49.6343 81.0144V81.8944H40.6922H31.7501V81.0144V80.1344H40.6922H49.6343V81.0144ZM60.0774 80.4544C61.0036 80.8064 61.8499 81.6064 62.0256 82.3104C62.1373 82.7424 61.9457 83.0944 61.802 82.6944C61.7701 82.5664 61.4188 82.1504 61.0515 81.7984C60.2531 81.0144 59.1673 80.6784 57.8579 80.8224C56.5166 80.9664 55.6543 81.4944 54.9677 82.6304C54.8559 82.8064 54.7281 82.8864 54.6802 82.8384C54.4567 82.6144 54.808 81.8304 55.3988 81.2384C56.4687 80.1664 58.4168 79.8464 60.0774 80.4544ZM96.9477 80.5984C97.7621 80.9984 98.4008 81.7024 98.5764 82.4064C98.7361 83.0304 98.4966 82.9504 97.9856 82.2144C96.804 80.5024 93.7541 80.2784 92.1892 81.7984C91.822 82.1504 91.4707 82.5664 91.4387 82.6944C91.295 83.0944 91.1034 82.7424 91.2152 82.3104C91.6623 80.5024 94.824 79.5584 96.9477 80.5984ZM53.802 81.2064C53.6423 81.5424 53.4507 82.0544 53.3868 82.3264C53.291 82.7744 53.2112 82.8544 52.812 82.8544C52.3808 82.8544 52.3489 82.8864 52.3489 83.4944V84.1344H53.307H54.2651V86.2944V88.4544H52.7481H51.2311V84.5344V80.6144H52.6683H54.1054L53.802 81.2064ZM66.0814 84.5344V88.4544H64.4048H62.7281V86.2944V84.1344H63.6064H64.4846V83.4944C64.4846 82.8704 64.4687 82.8544 63.9258 82.8544C63.4307 82.8544 63.3669 82.8064 63.3669 82.4544C63.3669 82.2304 63.2232 81.7664 63.0475 81.4144C62.8719 81.0624 62.7281 80.7424 62.7281 80.6944C62.7281 80.6464 63.4786 80.6144 64.4048 80.6144H66.0814V84.5344ZM90.5126 80.6784C90.5126 80.7104 90.3689 81.0464 90.1932 81.4304C90.0176 81.8144 89.8739 82.2944 89.8739 82.4864C89.8739 82.8064 89.794 82.8544 89.315 82.8544C88.7721 82.8544 88.7561 82.8704 88.7561 83.4944V84.1344H89.6343H90.5126V86.2944V88.4544H88.8359H87.1593V84.5344V80.6144H88.8359C89.7621 80.6144 90.5126 80.6464 90.5126 80.6784ZM102.329 84.5344V88.4544H100.652H98.9756V86.2944V84.1344H99.9337H100.892V83.4944C100.892 82.9024 100.86 82.8544 100.429 82.8544C100.03 82.8544 99.9497 82.7744 99.8699 82.3264C99.822 82.0384 99.6303 81.5424 99.4547 81.2064L99.1353 80.6144H100.732H102.329V84.5344ZM59.5984 82.2784C60.2531 82.5504 60.6523 83.0944 60.6523 83.6864C60.6523 84.0544 60.7162 84.1344 61.0515 84.1344H61.4507V86.9344V89.7344H58.4966H55.5425V86.9344C55.5425 84.5504 55.5745 84.1344 55.782 84.1344C55.9098 84.1344 56.0216 83.9904 56.0216 83.8144C56.0216 82.4864 58.0335 81.6224 59.5984 82.2784ZM96.1014 82.3104C96.7721 82.5824 97.2192 83.1904 97.2192 83.8144C97.2192 83.9904 97.3309 84.1344 97.4587 84.1344C97.6663 84.1344 97.6982 84.5504 97.6982 86.9344V89.7344H94.7441H91.79V86.9344V84.1344H92.1892C92.5246 84.1344 92.5884 84.0544 92.5884 83.6704C92.5884 82.3904 94.4727 81.6544 96.1014 82.3104ZM49.6343 85.7344V88.4544H40.6922H31.7501V85.7344V83.0144H40.6922H49.6343V85.7344ZM85.8499 93.7664C85.818 97.6544 85.7381 99.7184 85.6423 99.7024C85.5465 99.6704 85.4667 98.7584 85.4347 97.4944C85.4188 96.3104 85.3389 95.3344 85.2591 95.3344C85.1792 95.3344 85.0355 95.1264 84.9238 94.8704C84.8279 94.6144 84.6044 94.2784 84.4287 94.1184C84.1573 93.8784 84.1254 93.6064 84.1254 91.6224V89.4144H76.7002H69.2751V91.6704C69.2751 94.1024 69.307 94.0064 68.2371 95.2064C68.0455 95.4304 67.9976 95.9424 67.9976 97.6704C67.9976 99.3344 67.9497 99.8304 67.806 99.7824C67.6463 99.7184 67.5824 98.3424 67.5505 93.7664L67.5186 87.8144H76.7002H85.8818L85.8499 93.7664ZM49.6343 94.7744V99.8144H40.6922H31.7501V94.7744V89.7344H40.6922H49.6343V94.7744ZM54.2651 90.3744V91.0144H58.4966H62.7281V90.3744V89.7344H64.4048H66.0814V94.7744V99.8144H58.6563H51.2311V94.7744V89.7344H52.7481H54.2651V90.3744ZM90.5126 90.3744V91.0144H94.7441H98.9756V90.3744V89.7344H100.652H102.329V94.7744V99.8144H94.7441H87.1593V94.7744V89.7344H88.8359H90.5126V90.3744ZM82.8479 92.0544C82.8479 93.4944 82.8319 93.5744 82.5126 93.5744C81.9697 93.5744 81.1553 94.1664 80.8679 94.7744C80.7242 95.0784 80.5325 95.3344 80.4527 95.3344C80.3569 95.3344 80.293 96.2624 80.293 97.5744C80.293 99.4624 80.2611 99.8144 80.0535 99.8144C79.8459 99.8144 79.814 99.3504 79.814 96.6304C79.814 94.6784 79.7501 93.4144 79.6543 93.3824C79.5745 93.3504 79.3349 93.0144 79.1433 92.6144C78.6323 91.6224 77.9138 91.1744 76.8279 91.1744C76.3489 91.1744 75.7581 91.2864 75.5186 91.4144C74.9597 91.7024 74.2571 92.5184 74.1293 93.0304C74.0814 93.2384 73.9697 93.4144 73.8898 93.4144C73.81 93.4144 73.7301 94.8384 73.7142 96.5664C73.6663 99.2544 73.6343 99.7344 73.4267 99.7344C73.2351 99.7344 73.1872 99.3664 73.1393 97.5744C73.1234 96.3904 73.0435 95.3824 72.9637 95.3344C72.8998 95.2864 72.7082 95.0144 72.5645 94.7264C72.2611 94.1344 71.4627 93.5744 70.9198 93.5744C70.5685 93.5744 70.5525 93.5264 70.5525 92.1664C70.5525 91.3824 70.6004 90.6944 70.6643 90.6464C70.7122 90.5824 73.4906 90.5344 76.812 90.5344H82.8479V92.0544ZM77.7381 92.8704C78.0575 93.1744 78.1373 93.4144 78.1214 93.9744C78.1054 94.4864 78.1693 94.6944 78.3289 94.6944C78.5046 94.6944 78.5365 95.1584 78.5046 97.2064L78.4567 99.7344H76.7002H74.9437L74.8958 97.2064C74.8639 95.0464 74.8958 94.6944 75.1034 94.6944C75.279 94.6944 75.3429 94.5184 75.3429 94.0064C75.3429 92.4704 76.6842 91.8304 77.7381 92.8704ZM71.1273 94.9824C71.4627 95.1904 71.6862 95.8144 71.5745 96.2144C71.5106 96.4544 71.5425 96.6144 71.6543 96.6144C71.7661 96.6144 71.8299 97.1584 71.8299 98.2144V99.8304L70.6004 99.7824L69.3549 99.7344L69.307 98.1664C69.2751 97.1744 69.323 96.6144 69.4347 96.6144C69.5146 96.6144 69.5944 96.3424 69.5944 96.0224C69.5944 95.7024 69.7062 95.3024 69.8659 95.1424C70.1214 94.8544 70.808 94.7584 71.1273 94.9824ZM83.6303 95.2704C83.8539 95.5584 83.9178 95.8144 83.8539 96.1504C83.806 96.4384 83.8379 96.6144 83.9497 96.6144C84.0615 96.6144 84.1254 97.1424 84.1254 98.2144V99.8144H82.8479H81.5705V98.2144C81.5705 97.2544 81.6343 96.6144 81.7301 96.6144C81.826 96.6144 81.8898 96.3424 81.8898 96.0224C81.8898 94.9024 82.9757 94.4224 83.6303 95.2704Z" fill="#08536B"/>
<path d="M38.9375 47.5743V48.6143H39.5762H40.2149V47.5743V46.5343H39.5762H38.9375V47.5743Z" fill="#08536B"/>
<path d="M41.6484 47.5743V48.6143H42.2872H42.9259V47.5743V46.5343H42.2872H41.6484V47.5743Z" fill="#08536B"/>
<path d="M44.3633 47.5743V48.6143H45.002H45.6407V47.5743V46.5343H45.002H44.3633V47.5743Z" fill="#08536B"/>
<path d="M75.9818 60.1506C75.4708 60.3586 74.896 60.9026 74.6086 61.4306C74.4489 61.7666 74.2413 61.8786 73.6345 61.9586C72.6924 62.0706 71.7663 62.7746 71.5427 63.5426C71.4469 63.8146 71.3351 64.9346 71.2872 66.0066L71.1914 67.9746H76.8601H82.5128L82.417 65.8466C82.3691 64.5986 82.2413 63.5586 82.1136 63.3186C81.7942 62.6626 80.9798 62.0706 80.2772 61.9586C79.7982 61.8786 79.5906 61.7346 79.415 61.3986C79.0158 60.6306 78.1375 60.0866 77.2114 60.0226C76.7483 60.0066 76.2054 60.0546 75.9818 60.1506ZM77.7383 61.4146C78.2812 61.7026 78.409 62.2146 78.4888 64.4706L78.5687 66.6946H77.0357H75.5028V64.6946C75.5028 62.5666 75.6944 61.7666 76.2533 61.4306C76.6205 61.2226 77.3551 61.2066 77.7383 61.4146ZM74.3531 64.9666L74.401 66.6946H73.5068H72.6285V65.3986C72.6285 64.6946 72.7084 63.9746 72.8042 63.7986C72.9958 63.4306 73.5227 63.1746 73.9858 63.2226C74.2732 63.2546 74.3052 63.3826 74.3531 64.9666ZM80.6924 63.5746C81.0597 63.9266 81.0916 64.0866 81.0916 65.3346V66.6946H80.373H79.6545V65.0466C79.6545 64.1346 79.7024 63.3346 79.7663 63.2866C79.9738 63.0786 80.3092 63.1746 80.6924 63.5746Z" fill="#08536B"/>
<path d="M57.299 66.2308C56.7082 66.4708 56.0535 67.1588 55.8459 67.7668C55.7501 68.0548 55.6064 68.2948 55.5265 68.2948C55.4467 68.2948 55.3828 69.1428 55.3828 70.2148V72.1348H58.4167H61.4507V70.2148C61.4507 68.6148 61.4187 68.2948 61.2112 68.2948C61.0834 68.2948 60.9716 68.1668 60.9716 68.0068C60.9716 67.5588 60.3968 66.8228 59.7421 66.4228C59.0874 66.0228 58.0175 65.9428 57.299 66.2308ZM59.2631 67.6548C59.4866 67.8308 59.7102 68.1988 59.774 68.4548C59.8379 68.7268 59.9497 68.9348 60.0295 68.9348C60.1094 68.9348 60.1732 69.3668 60.1732 69.8948V70.8548H58.3369H56.5006V69.9748C56.5006 69.3348 56.5644 69.0628 56.7401 68.9988C56.8678 68.9348 56.9796 68.7268 56.9796 68.5028C56.9796 67.5268 58.4167 66.9828 59.2631 67.6548Z" fill="#08536B"/>
<path d="M54.4258 74.694V75.334H58.4178H62.4098V74.694V74.054H58.4178H54.4258V74.694Z" fill="#08536B"/>
<path d="M52.5078 77.2547V78.0547H53.1465H53.7853V77.2547V76.4547H53.1465H52.5078V77.2547Z" fill="#08536B"/>
<path d="M56.0234 77.2547V78.0547H56.6622H57.3009V77.2547V76.4547H56.6622H56.0234V77.2547Z" fill="#08536B"/>
<path d="M59.5352 77.2547V78.0547H60.1739H60.8126V77.2547V76.4547H60.1739H59.5352V77.2547Z" fill="#08536B"/>
<path d="M63.207 77.2547V78.0547H63.7659H64.3248V77.2547V76.4547H63.7659H63.207V77.2547Z" fill="#08536B"/>
<path d="M93.6094 66.3588C93.0186 66.7108 92.4597 67.3988 92.332 67.9268C92.2681 68.1188 92.1404 68.2948 92.0126 68.2948C91.837 68.2948 91.7891 68.6788 91.7891 70.2148V72.1348H94.823H97.8569V70.2148C97.8569 69.1588 97.7931 68.2948 97.7132 68.2948C97.6334 68.2948 97.5216 68.1188 97.4737 67.9108C97.33 67.3348 96.5954 66.5188 95.9887 66.2788C95.2541 65.9588 94.2002 66.0068 93.6094 66.3588ZM95.8609 67.7348C96.0845 67.9428 96.2601 68.3108 96.2601 68.5348C96.2601 68.7908 96.3559 68.9348 96.4996 68.9348C96.6913 68.9348 96.7392 69.1428 96.7392 69.8948V70.8548H94.9028H93.0665V69.8948C93.0665 69.3668 93.1304 68.9348 93.2102 68.9348C93.2901 68.9348 93.4018 68.7268 93.4657 68.4548C93.7052 67.3988 95.1104 66.9668 95.8609 67.7348Z" fill="#08536B"/>
<path d="M90.832 74.694V75.334H94.824H98.8161V74.694V74.054H94.824H90.832V74.694Z" fill="#08536B"/>
<path d="M88.9141 77.2547V78.0547H89.4729H90.0318V77.2547V76.4547H89.4729H88.9141V77.2547Z" fill="#08536B"/>
<path d="M92.4297 77.2547V78.0547H93.0684H93.7071V77.2547V76.4547H93.0684H92.4297V77.2547Z" fill="#08536B"/>
<path d="M95.9414 77.2547V78.0547H96.5801H97.2189V77.2547V76.4547H96.5801H95.9414V77.2547Z" fill="#08536B"/>
<path d="M99.4531 77.2547V78.0547H100.092H100.731V77.2547V76.4547H100.092H99.4531V77.2547Z" fill="#08536B"/>
<path d="M32.707 86.1346V87.0146H33.3458H33.9845V86.1346V85.2546H33.3458H32.707V86.1346Z" fill="#08536B"/>
<path d="M37.5 86.1346V87.0146H38.1387H38.7774V86.1346V85.2546H38.1387H37.5V86.1346Z" fill="#08536B"/>
<path d="M42.2891 86.1346V87.0146H42.9278H43.5665V86.1346V85.2546H42.9278H42.2891V86.1346Z" fill="#08536B"/>
<path d="M47.0781 86.1346V87.0146H47.7168H48.3556V86.1346V85.2546H47.7168H47.0781V86.1346Z" fill="#08536B"/>
</g>
<circle cx="67.7578" cy="68.2246" r="67" stroke="#6C8C91"/>
<defs>
<clipPath id="clip0_7_11427">
<rect width="80" height="80" fill="white" transform="translate(27.7578 20.7744)"/>
</clipPath>
</defs>
</svg>
